<svg width="200" height="200" viewBox="0 0 200 200" fill="none" xmlns="http://www.w3.org/2000/svg">
<path d="M71.2615 56.1621C74.6038 52.1453 76.8594 46.5631 76.246 41C71.4161 41.1963 65.5767 44.1981 62.1378 48.2004C59.0225 51.7528 56.3274 57.4403 57.0712 62.8933C62.4421 63.305 67.9192 60.1788 71.2615 56.1621ZM85.1379 91.4652C85.0317 79.4341 95.0393 73.646 95.5029 73.3588C89.8567 65.22 81.1001 64.0902 77.98 63.9657C70.5177 63.2332 63.4032 68.3223 59.6311 68.3223C55.8444 68.3223 50.0195 64.0806 43.8179 64.2099C35.6843 64.3248 28.1834 68.8968 23.9959 76.1116C15.5677 90.68 21.8562 112.195 30.0864 123.977C34.1146 129.746 38.9059 136.228 45.2186 135.994C51.2946 135.759 53.5743 132.097 60.9158 132.097C68.2428 132.087 70.3149 135.984 76.7145 135.874C83.2446 135.735 87.3887 129.985 91.3927 124.188C95.9956 117.509 97.9034 111.022 98 110.697C97.8696 110.61 85.2828 105.852 85.1379 91.4652Z" fill="black"/>
<path d="M184.364 98.3662C184.364 95.8316 184.139 93.4253 183.754 91.0833H147.5V105.553H168.258C167.327 110.301 164.6 114.312 160.558 117.039V126.664H172.942C180.193 119.958 184.364 110.077 184.364 98.3662Z" fill="#4285F4"/>
<path d="M147.5 136C157.895 136 166.59 132.535 172.942 126.664L160.558 117.039C157.093 119.349 152.698 120.76 147.5 120.76C137.458 120.76 128.956 113.991 125.908 104.847H113.139V114.761C119.459 127.337 132.453 136 147.5 136Z" fill="#34A853"/>
<path d="M125.908 104.847C125.106 102.537 124.689 100.067 124.689 97.5001C124.689 94.9334 125.138 92.463 125.908 90.153V80.2393H113.139C110.508 85.4368 109 91.2759 109 97.5001C109 103.724 110.508 109.563 113.139 114.761L125.908 104.847Z" fill="#FBBC05"/>
<path d="M147.5 74.2396C153.179 74.2396 158.248 76.1967 162.258 80.0146L173.231 69.0421C166.59 62.8179 157.895 59 147.5 59C132.453 59 119.459 67.6625 113.139 80.2391L125.908 90.1529C128.956 81.0091 137.458 74.2396 147.5 74.2396Z" fill="#EA4335"/>
</svg>
