<svg width="200" height="200" viewBox="0 0 200 200" fill="none" xmlns="http://www.w3.org/2000/svg">
<path fill-rule="evenodd" clip-rule="evenodd" d="M105.424 71.7895H96.0083C95.3749 71.7895 94.8569 71.2665 94.8569 70.6294V34.1603C94.8569 33.5237 95.375 33 96.0083 33H105.424C106.057 33 106.577 33.5232 106.577 34.1603V70.6294C106.577 71.266 106.057 71.7895 105.424 71.7895Z" fill="#32BDB5"/>
<path fill-rule="evenodd" clip-rule="evenodd" d="M125.228 122.773L129.926 114.56C130.242 114.014 130.941 113.81 131.507 114.128L162.849 132.351C163.39 132.67 163.594 133.375 163.279 133.944L158.58 142.156C158.265 142.702 157.565 142.907 157 142.589L125.657 124.366C125.094 124.024 124.912 123.319 125.228 122.773V122.773Z" fill="#32BDB5"/>
<path fill-rule="evenodd" clip-rule="evenodd" d="M71.5079 114.56L76.2042 122.773C76.5199 123.318 76.3403 124.047 75.7751 124.365L44.4324 142.588C43.8897 142.907 43.1676 142.725 42.8518 142.156L38.1555 133.943C37.8379 133.397 38.0194 132.669 38.5847 132.35L69.9274 114.127C70.4681 113.809 71.1922 113.991 71.5079 114.56V114.56Z" fill="#32BDB5"/>
<path fill-rule="evenodd" clip-rule="evenodd" d="M160.05 79.8437L150.317 62.8719C149.731 61.8709 148.466 61.507 147.449 62.0984L100.705 89.2849L53.9612 62.0984C52.9686 61.5067 51.6811 61.8711 51.095 62.8719L41.3621 79.8437C40.7742 80.8448 41.1352 82.1415 42.1297 82.7328L88.8734 109.92V164.293C88.8734 165.453 89.7979 166.409 90.9719 166.409H110.415C111.566 166.409 112.516 165.476 112.516 164.293V109.92L159.259 82.7328C160.274 82.1412 160.613 80.8448 160.05 79.8437V79.8437Z" fill="#4B4F54"/>
</svg>
