<svg width="40" height="40" viewBox="0 0 40 40" fill="none" xmlns="http://www.w3.org/2000/svg">
    <circle cx="20" cy="20" r="20" fill="#FF6100"/>
    <rect x="11" y="9" width="18.5714" height="22.8571" rx="3.02466" fill="white"/>
    <path d="M14.9409 16.4875C14.9409 15.8346 15.4702 15.3052 16.1232 15.3052H24.7931C25.4461 15.3052 25.9754 15.8346 25.9754 16.4875C25.9754 17.1405 25.4461 17.6698 24.7931 17.6698H16.1232C15.4702 17.6698 14.9409 17.1405 14.9409 16.4875Z" fill="#0099FF"/>
    <path d="M14.9409 20.4284C14.9409 19.7754 15.4702 19.2461 16.1232 19.2461H24.7931C25.4461 19.2461 25.9754 19.7754 25.9754 20.4284C25.9754 21.0813 25.4461 21.6106 24.7931 21.6106H16.1232C15.4702 21.6106 14.9409 21.0813 14.9409 20.4284Z" fill="#FF6100"/>
    <path d="M14.9409 24.3693C14.9409 23.7163 15.4702 23.187 16.1232 23.187H24.7931C25.4461 23.187 25.9754 23.7163 25.9754 24.3693C25.9754 25.0222 25.4461 25.5515 24.7931 25.5515H16.1232C15.4702 25.5515 14.9409 25.0222 14.9409 24.3693Z" fill="#FFB629"/>
</svg>