<svg width="200" height="200" viewBox="0 0 200 200" fill="none" xmlns="http://www.w3.org/2000/svg">
<path d="M136.993 75.1368V58.0893C139.246 57.0364 141.153 55.3653 142.493 53.2705C143.833 51.1757 144.551 48.7434 144.562 46.2567V45.8656C144.562 38.6152 138.684 32.7376 131.435 32.7376H131.043C123.793 32.7376 117.915 38.6152 117.915 45.8656V46.2567C117.927 48.7434 118.644 51.1757 119.984 53.2705C121.324 55.3653 123.232 57.0364 125.484 58.0893V75.1368C119.01 76.1283 112.912 78.8131 107.808 82.9192L61.0545 46.5028C61.3879 45.2994 61.5618 44.0618 61.5814 42.8196C61.5871 39.8939 60.725 37.0322 59.1041 34.5965C57.4832 32.1607 55.1763 30.2605 52.4753 29.136C49.7743 28.0116 46.8004 27.7134 43.9299 28.2793C41.0594 28.8452 38.4213 30.2497 36.3491 32.3152C34.2769 34.3806 32.8639 37.0142 32.2887 39.8829C31.7135 42.7515 32.002 45.7263 33.1177 48.431C34.2334 51.1357 36.1261 53.4487 38.5566 55.0775C40.987 56.7063 43.8459 57.5777 46.7716 57.5814C49.3311 57.5694 51.8427 56.8861 54.0555 55.5997L100.095 91.4251C91.6303 104.212 91.8568 120.876 100.665 133.428L86.6621 147.435C85.5297 147.073 84.3511 146.881 83.1626 146.865C76.4565 146.871 71.0238 152.309 71.0255 159.015C71.0273 165.721 76.4634 171.156 83.169 171.158C89.8751 171.16 95.3135 165.727 95.3193 159.021C95.3035 157.833 95.1111 156.654 94.7485 155.522L108.601 141.664C120.978 151.193 137.978 152.014 151.216 143.722C164.454 135.43 171.135 119.776 167.963 104.482C164.791 89.1868 152.436 77.4808 136.993 75.1362V75.1368ZM131.251 131.205C128.692 131.273 126.145 130.829 123.76 129.897C121.376 128.965 119.202 127.565 117.368 125.779C115.533 123.994 114.075 121.859 113.08 119.5C112.084 117.141 111.571 114.607 111.571 112.047C111.571 109.487 112.084 106.953 113.08 104.594C114.075 102.236 115.533 100.101 117.368 98.3148C119.202 96.5291 121.376 95.129 123.76 94.1972C126.145 93.2654 128.692 92.8208 131.251 92.8897C141.564 93.2508 149.739 101.713 149.745 112.033C149.75 122.352 141.583 130.823 131.27 131.195" fill="#FF7A59"/>
</svg>
