<svg width="200" height="200" viewBox="0 0 200 200" fill="none" xmlns="http://www.w3.org/2000/svg">
<path d="M146.278 157.119L133.412 170.444C131.574 172.742 128.817 172.282 126.52 170.444L81.0294 124.035V167.228C81.0294 169.985 79.1914 171.823 75.9749 171.823H57.595C54.838 171.823 53 169.985 53 167.228V32.595C53 29.838 54.838 28 57.595 28H75.9749C79.1914 28 81.0294 29.838 81.0294 32.595V76.7068H143.062C145.819 76.7068 147.657 78.5448 147.657 81.3018V100.141C147.657 102.898 145.819 104.736 143.062 104.736H100.788L146.278 150.686C148.116 152.524 148.116 154.822 146.278 157.119V157.119Z" fill="#36A635"/>
</svg>
