<svg width="200" height="200" viewBox="0 0 200 200" fill="none" xmlns="http://www.w3.org/2000/svg">
<path fill-rule="evenodd" clip-rule="evenodd" d="M85.3351 52.2694C90.9394 46.4312 98.7471 42.8059 107.378 42.8059C118.851 42.8059 128.864 49.2049 134.194 58.7044C138.964 56.574 144.129 55.4759 149.353 55.4821C170.048 55.4821 186.823 72.4053 186.823 93.2846C186.823 114.164 170.048 131.087 149.353 131.087C146.823 131.087 144.355 130.834 141.969 130.353C137.276 138.724 128.326 144.381 118.058 144.381C113.76 144.381 109.693 143.393 106.076 141.623C101.315 152.82 90.2265 160.667 77.3051 160.667C63.8494 160.667 52.3785 152.151 47.9775 140.21C46.0167 140.624 44.018 140.832 42.0139 140.832C25.99 140.834 13.0001 127.709 13.0001 111.518C12.9881 106.386 14.3212 101.342 16.8666 96.8864C19.412 92.431 23.0807 88.7207 27.507 86.1252C25.6707 81.8939 24.7259 77.3297 24.7315 72.7171C24.7315 54.0944 39.8467 39 58.4923 39C63.6865 38.994 68.8118 40.1884 73.4681 42.4902C78.1244 44.792 82.1858 48.1388 85.3351 52.2694Z" fill="#00A1E0"/>
<path fill-rule="evenodd" clip-rule="evenodd" d="M38.1788 102.096L38.8821 100.143C38.9943 99.8088 39.2471 99.919 39.3498 99.9818C39.5456 100.098 39.6863 100.202 39.9391 100.351C42.0113 101.66 43.9313 101.674 44.5302 101.674C46.0814 101.674 47.0434 100.852 47.0434 99.7441V99.6871C47.0434 98.4818 45.5605 98.0256 43.8477 97.5009L43.4675 97.3792C41.1159 96.71 38.6008 95.7424 38.6008 92.7654V92.7045C38.6008 89.8796 40.8802 87.9082 44.1424 87.9082L44.4998 87.9044C46.416 87.9044 48.2676 88.4614 49.6098 89.275C49.7315 89.3511 49.8493 89.4917 49.7809 89.6781L49.0585 91.6304C48.9311 91.9631 48.5832 91.7426 48.5832 91.7426C47.183 91.0129 45.6335 90.6155 44.0549 90.581C42.6709 90.581 41.7813 91.3149 41.7813 92.311V92.3737C41.7813 93.5353 43.3059 94.0315 45.0739 94.6075L45.378 94.7025C47.722 95.4439 50.2238 96.4705 50.2238 99.2936V99.3525C50.2238 102.404 48.0072 104.299 44.4427 104.299C42.6919 104.299 41.017 104.029 39.2452 103.088C38.9107 102.894 38.5799 102.727 38.2529 102.489C38.2187 102.44 38.0685 102.381 38.1769 102.096H38.1788ZM90.376 102.096L91.0812 100.143C91.1839 99.824 91.4824 99.9418 91.547 99.9818C91.7409 100.102 91.8854 100.202 92.1363 100.351C94.2123 101.66 96.1285 101.674 96.7331 101.674C98.2786 101.674 99.2425 100.852 99.2425 99.7441V99.6871C99.2425 98.4818 97.7615 98.0256 96.0487 97.5009L95.6685 97.3792C93.3131 96.71 90.798 95.7424 90.798 92.7654V92.7045C90.798 89.8796 93.0793 87.9082 96.3415 87.9082L96.697 87.9044C98.6132 87.9044 100.467 88.4614 101.811 89.275C101.929 89.3511 102.048 89.4917 101.982 89.6781C101.915 89.851 101.322 91.4479 101.259 91.6304C101.128 91.9631 100.784 91.7426 100.784 91.7426C99.3834 91.0127 97.8332 90.6152 96.254 90.581C94.87 90.581 93.9804 91.3149 93.9804 92.311V92.3737C93.9804 93.5353 95.5031 94.0315 97.273 94.6075L97.5771 94.7025C99.9211 95.4439 102.421 96.4705 102.421 99.2936V99.3525C102.421 102.404 100.206 104.299 96.6418 104.299C94.8891 104.299 93.2142 104.029 91.4443 103.088C91.1098 102.894 90.779 102.727 90.4501 102.489C90.4159 102.44 90.2657 102.381 90.376 102.096ZM128.986 92.9155C129.279 93.8965 129.424 94.9744 129.424 96.1131C129.424 97.2537 129.279 98.3278 128.986 99.3088C128.719 100.255 128.259 101.135 127.637 101.896C127.013 102.635 126.23 103.224 125.348 103.618C124.435 104.037 123.363 104.246 122.158 104.246C120.952 104.246 119.876 104.037 118.968 103.618C118.085 103.224 117.303 102.635 116.679 101.896C116.057 101.135 115.597 100.256 115.327 99.3107C115.028 98.2714 114.881 97.1945 114.89 96.1131C114.89 94.9725 115.036 93.8965 115.327 92.9155C115.62 91.927 116.074 91.0563 116.677 90.3301C117.302 89.5882 118.085 88.9947 118.968 88.5925C119.878 88.1667 120.949 87.9519 122.158 87.9519C123.367 87.9519 124.437 88.1667 125.348 88.5925C126.256 89.0165 127.028 89.6001 127.637 90.3301C128.241 91.0563 128.697 91.927 128.986 92.9155ZM126.013 96.1131C126.013 94.3889 125.694 93.0334 125.059 92.0829C124.431 91.14 123.481 90.6837 122.158 90.6837C120.835 90.6837 119.892 91.14 119.272 92.0829C118.65 93.0334 118.333 94.3889 118.333 96.1131C118.333 97.8355 118.65 99.2004 119.276 100.159C119.892 101.113 120.835 101.575 122.158 101.575C123.481 101.575 124.431 101.111 125.059 100.159C125.69 99.2004 126.013 97.8355 126.013 96.1131ZM153.43 101.113L154.16 103.132C154.255 103.379 154.04 103.487 154.04 103.487C152.913 103.925 151.348 104.236 149.826 104.236C147.244 104.236 145.267 103.493 143.948 102.025C142.636 100.562 141.967 98.5712 141.967 96.1017C141.967 94.9592 142.132 93.8775 142.455 92.8984C142.778 91.9099 143.263 91.0392 143.902 90.313C144.565 89.5664 145.383 88.9735 146.299 88.5754C147.25 88.1515 148.368 87.9386 149.615 87.9386C150.457 87.9386 151.206 87.9899 151.848 88.085C152.535 88.1914 153.449 88.4386 153.835 88.5887C153.905 88.6154 154.101 88.7104 154.021 88.9404C153.74 89.7332 153.548 90.2503 153.287 90.9727C153.173 91.2806 152.941 91.178 152.941 91.178C151.962 90.87 151.023 90.7293 149.797 90.7293C148.324 90.7293 147.217 91.2198 146.495 92.1798C145.765 93.1475 145.356 94.4155 145.351 96.1017C145.345 97.9514 145.809 99.3221 146.63 100.17C147.449 101.016 148.594 101.444 150.035 101.444C150.618 101.444 151.17 101.406 151.666 101.328C152.156 101.25 152.616 101.098 153.05 100.928C153.05 100.928 153.329 100.824 153.43 101.113ZM168.657 92.3547C169.306 94.6246 168.967 96.5846 168.956 96.6929C168.931 96.9515 168.665 96.9553 168.665 96.9553L158.591 96.9477C158.654 98.478 159.021 99.5616 159.762 100.297C160.491 101.018 161.646 101.48 163.211 101.482C165.603 101.487 166.623 101.006 167.348 100.738C167.348 100.738 167.623 100.64 167.728 100.913L168.384 102.759C168.517 103.069 168.41 103.177 168.298 103.24C167.667 103.588 166.137 104.238 163.224 104.246C161.812 104.252 160.582 104.05 159.569 103.656C158.606 103.3 157.738 102.725 157.034 101.978C156.362 101.244 155.862 100.369 155.573 99.4171C155.261 98.3738 155.108 97.2895 155.118 96.2006C155.118 95.0599 155.265 93.9763 155.559 92.9859C155.854 91.9878 156.312 91.1076 156.922 90.3681C157.555 89.6134 158.348 89.0093 159.243 88.6002C160.167 88.1648 161.312 87.9519 162.57 87.9519C163.648 87.9519 164.633 88.1838 165.452 88.5374C166.083 88.8074 166.718 89.2959 167.369 89.9955C167.779 90.4366 168.405 91.4023 168.657 92.3547ZM158.639 94.4592H165.825C165.751 93.5353 165.57 92.7064 165.156 92.0829C164.525 91.14 163.654 90.621 162.333 90.621C161.01 90.621 160.07 91.14 159.449 92.0829C159.042 92.7064 158.782 93.5011 158.639 94.4592ZM87.9673 92.3547C88.6137 94.6246 88.281 96.5846 88.2696 96.6929C88.243 96.9515 87.9768 96.9553 87.9768 96.9553L77.9013 96.9477C77.9659 98.478 78.3309 99.5616 79.0742 100.297C79.8023 101.018 80.9562 101.48 82.5208 101.482C84.9123 101.487 85.937 101.006 86.6594 100.738C86.6594 100.738 86.9351 100.64 87.0377 100.913L87.6955 102.759C87.8285 103.069 87.7221 103.177 87.6118 103.24C86.9769 103.588 85.4446 104.238 82.536 104.246C81.1216 104.252 79.8917 104.05 78.8803 103.656C77.9171 103.299 77.0493 102.725 76.3443 101.978C75.6733 101.244 75.1751 100.369 74.8862 99.4171C74.5721 98.3742 74.4176 97.2897 74.428 96.2006C74.428 95.0599 74.5763 93.9763 74.8691 92.9859C75.143 92.0302 75.6073 91.1398 76.234 90.3681C76.8663 89.614 77.6586 89.0101 78.5533 88.6002C79.481 88.1648 80.6255 87.9519 81.8802 87.9519C82.8718 87.9496 83.8536 88.1488 84.766 88.5374C85.3971 88.8074 86.0321 89.2959 86.6803 89.9955C87.0909 90.4366 87.7164 91.4023 87.9673 92.3547ZM77.9469 94.4592H85.1367C85.0606 93.5353 84.88 92.7064 84.4675 92.0829C83.8401 91.14 82.9657 90.621 81.6444 90.621C80.3213 90.621 79.3803 91.14 78.7624 92.0829C78.3518 92.7064 78.0933 93.5011 77.9469 94.4592ZM60.1796 93.9782C60.1796 93.9782 60.9743 94.0486 61.8412 94.174V93.7482C61.8412 92.4042 61.5617 91.7711 61.0123 91.3472C60.4496 90.9175 59.6093 90.6951 58.5219 90.6951C58.5219 90.6951 56.0696 90.6647 54.1305 91.7179C54.0411 91.7711 53.967 91.8015 53.967 91.8015C53.967 91.8015 53.7237 91.8871 53.6362 91.638L52.9233 89.7218C52.8131 89.4461 53.0127 89.3207 53.0127 89.3207C53.9195 88.6135 56.1171 88.1857 56.1171 88.1857C57.0092 88.029 57.9127 87.9457 58.8185 87.9367C60.8298 87.9367 62.3868 88.4043 63.4456 89.3302C64.5064 90.2598 65.0463 91.7578 65.0463 93.7767L65.052 102.993C65.052 102.993 65.0729 103.259 64.8201 103.32C64.8201 103.32 64.4494 103.423 64.1167 103.501C63.7802 103.579 62.5674 103.826 61.5769 103.993C60.5655 104.162 59.5417 104.248 58.5162 104.248C57.5372 104.248 56.6399 104.156 55.849 103.976C55.112 103.821 54.4141 103.519 53.7978 103.086C53.2361 102.678 52.7852 102.137 52.4861 101.51C52.1762 100.877 52.0203 100.103 52.0203 99.2099C52.0203 98.3335 52.2047 97.5522 52.5602 96.8868C52.9176 96.2253 53.4081 95.6645 54.024 95.2253C54.6603 94.7773 55.3718 94.447 56.1247 94.2501C56.9098 94.041 57.7444 93.9326 58.6075 93.9326C59.2405 93.9326 59.769 93.9459 60.1796 93.9782ZM56.1703 101.058C56.1646 101.056 57.0733 101.771 59.1246 101.645C60.5655 101.558 61.8431 101.284 61.8431 101.284V96.7024C61.8431 96.7024 60.5541 96.4914 59.1074 96.4705C57.0562 96.4458 56.1817 97.2005 56.1874 97.1986C55.5829 97.6283 55.2882 98.2651 55.2882 99.1472C55.2882 99.7118 55.389 100.153 55.5924 100.461C55.7198 100.664 55.7749 100.74 56.1703 101.058ZM141.442 88.7865C141.347 89.0621 140.858 90.4423 140.682 90.9004C140.617 91.0753 140.511 91.1951 140.315 91.1742C140.315 91.1742 139.737 91.0411 139.208 91.0411C138.845 91.0411 138.326 91.0867 137.859 91.2312C137.389 91.3754 136.963 91.6318 136.615 91.9783C136.246 92.3338 135.948 92.8338 135.731 93.4611C135.511 94.0923 135.397 95.0961 135.397 96.1036V103.609C135.397 103.649 135.389 103.689 135.374 103.726C135.359 103.763 135.337 103.797 135.308 103.825C135.28 103.854 135.246 103.876 135.209 103.892C135.172 103.907 135.133 103.915 135.093 103.915H132.448C132.408 103.916 132.368 103.908 132.33 103.893C132.292 103.878 132.258 103.856 132.229 103.828C132.2 103.799 132.177 103.766 132.161 103.728C132.145 103.691 132.137 103.651 132.136 103.611V88.583C132.136 88.4139 132.26 88.2789 132.429 88.2789H135.009C135.18 88.2789 135.302 88.4139 135.302 88.583V89.8111C135.688 89.294 136.38 88.8378 137.005 88.5564C137.632 88.2713 138.334 88.0622 139.602 88.1382C140.261 88.1781 141.119 88.3587 141.292 88.4253C141.326 88.4388 141.356 88.459 141.382 88.4845C141.408 88.5101 141.429 88.5407 141.443 88.5743C141.457 88.6079 141.464 88.644 141.464 88.6805C141.464 88.7169 141.456 88.7529 141.442 88.7865ZM116.595 81.8229C116.666 81.8514 116.858 81.9446 116.782 82.1727L116.008 84.2886C115.943 84.4483 115.901 84.5433 115.573 84.4445C115.138 84.3076 114.684 84.2371 114.228 84.2353C113.829 84.2353 113.468 84.2867 113.149 84.3931C112.829 84.4954 112.539 84.6743 112.305 84.914C111.992 85.216 111.751 85.5835 111.597 85.99C111.227 87.0546 111.084 88.1895 111.065 88.2618H114.285C114.557 88.2618 114.643 88.3872 114.616 88.5868L114.24 90.6818C114.179 90.986 113.903 90.9746 113.903 90.9746H110.584L108.316 103.818C108.121 104.97 107.825 106.102 107.43 107.202C107.075 108.132 106.708 108.81 106.119 109.459C105.616 110.039 104.976 110.484 104.257 110.755C103.56 111.012 102.712 111.143 101.786 111.143C101.345 111.143 100.87 111.133 100.309 111C99.9965 110.929 99.6886 110.839 99.3869 110.73C99.2634 110.687 99.1626 110.529 99.2349 110.327C99.3033 110.128 99.9002 108.495 99.9801 108.28C100.083 108.021 100.345 108.12 100.345 108.12C100.524 108.196 100.649 108.246 100.887 108.293C101.128 108.341 101.451 108.383 101.697 108.383C102.136 108.383 102.535 108.329 102.883 108.211C103.301 108.076 103.548 107.831 103.803 107.504C104.069 107.16 104.286 106.694 104.508 106.069C104.731 105.436 104.934 104.599 105.109 103.586L107.368 90.9765H105.143C104.877 90.9765 104.786 90.851 104.816 90.6495L105.189 88.5545C105.248 88.2504 105.531 88.2618 105.531 88.2618H107.814L107.938 87.5812C108.28 85.5585 108.959 84.0205 109.963 83.0111C110.972 81.994 112.407 81.4807 114.228 81.4807C114.749 81.4807 115.209 81.5149 115.599 81.5853C115.981 81.6575 116.272 81.724 116.595 81.8229ZM71.586 103.609C71.586 103.78 71.4681 103.915 71.297 103.915H68.626C68.4549 103.915 68.339 103.778 68.339 103.611V82.1043C68.339 81.9389 68.4568 81.802 68.6241 81.802H71.297C71.4681 81.802 71.586 81.9389 71.586 82.1062V103.609Z" fill="white"/>
</svg>
