<svg width="40" height="40" viewBox="0 0 40 40" fill="none" xmlns="http://www.w3.org/2000/svg">
<path fill-rule="evenodd" clip-rule="evenodd" d="M16.9811 9.73045C18.1418 8.52913 19.7589 7.78315 21.5464 7.78315C23.9225 7.78315 25.9962 9.09987 27.1002 11.0546C28.088 10.6162 29.1579 10.3903 30.2397 10.3916C34.5258 10.3916 38 13.8739 38 18.1702C38 22.4666 34.5258 25.9489 30.2397 25.9489C29.7157 25.9489 29.2046 25.8968 28.7105 25.7979C27.7384 27.5202 25.8848 28.6844 23.7583 28.6844C22.8681 28.6844 22.0259 28.481 21.2767 28.1168C20.2908 30.4208 17.9942 32.0357 15.3181 32.0357C12.5313 32.0357 10.1556 30.2832 9.24411 27.8261C8.838 27.9113 8.42406 27.9542 8.009 27.9541C4.69032 27.9544 2.00002 25.2537 2.00002 21.922C1.99753 20.8662 2.27363 19.8281 2.8008 18.9114C3.32796 17.9946 4.08778 17.2311 5.00451 16.697C4.62419 15.8263 4.42851 14.8871 4.42968 13.938C4.42968 10.106 7.56016 7 11.4218 7C12.4975 6.99876 13.559 7.24455 14.5234 7.71819C15.4878 8.19183 16.3289 8.88051 16.9811 9.73045Z" fill="#00A1E0"/>
<path fill-rule="evenodd" clip-rule="evenodd" d="M7.21495 19.9822L7.36062 19.5805C7.38385 19.5116 7.43622 19.5343 7.45748 19.5472C7.49803 19.5711 7.52717 19.5926 7.57953 19.6231C8.00869 19.8926 8.40635 19.8954 8.53037 19.8954C8.85165 19.8954 9.05087 19.7264 9.05087 19.4983V19.4866C9.05087 19.2386 8.74377 19.1447 8.38903 19.0367L8.31028 19.0117C7.82325 18.874 7.30235 18.6749 7.30235 18.0623V18.0498C7.30235 17.4685 7.77443 17.0628 8.45005 17.0628L8.52407 17.062C8.92094 17.062 9.30443 17.1767 9.5824 17.3441C9.6076 17.3597 9.63201 17.3887 9.61783 17.427L9.46822 17.8288C9.44184 17.8972 9.36979 17.8518 9.36979 17.8518C9.07978 17.7017 8.75888 17.6199 8.43194 17.6128C8.14531 17.6128 7.96105 17.7638 7.96105 17.9688V17.9817C7.96105 18.2207 8.27681 18.3228 8.64298 18.4413L8.70597 18.4609C9.19143 18.6135 9.70957 18.8247 9.70957 19.4056V19.4177C9.70957 20.0456 9.25049 20.4356 8.51226 20.4356C8.14964 20.4356 7.80277 20.38 7.43582 20.1864C7.36653 20.1465 7.29802 20.1121 7.2303 20.0632C7.22321 20.053 7.19211 20.0409 7.21455 19.9822H7.21495ZM18.0254 19.9822L18.1714 19.5805C18.1927 19.5147 18.2545 19.539 18.2679 19.5472C18.3081 19.5719 18.338 19.5926 18.39 19.6231C18.8199 19.8926 19.2168 19.8954 19.342 19.8954C19.6621 19.8954 19.8617 19.7264 19.8617 19.4983V19.4866C19.8617 19.2386 19.555 19.1447 19.2002 19.0367L19.1215 19.0117C18.6337 18.874 18.1128 18.6749 18.1128 18.0623V18.0498C18.1128 17.4685 18.5852 17.0628 19.2609 17.0628L19.3345 17.062C19.7314 17.062 20.1153 17.1767 20.3936 17.3441C20.418 17.3597 20.4428 17.3887 20.429 17.427C20.4153 17.4626 20.2924 17.7912 20.2794 17.8288C20.2523 17.8972 20.181 17.8518 20.181 17.8518C19.8909 17.7016 19.5698 17.6198 19.2428 17.6128C18.9561 17.6128 18.7719 17.7638 18.7719 17.9688V17.9817C18.7719 18.2207 19.0872 18.3228 19.4538 18.4413L19.5168 18.4609C20.0023 18.6135 20.52 18.8247 20.52 19.4056V19.4177C20.52 20.0456 20.0613 20.4356 19.3231 20.4356C18.9601 20.4356 18.6132 20.38 18.2466 20.1864C18.1774 20.1465 18.1088 20.1121 18.0407 20.0632C18.0336 20.053 18.0025 20.0409 18.0254 19.9822ZM26.0219 18.0932C26.0825 18.295 26.1124 18.5168 26.1124 18.7512C26.1124 18.9859 26.0825 19.2069 26.0219 19.4087C25.9664 19.6034 25.8713 19.7846 25.7423 19.9411C25.6131 20.0932 25.4511 20.2143 25.2683 20.2955C25.0793 20.3816 24.8572 20.4246 24.6076 20.4246C24.358 20.4246 24.1352 20.3816 23.947 20.2955C23.7641 20.2143 23.6021 20.0932 23.4729 19.9411C23.3441 19.7846 23.2488 19.6036 23.193 19.4091C23.1311 19.1953 23.1006 18.9737 23.1024 18.7512C23.1024 18.5165 23.1327 18.295 23.193 18.0932C23.2536 17.8898 23.3477 17.7106 23.4725 17.5612C23.602 17.4085 23.7641 17.2864 23.947 17.2036C24.1355 17.116 24.3572 17.0718 24.6076 17.0718C24.858 17.0718 25.0797 17.116 25.2683 17.2036C25.4565 17.2909 25.6163 17.411 25.7423 17.5612C25.8675 17.7106 25.962 17.8898 26.0219 18.0932ZM25.4061 18.7512C25.4061 18.3964 25.3399 18.1174 25.2084 17.9219C25.0785 17.7278 24.8816 17.6339 24.6076 17.6339C24.3336 17.6339 24.1383 17.7278 24.0099 17.9219C23.8812 18.1174 23.8155 18.3964 23.8155 18.7512C23.8155 19.1056 23.8812 19.3864 24.0107 19.5836C24.1383 19.78 24.3336 19.875 24.6076 19.875C24.8816 19.875 25.0785 19.7796 25.2084 19.5836C25.3392 19.3864 25.4061 19.1056 25.4061 18.7512ZM31.0843 19.78L31.2355 20.1954C31.2552 20.2463 31.2107 20.2686 31.2107 20.2686C30.9773 20.3585 30.6532 20.4227 30.3379 20.4227C29.8032 20.4227 29.3937 20.2697 29.1205 19.9677C28.8488 19.6665 28.7102 19.257 28.7102 18.7488C28.7102 18.5137 28.7445 18.2911 28.8114 18.0897C28.8783 17.8863 28.9787 17.7071 29.111 17.5577C29.2484 17.404 29.4178 17.282 29.6075 17.2001C29.8044 17.1129 30.0359 17.0691 30.2941 17.0691C30.4686 17.0691 30.6237 17.0796 30.7568 17.0992C30.8989 17.1211 31.0883 17.172 31.1682 17.2029C31.1828 17.2083 31.2233 17.2279 31.2068 17.2752C31.1485 17.4384 31.1088 17.5448 31.0548 17.6934C31.0312 17.7568 30.9832 17.7357 30.9832 17.7357C30.7804 17.6723 30.5859 17.6433 30.3319 17.6433C30.0268 17.6433 29.7977 17.7443 29.6481 17.9418C29.4969 18.1409 29.4122 18.4018 29.411 18.7488C29.4098 19.1294 29.5059 19.4115 29.676 19.5859C29.8457 19.76 30.0827 19.848 30.3812 19.848C30.502 19.848 30.6162 19.8402 30.719 19.8242C30.8206 19.8081 30.9158 19.7768 31.0056 19.742C31.0056 19.742 31.0635 19.7205 31.0843 19.78ZM34.2381 17.9778C34.3723 18.4449 34.3022 18.8482 34.2999 18.8705C34.2948 18.9237 34.2396 18.9245 34.2396 18.9245L32.1533 18.9229C32.1663 19.2378 32.2423 19.4608 32.3958 19.6122C32.5466 19.7604 32.786 19.8555 33.11 19.8559C33.6054 19.857 33.8168 19.7581 33.9668 19.7029C33.9668 19.7029 34.0239 19.6826 34.0455 19.7389L34.1814 20.1187C34.2089 20.1825 34.1869 20.2048 34.1636 20.2177C34.0329 20.2893 33.716 20.4231 33.1128 20.4246C32.8203 20.4258 32.5655 20.3843 32.3557 20.3034C32.1563 20.23 31.9766 20.1118 31.8308 19.958C31.6915 19.807 31.588 19.627 31.5281 19.431C31.4635 19.2163 31.4318 18.9932 31.434 18.7692C31.434 18.5344 31.4643 18.3115 31.5253 18.1077C31.5863 17.9023 31.6812 17.7212 31.8076 17.569C31.9386 17.4137 32.1028 17.2894 32.2884 17.2052C32.4797 17.1156 32.7167 17.0718 32.9774 17.0718C33.2006 17.0718 33.4046 17.1195 33.5742 17.1923C33.705 17.2478 33.8365 17.3484 33.9711 17.4923C34.0562 17.5831 34.1857 17.7818 34.2381 17.9778ZM32.1631 18.4108H33.6514C33.6361 18.2207 33.5987 18.0502 33.5128 17.9219C33.3821 17.7278 33.2018 17.621 32.9281 17.621C32.6541 17.621 32.4596 17.7278 32.3309 17.9219C32.2466 18.0502 32.1927 18.2137 32.1631 18.4108ZM17.5265 17.9778C17.6604 18.4449 17.5915 18.8482 17.5891 18.8705C17.5836 18.9237 17.5285 18.9245 17.5285 18.9245L15.4418 18.9229C15.4552 19.2378 15.5308 19.4608 15.6847 19.6122C15.8355 19.7604 16.0745 19.8555 16.3985 19.8559C16.8938 19.857 17.106 19.7581 17.2556 19.7029C17.2556 19.7029 17.3127 19.6826 17.334 19.7389L17.4702 20.1187C17.4978 20.1825 17.4757 20.2048 17.4529 20.2177C17.3214 20.2893 17.0041 20.4231 16.4017 20.4246C16.1087 20.4258 15.854 20.3843 15.6445 20.3034C15.4451 20.2299 15.2653 20.1117 15.1193 19.958C14.9803 19.8069 14.8772 19.6269 14.8173 19.431C14.7523 19.2164 14.7203 18.9933 14.7224 18.7692C14.7224 18.5344 14.7531 18.3115 14.8138 18.1077C14.8705 17.911 14.9667 17.7278 15.0965 17.569C15.2274 17.4138 15.3915 17.2896 15.5768 17.2052C15.769 17.1156 16.006 17.0718 16.2658 17.0718C16.4712 17.0713 16.6745 17.1123 16.8635 17.1923C16.9942 17.2478 17.1257 17.3484 17.26 17.4923C17.345 17.5831 17.4746 17.7818 17.5265 17.9778ZM15.4512 18.4108H16.9403C16.9245 18.2207 16.8871 18.0502 16.8017 17.9219C16.6718 17.7278 16.4906 17.621 16.217 17.621C15.943 17.621 15.7481 17.7278 15.6201 17.9219C15.5351 18.0502 15.4815 18.2137 15.4512 18.4108ZM11.7715 18.3119C11.7715 18.3119 11.9361 18.3263 12.1156 18.3522V18.2645C12.1156 17.988 12.0577 17.8577 11.9439 17.7705C11.8274 17.6821 11.6534 17.6363 11.4282 17.6363C11.4282 17.6363 10.9203 17.63 10.5187 17.8467C10.5002 17.8577 10.4848 17.864 10.4848 17.864C10.4848 17.864 10.4344 17.8816 10.4163 17.8303L10.2687 17.436C10.2458 17.3793 10.2872 17.3535 10.2872 17.3535C10.475 17.2079 10.9301 17.1199 10.9301 17.1199C11.1149 17.0877 11.302 17.0705 11.4896 17.0687C11.9061 17.0687 12.2286 17.1649 12.4479 17.3554C12.6676 17.5467 12.7794 17.855 12.7794 18.2704L12.7806 20.1668C12.7806 20.1668 12.7849 20.2216 12.7326 20.2341C12.7326 20.2341 12.6558 20.2553 12.5869 20.2713C12.5172 20.2873 12.266 20.3382 12.0609 20.3726C11.8514 20.4075 11.6394 20.425 11.427 20.425C11.2242 20.425 11.0384 20.4063 10.8746 20.3691C10.722 20.3373 10.5774 20.275 10.4498 20.186C10.3334 20.1021 10.2401 19.9906 10.1781 19.8617C10.1139 19.7315 10.0816 19.5723 10.0816 19.3884C10.0816 19.2081 10.1198 19.0473 10.1935 18.9104C10.2675 18.7742 10.3691 18.6588 10.4966 18.5685C10.6284 18.4763 10.7758 18.4083 10.9317 18.3678C11.0943 18.3248 11.2671 18.3025 11.4459 18.3025C11.577 18.3025 11.6864 18.3052 11.7715 18.3119ZM10.9411 19.7686C10.94 19.7682 11.1281 19.9153 11.553 19.8895C11.8514 19.8715 12.116 19.8152 12.116 19.8152V18.8724C12.116 18.8724 11.8491 18.829 11.5494 18.8247C11.1246 18.8196 10.9435 18.9749 10.9447 18.9745C10.8195 19.0629 10.7584 19.194 10.7584 19.3755C10.7584 19.4917 10.7793 19.5824 10.8214 19.6458C10.8478 19.6877 10.8592 19.7033 10.9411 19.7686ZM28.6015 17.2435C28.5819 17.3003 28.4807 17.5843 28.444 17.6785C28.4307 17.7145 28.4086 17.7392 28.3681 17.7349C28.3681 17.7349 28.2484 17.7075 28.1389 17.7075C28.0637 17.7075 27.9562 17.7169 27.8594 17.7466C27.7622 17.7763 27.6738 17.829 27.6019 17.9003C27.5255 17.9735 27.4637 18.0764 27.4188 18.2055C27.3731 18.3353 27.3495 18.5419 27.3495 18.7492V20.2936C27.3496 20.3018 27.348 20.31 27.3448 20.3177C27.3417 20.3253 27.337 20.3322 27.3312 20.3381C27.3253 20.344 27.3184 20.3486 27.3107 20.3518C27.303 20.3549 27.2948 20.3566 27.2865 20.3566H26.7388C26.7305 20.3567 26.7221 20.3551 26.7144 20.352C26.7066 20.349 26.6995 20.3444 26.6935 20.3386C26.6875 20.3328 26.6827 20.3258 26.6794 20.3182C26.6761 20.3105 26.6744 20.3023 26.6743 20.294V17.2017C26.6743 17.1669 26.6999 17.1391 26.7349 17.1391H27.2692C27.3046 17.1391 27.3298 17.1669 27.3298 17.2017V17.4544C27.4097 17.348 27.5531 17.2541 27.6826 17.1962C27.8125 17.1375 27.9578 17.0945 28.2204 17.1102C28.357 17.1184 28.5346 17.1555 28.5704 17.1692C28.5774 17.172 28.5838 17.1762 28.5892 17.1814C28.5946 17.1867 28.5988 17.193 28.6017 17.1999C28.6046 17.2068 28.6061 17.2142 28.6061 17.2217C28.606 17.2292 28.6045 17.2366 28.6015 17.2435ZM23.4556 15.8106C23.4702 15.8165 23.5099 15.8357 23.4942 15.8826L23.3339 16.318C23.3205 16.3509 23.3119 16.3704 23.2438 16.3501C23.1537 16.3219 23.0598 16.3074 22.9654 16.3071C22.8827 16.3071 22.8079 16.3176 22.7418 16.3395C22.6756 16.3606 22.6156 16.3974 22.567 16.4467C22.5023 16.5088 22.4522 16.5845 22.4205 16.6681C22.3437 16.8872 22.3142 17.1207 22.3103 17.1356H22.9772C23.0335 17.1356 23.0512 17.1614 23.0457 17.2025L22.9678 17.6336C22.9552 17.6961 22.8981 17.6938 22.8981 17.6938H22.2106L21.7409 20.3366C21.7005 20.5736 21.6391 20.8067 21.5575 21.0329C21.4838 21.2242 21.4078 21.3639 21.2858 21.4973C21.1816 21.6166 21.0491 21.7083 20.9003 21.764C20.7558 21.8169 20.5802 21.8438 20.3885 21.8438C20.2971 21.8438 20.1987 21.8419 20.0826 21.8145C20.0179 21.7998 19.9541 21.7813 19.8916 21.759C19.866 21.75 19.8452 21.7175 19.8601 21.676C19.8743 21.635 19.9979 21.2989 20.0145 21.2547C20.0357 21.2015 20.0901 21.2219 20.0901 21.2219C20.1271 21.2375 20.153 21.2477 20.2023 21.2575C20.2523 21.2672 20.3192 21.2759 20.37 21.2759C20.4609 21.2759 20.5436 21.2649 20.6157 21.2406C20.7023 21.2129 20.7535 21.1624 20.8062 21.0951C20.8614 21.0243 20.9062 20.9285 20.9523 20.7998C20.9984 20.6695 21.0405 20.4974 21.0767 20.2889L21.5445 17.6942H21.0838C21.0287 17.6942 21.0098 17.6684 21.0161 17.6269L21.0933 17.1958C21.1055 17.1332 21.1641 17.1356 21.1641 17.1356H21.637L21.6626 16.9955C21.7334 16.5793 21.874 16.2629 22.0819 16.0551C22.291 15.8459 22.5882 15.7402 22.9654 15.7402C23.0733 15.7402 23.1686 15.7473 23.2493 15.7617C23.3284 15.7766 23.3887 15.7903 23.4556 15.8106ZM14.1338 20.2936C14.1338 20.3288 14.1094 20.3566 14.074 20.3566H13.5208C13.4854 20.3566 13.4613 20.3284 13.4613 20.294V15.8685C13.4613 15.8345 13.4858 15.8063 13.5204 15.8063H14.074C14.1094 15.8063 14.1338 15.8345 14.1338 15.8689V20.2936Z" fill="white"/>
</svg>
