<svg width="40" height="40" viewBox="0 0 40 40" fill="none" xmlns="http://www.w3.org/2000/svg">
    <circle cx="20" cy="20" r="20" fill="#3B5EC5"/>
    <path d="M28.106 31.9286H15.0373C13.7472 31.9286 12.6431 30.7632 12.6431 29.25V11.0357C12.6431 9.52252 13.7472 8.35715 15.0373 8.35715H25.3678L30.5002 13.8708V29.25C30.5002 30.7632 29.3961 31.9286 28.106 31.9286Z" fill="white" stroke="#B1C3E9" stroke-width="0.756164"/>
    <path d="M25.2661 8L30.8565 13.6518H27.6858C26.3494 13.6518 25.2661 12.5794 25.2661 11.2565V8Z" fill="#B1C3E9"/>
    <path d="M14.4286 24.3849H9.42857C8.63959 24.3849 8 25.0245 8 25.8135V27.9059C8 28.6949 8.63959 29.3345 9.42857 29.3345H14.4286C15.2176 29.3345 15.8571 28.6949 15.8571 27.9059V25.8135C15.8571 25.0245 15.2176 24.3849 14.4286 24.3849Z" fill="white" stroke="#97ACDA" stroke-width="0.756164" stroke-linecap="round" stroke-linejoin="round" stroke-dasharray="0.76 1.51"/>
    <path d="M12.2856 23.0161C12.6428 22.4269 13.7856 21.3191 15.4999 21.6019" stroke="#343C6A" stroke-width="0.756164" stroke-linecap="round"/>
    <path d="M23.7141 19.3133H17.2856C16.8911 19.3133 16.5713 19.6331 16.5713 20.0276V22.8415C16.5713 23.236 16.8911 23.5558 17.2856 23.5558H23.7141C24.1086 23.5558 24.4284 23.236 24.4284 22.8415V20.0276C24.4284 19.6331 24.1086 19.3133 23.7141 19.3133Z" fill="#0099FF"/>
    <path d="M23.0071 20.7274H17.9927C17.6022 20.7274 17.2856 21.044 17.2856 21.4345C17.2856 21.825 17.6022 22.1415 17.9927 22.1415H23.0071C23.3976 22.1415 23.7142 21.825 23.7142 21.4345C23.7142 21.044 23.3976 20.7274 23.0071 20.7274Z" fill="white"/>
    <path d="M16.5713 16.8988C16.5713 16.2798 17.0782 15.7779 17.7035 15.7779H26.0065C26.6318 15.7779 27.1387 16.2798 27.1387 16.8988C27.1387 17.5178 26.6318 18.0195 26.0065 18.0195H17.7035C17.0782 18.0195 16.5713 17.5178 16.5713 16.8988Z" fill="#FF6100"/>
    <path d="M26.0749 24.9699H17.6319C17.0461 24.9699 16.5713 25.4448 16.5713 26.0306C16.5713 26.6164 17.0461 27.0912 17.6319 27.0912H26.0749C26.6607 27.0912 27.1356 26.6164 27.1356 26.0306C27.1356 25.4448 26.6607 24.9699 26.0749 24.9699Z" fill="#FFB629"/>
</svg>