<svg width="40" height="40" viewBox="0 0 40 40" fill="none" xmlns="http://www.w3.org/2000/svg">
    <circle cx="20" cy="20" r="20" fill="#8D4ECC"/>
    <path d="M9 11.6786C9 10.1992 10.1992 9 11.6786 9H27.75C29.2293 9 30.4286 10.1992 30.4286 11.6786V27.75C30.4286 29.2293 29.2293 30.4286 27.75 30.4286H11.6786C10.1992 30.4286 9 29.2293 9 27.75V11.6786Z" fill="white"/>
    <path d="M24.1774 21.1693C23.9807 21.1693 23.8211 21.3289 23.8211 21.5256V23.6188H21.7279C21.5312 23.6188 21.3716 23.7784 21.3716 23.9751C21.3716 24.1718 21.5312 24.3314 21.7279 24.3314H23.8211V26.4246C23.8211 26.6213 23.9807 26.7809 24.1774 26.7809C24.3741 26.7809 24.5337 26.6213 24.5337 26.4246V24.3314H26.6269C26.8236 24.3314 26.9832 24.1718 26.9832 23.9751C26.9832 23.7784 26.8236 23.6188 26.6269 23.6188H24.5337V21.5256C24.5337 21.3289 24.3741 21.1693 24.1774 21.1693Z" fill="#97ACDA" stroke="#97ACDA" stroke-width="0.492791"/>
    <path d="M20.7026 12.2631C20.7026 11.9403 20.9643 11.6786 21.2872 11.6786H27.1326C27.4554 11.6786 27.7171 11.9403 27.7171 12.2631V18.1085C27.7171 18.4313 27.4554 18.6931 27.1326 18.6931H21.2872C20.9643 18.6931 20.7026 18.4313 20.7026 18.1085V12.2631Z" fill="#FF6100"/>
    <path d="M11.6792 12.2631C11.6792 11.9402 11.9409 11.6785 12.2637 11.6785H18.1092C18.432 11.6785 18.6937 11.9402 18.6937 12.2631V18.1085C18.6937 18.4313 18.432 18.693 18.1092 18.693H12.2637C11.9409 18.693 11.6792 18.4313 11.6792 18.1085V12.2631Z" fill="#0099FF"/>
    <path d="M11.6792 21.2865C11.6792 20.9637 11.9409 20.702 12.2637 20.702H18.1092C18.432 20.702 18.6937 20.9637 18.6937 21.2865V27.1319C18.6937 27.4547 18.432 27.7165 18.1092 27.7165H12.2637C11.9409 27.7165 11.6792 27.4547 11.6792 27.1319V21.2865Z" fill="#FFB629"/>
</svg>