<svg width="40" height="40" viewBox="0 0 40 40" fill="none" xmlns="http://www.w3.org/2000/svg">
    <circle cx="20" cy="20" r="20" fill="#E4E4FC"/>
    <path fill-rule="evenodd" clip-rule="evenodd" d="M20.5662 39.9921C31.3501 39.6924 40 30.8563 40 20C40 8.9543 31.0457 0 20 0C8.95438 0 0.000117501 8.95419 0 19.9998C4.6103e-06 19.9999 9.21933e-06 19.9999 1.38271e-05 20C0.500014 28 7.65241 27.9185 10.4309 26.8772L13.1415 29.558C13.1415 29.558 11.4922 32.4844 13 35.5C13.9674 37.4348 16.3386 39.8375 20.5662 39.9921Z" fill="url(#paint0_linear_236_4820)"/>
    <path fill-rule="evenodd" clip-rule="evenodd" d="M37.6758 29.3659C39.1594 26.5718 39.9999 23.384 39.9999 20C39.9999 8.9543 31.0456 0 19.9999 0C15.7616 0 11.8313 1.3183 8.59656 3.56722C1.6265 10.1164 2.68997 19.4233 10.9998 18.5C16.0677 17.9369 22.6081 16.1453 24.9998 15C24.8212 15.2977 24.6143 15.6166 24.3908 15.961C22.7372 18.5093 20.1784 22.4526 21.4998 29.5C22.473 34.6903 32.8907 35.9316 37.6758 29.3659Z" fill="url(#paint1_linear_236_4820)"/>
    <path fill-rule="evenodd" clip-rule="evenodd" d="M18.4287 21.5714L22.5401 17.46L22.6294 17.6261C23.2027 18.7197 26.2362 24.9468 22.869 28.3141L19.7934 31.3896C19.4119 31.7712 18.762 31.4697 18.8067 30.9321L19.4977 22.6404L18.4287 21.5714Z" fill="#3E437A"/>
    <path fill-rule="evenodd" clip-rule="evenodd" d="M19.4972 22.6404L19.1147 27.2311L19.2536 27.183C19.8578 26.9688 20.7757 26.581 21.7996 25.9295C22.8036 25.2906 23.7563 24.2468 24.406 23.4441C24.2174 20.8787 23.0411 18.4227 22.6592 17.6843L22.5396 17.46L18.4282 21.5714L19.4972 22.6404Z" fill="black" fill-opacity="0.1" style="mix-blend-mode:overlay"/>
    <path fill-rule="evenodd" clip-rule="evenodd" d="M18.4284 21.5714L22.5398 17.46L22.4079 17.3887C21.4173 16.8648 15.09 13.7269 11.6857 17.1311L8.61018 20.2067C8.22865 20.5882 8.53018 21.2382 9.06778 21.1935L17.3594 20.5024L18.4284 21.5714Z" fill="#3E437A"/>
    <path fill-rule="evenodd" clip-rule="evenodd" d="M18.4283 21.5714L22.5397 17.46L22.4142 17.3921C21.8254 17.0802 19.2507 15.7917 16.5556 15.5936C15.7528 16.2433 14.7091 17.1961 14.0702 18.2001C13.3666 19.3058 12.9705 20.288 12.7686 20.885L17.3593 20.5025L18.4283 21.5714Z" fill="black" fill-opacity="0.1" style="mix-blend-mode:overlay"/>
    <path fill-rule="evenodd" clip-rule="evenodd" d="M31.5519 9.0896C31.6194 8.71044 31.2894 8.38046 30.9102 8.44797C28.8254 8.81972 22.8393 10.2535 18.0996 14.9932C14.4123 18.6805 12.9882 21.023 12.4394 22.2485C12.1797 22.8285 12.3071 23.5083 12.7565 23.9577L16.0422 27.2434C16.4916 27.6928 17.1713 27.8201 17.7514 27.5605C18.9769 27.0117 21.3194 25.5877 25.0067 21.9003C29.7464 17.1606 31.1801 11.1745 31.5519 9.0896Z" fill="#6B72D0"/>
    <path fill-rule="evenodd" clip-rule="evenodd" d="M14.3171 27.6562L14.5918 27.9309C14.7175 28.0566 14.9162 28.0717 15.0595 27.9663L16.054 27.2348L12.7649 23.9457L12.0335 24.9403C11.9281 25.0835 11.9431 25.2823 12.0689 25.408L12.3436 25.6827L10.4943 26.4361C10.3182 26.508 10.2721 26.7359 10.4066 26.8703L13.1294 29.5932C13.2638 29.7276 13.4919 29.6817 13.5637 29.5055L14.3171 27.6562Z" fill="#31356A"/>
    <path fill-rule="evenodd" clip-rule="evenodd" d="M31.5521 9.0896C31.6196 8.71044 31.2896 8.38046 30.9105 8.44797C29.6774 8.66785 27.0792 9.25972 24.1816 10.687C24.6157 10.9437 25.1188 11.1106 25.6755 11.1525C27.3715 11.2805 28.7196 12.6286 28.8476 14.3247C28.8895 14.8813 29.0565 15.3844 29.3131 15.8185C30.7404 12.9209 31.3322 10.3227 31.5521 9.0896Z" fill="#3E437A"/>
    <path fill-rule="evenodd" clip-rule="evenodd" d="M13.5637 29.5055L14.3171 27.6562L14.5918 27.9309C14.7175 28.0567 14.9163 28.0717 15.0595 27.9663L16.054 27.2349L15.129 26.3098L14.183 27.0331C14.0245 27.1545 13.8005 27.1397 13.6593 26.9984L12.6177 29.0815L13.1295 29.5932C13.2638 29.7276 13.4919 29.6817 13.5637 29.5055Z" fill="#252855"/>
    <path fill-rule="evenodd" clip-rule="evenodd" d="M10.4943 26.4361L12.3436 25.6827L12.0689 25.408C11.9431 25.2822 11.9281 25.0835 12.0335 24.9403L12.7649 23.9457L13.69 24.8708L12.9667 25.8167C12.8454 25.9754 12.8602 26.1994 13.0014 26.3405L10.9183 27.3821L10.4066 26.8703C10.2721 26.7359 10.3182 26.508 10.4943 26.4361Z" fill="#3E437A"/>
    <path fill-rule="evenodd" clip-rule="evenodd" d="M18.0996 14.9932C14.4123 18.6805 12.9882 21.023 12.4395 22.2485C12.1796 22.8286 12.3072 23.5083 12.7565 23.9577L13.5892 24.7903C13.4055 24.4983 13.2841 23.0978 19.2508 17.1311C23.5434 12.8385 27.6235 10.0914 30.1678 8.59503C27.6341 9.14168 22.3633 10.7294 18.0996 14.9932Z" fill="white" fill-opacity="0.25" style="mix-blend-mode:overlay"/>
    <path fill-rule="evenodd" clip-rule="evenodd" d="M25.0066 21.9002C21.3193 25.5876 18.9768 27.0116 17.7514 27.5605C17.1713 27.8202 16.4915 27.6927 16.0421 27.2433L15.2095 26.4107C15.5015 26.5943 16.902 26.7157 22.8687 20.7491C27.1613 16.4565 29.9084 12.3763 31.4048 9.83203C30.8581 12.3658 29.2704 17.6365 25.0066 21.9002Z" fill="black" fill-opacity="0.25" style="mix-blend-mode:overlay"/>
    <path fill-rule="evenodd" clip-rule="evenodd" d="M26.9802 16.9666C25.8903 18.0565 24.1232 18.0565 23.0333 16.9666C21.9433 15.8767 21.9433 14.1096 23.0333 13.0197C24.1232 11.9297 25.8903 11.9297 26.9802 13.0197C28.0701 14.1096 28.0701 15.8767 26.9802 16.9666Z" fill="#3E437A"/>
    <path fill-rule="evenodd" clip-rule="evenodd" d="M26.3222 16.3088C25.5956 17.0353 24.4176 17.0354 23.6909 16.3088C22.9644 15.5822 22.9644 14.4041 23.6909 13.6775C24.4175 12.9509 25.5956 12.9509 26.3222 13.6775C27.0488 14.4041 27.0488 15.5822 26.3222 16.3088Z" fill="white"/>
    <defs>
    <linearGradient id="paint0_linear_236_4820" x1="1.66628e-06" y1="33.7261" x2="8.99679" y2="19.0283" gradientUnits="userSpaceOnUse">
    <stop stop-color="#DADAFF"/>
    <stop offset="1" stop-color="#C7C7FF"/>
    </linearGradient>
    <linearGradient id="paint1_linear_236_4820" x1="9.93633" y1="29.4308" x2="35.7551" y2="4.79025" gradientUnits="userSpaceOnUse">
    <stop stop-color="#CECEFF"/>
    <stop offset="1" stop-color="#E4E4FC" stop-opacity="0"/>
    </linearGradient>
    </defs>
</svg>