<svg width="200" height="200" viewBox="0 0 200 200" fill="none" xmlns="http://www.w3.org/2000/svg">
<path d="M35.0308 150.987L41.9411 162.923C43.377 165.436 45.4411 167.41 47.8642 168.846L72.5437 126.128H23.1847C23.1847 128.91 23.9026 131.692 25.3385 134.205L35.0308 150.987Z" fill="#0066DA"/>
<path d="M101.531 75.8715L76.8514 33.1536C74.4283 34.5895 72.3642 36.5638 70.9283 39.0766L25.3385 118.051C23.929 120.51 23.1866 123.294 23.1847 126.128H72.5437L101.531 75.8715Z" fill="#00AC47"/>
<path d="M155.197 168.846C157.62 167.41 159.684 165.436 161.12 162.923L163.992 157.987L177.723 134.205C179.159 131.692 179.877 128.91 179.877 126.128H130.514L141.018 146.769L155.197 168.846Z" fill="#EA4335"/>
<path d="M101.531 75.8718L126.21 33.1538C123.787 31.7179 121.005 31 118.133 31H84.9281C82.0563 31 79.2743 31.8077 76.8512 33.1538L101.531 75.8718Z" fill="#00832D"/>
<path d="M130.518 126.128H72.5436L47.8641 168.846C50.2872 170.282 53.0693 171 55.9411 171H147.121C149.992 171 152.774 170.192 155.197 168.846L130.518 126.128Z" fill="#2684FC"/>
<path d="M154.928 78.5638L132.133 39.0766C130.697 36.5638 128.633 34.5895 126.21 33.1536L101.531 75.8715L130.518 126.128H179.787C179.787 123.346 179.069 120.564 177.633 118.051L154.928 78.5638Z" fill="#FFBA00"/>
</svg>
