<svg width="200" height="200" viewBox="0 0 200 200" fill="none" xmlns="http://www.w3.org/2000/svg">
<path d="M129.769 77.6725C129.6 79.3907 129.263 81.0752 128.758 82.726C128.286 84.0399 127.478 85.2191 126.4 86.095C125.355 87.072 124.075 87.7795 122.694 88.1164C120.672 88.4533 118.651 88.7902 116.966 89.1271H111.576C110.329 89.026 109.15 88.5544 108.207 87.7795C107.365 87.0047 106.859 85.8929 106.859 84.7474V79.6939C106.994 78.0768 107.331 76.4933 107.87 74.9773C108.443 73.7308 109.251 72.5853 110.228 71.6083C111.273 70.6313 112.553 69.9238 113.934 69.5869C115.753 68.9131 117.707 68.5762 119.661 68.5762H125.389C126.703 68.6436 127.916 69.25 128.758 70.2607C129.6 71.0355 130.105 72.1473 130.105 73.2928C130.105 74.6404 129.769 76.3249 129.769 77.6725ZM114.945 167.288C114.945 167.827 114.675 168.299 114.271 168.636C113.833 169.175 113.26 169.512 112.587 169.646C111.509 170.017 110.363 170.253 109.218 170.32C107.87 170.657 106.185 170.657 104.164 170.994H99.1106C98.0999 171.028 97.0555 170.927 96.0785 170.657C95.4046 170.657 95.0678 170.32 94.7309 169.646C94.4613 169.242 94.3603 168.77 94.3939 168.299L103.827 97.5496C103.827 97.0106 104.097 96.5389 104.501 96.202C104.939 95.6967 105.512 95.3261 106.185 95.1913C107.196 94.8544 108.207 94.5175 109.554 94.1806C111.239 93.8437 112.923 93.8437 114.608 93.5068H119.661C120.672 93.4394 121.717 93.5742 122.694 93.8437C123.367 93.8437 123.704 94.1806 124.378 94.8544C124.648 95.2587 124.749 95.7304 124.715 96.202L114.945 167.288Z" fill="#135A9D"/>
<path d="M101.469 48.3621C100.795 48.2948 100.087 48.4295 99.4474 48.699C91.1259 53.382 84.9606 61.097 82.2654 70.2607C79.9071 79.0538 81.2547 88.4196 85.9713 96.2021C86.7125 97.3475 87.9591 98.1224 89.3403 98.2234C90.0815 98.3245 90.8227 98.055 91.3618 97.5496C93.2147 96.5052 93.8548 94.1806 92.8104 92.3277C92.7768 92.2603 92.743 92.1929 92.7093 92.1592C89.0034 86.2298 88.0264 78.9864 90.0142 72.2821C91.9682 65.2072 96.7185 59.2777 103.153 55.774C105.107 54.797 105.882 52.4386 104.905 50.5183L104.838 50.3835C104.198 49.137 102.884 48.3621 101.469 48.3621Z" fill="#135A9D"/>
<path d="M75.8635 97.5499C70.5404 88.7568 69.0918 78.1445 71.8207 68.2396C75.2907 56.0775 83.5448 45.8357 94.7299 39.9399C97.5599 38.4913 98.739 35.0886 97.4251 32.1912C96.0775 29.4286 92.8096 28.2495 90.0133 29.496C89.6764 29.496 89.6764 29.8329 89.3395 29.8329C75.4592 37.4806 65.15 50.3165 60.7029 65.5444C57.1992 78.3129 59.1532 91.9911 66.0934 103.277C67.7442 105.871 71.1132 106.747 73.8421 105.299C76.5036 103.816 77.4806 100.447 75.9982 97.7858C75.9645 97.7184 75.8971 97.651 75.8635 97.5499Z" fill="#135A9D"/>
</svg>
