<svg width="140" height="55" viewBox="0 0 140 55" fill="none" xmlns="http://www.w3.org/2000/svg">
  <path fill-rule="evenodd" clip-rule="evenodd" d="M97.2489 34.1682C96.8248 34.1734 96.4039 34.0945 96.0106 33.9358C95.6173 33.7772 95.2594 33.5421 94.9576 33.2441C94.3516 32.6381 93.9426 31.7178 93.9426 30.4756C93.9426 29.2182 94.3516 28.3017 94.9576 27.6958C95.2607 27.4007 95.6192 27.1684 96.0125 27.0124C96.4057 26.8564 96.8259 26.7798 97.2489 26.7868C98.1124 26.7868 98.9342 27.0898 99.5402 27.6958C100.146 28.3017 100.551 29.2182 100.551 30.4756C100.551 31.733 100.146 32.6495 99.5402 33.2554C99.237 33.5505 98.8786 33.7828 98.4853 33.9388C98.0921 34.0948 97.6719 34.1714 97.2489 34.1644V34.1682ZM97.2489 22.7686C92.8633 22.7686 89.5418 25.9953 89.5418 30.4756C89.5418 34.9256 92.8633 38.1826 97.2489 38.1826C101.635 38.1826 104.956 34.9256 104.956 30.4756C104.956 25.9953 101.635 22.7686 97.2489 22.7686ZM60.7853 34.2742C60.3612 34.2795 59.9403 34.2005 59.547 34.0419C59.1537 33.8833 58.7958 33.6481 58.494 33.3501C57.888 32.7442 57.4828 31.8276 57.4828 30.5854C57.4828 29.3281 57.8918 28.4078 58.494 27.8056C58.7973 27.5093 59.1562 27.2761 59.5502 27.1195C59.9441 26.9628 60.3652 26.8858 60.7891 26.8929C61.6526 26.8929 62.4744 27.1996 63.0804 27.8018C63.6863 28.4078 64.0916 29.3281 64.0916 30.5816C64.0916 31.839 63.6825 32.7593 63.0804 33.3615C62.7771 33.6577 62.4181 33.8909 62.0242 34.0476C61.6303 34.2043 61.2092 34.2813 60.7853 34.2742ZM60.7853 22.8746C56.4034 22.8746 53.082 26.1051 53.082 30.5816C53.082 35.0354 56.4034 38.2887 60.7853 38.2887C65.1709 38.2887 68.4923 35.0317 68.4923 30.5816C68.4923 26.1051 65.1709 22.8784 60.7891 22.8784L60.7853 22.8746ZM116.939 38.1334H121.313V29.4455C121.313 28.7259 121.54 28.101 121.934 27.6617C122.153 27.424 122.421 27.2367 122.719 27.1124C123.017 26.9882 123.338 26.9301 123.661 26.9421C124.449 26.9421 124.987 27.2072 125.331 27.6087C125.684 28.0177 125.862 28.6123 125.862 29.3319V38.1334H130.209V29.4455C130.209 28.7448 130.437 28.1199 130.83 27.6692C131.043 27.4318 131.305 27.2437 131.598 27.1181C131.891 26.9925 132.208 26.9324 132.527 26.9421C133.334 26.9421 133.868 27.2072 134.209 27.6087C134.557 28.0177 134.731 28.6123 134.731 29.3319V38.1334H138.992V28.5517C138.992 26.5937 138.348 25.1659 137.329 24.2342C136.318 23.3063 134.97 22.8935 133.618 22.8935C132.652 22.8935 131.77 23.0602 130.978 23.4578C130.3 23.7987 129.706 24.2986 129.183 24.9955C128.338 23.6207 126.797 22.8935 124.979 22.8935C123.646 22.8935 122.112 23.4237 121.143 24.4463V23.2495H116.939V38.1334ZM115.291 23.2609V27.7185L114.95 27.6503C114.545 27.5708 114.193 27.5405 113.867 27.5405C112.939 27.5405 112.114 27.7677 111.523 28.3207C110.936 28.8698 110.531 29.7825 110.531 31.252V38.1334H106.168V23.2495H110.417V24.6887C111.466 23.4237 113.099 23.1738 114.125 23.1738C114.451 23.1738 114.75 23.2079 115.034 23.2344L115.291 23.2609ZM36.6302 30.9604H40.8947L40.9439 31.0096C40.9742 31.0399 40.9969 31.0853 41.0007 31.1346C41.0192 31.5349 41.1171 31.9276 41.2887 32.2898C41.4604 32.6519 41.7024 32.9763 42.0006 33.2441C42.5617 33.7021 43.2685 33.944 43.9926 33.9258C44.3936 33.9392 44.7927 33.8652 45.1622 33.7089C45.5317 33.5526 45.8628 33.3177 46.1324 33.0206C46.6566 32.3849 46.9301 31.5793 46.9012 30.7559V18.2882H51.5141V30.8846C51.5141 34.918 48.4275 38.2887 44.0229 38.2887C41.8263 38.2887 39.9782 37.5577 38.6829 36.289C37.418 35.0506 36.6643 33.2819 36.6302 31.1308V30.9604ZM88.9245 20.3068L89.1669 20.3788V17.0006L89.0533 16.9513C88.8086 16.854 88.553 16.7866 88.2921 16.7506C87.9701 16.6976 87.5914 16.6635 87.2051 16.6635C85.7016 16.6635 84.0125 17.1634 83.1376 18.061C82.2628 18.9548 81.778 20.2311 81.778 21.7611V22.4731H79.5814V26.3513H81.778V38.1334H86.1901V26.3513H89.1669V22.4731H86.1901V21.8142C86.1901 21.1287 86.4287 20.731 86.7355 20.5038C87.063 20.2808 87.453 20.1681 87.8489 20.1819C88.417 20.1819 88.7503 20.2576 88.9245 20.3068ZM78.0021 34.6529L78.2293 34.581V37.9706L78.1233 38.0236C77.9642 38.0993 77.7067 38.1713 77.4075 38.2243C77.1045 38.2735 76.7523 38.3076 76.385 38.3076C74.9761 38.3076 73.393 37.8077 72.5712 36.9063C71.7494 36.0088 71.2949 34.7287 71.2949 33.1948V26.3513H69.2308V22.4921H71.2949V18.311H75.4344V22.4959H78.2293V26.3589H75.4344V33.1418C75.4344 33.8311 75.6616 34.2288 75.9494 34.4598C76.2448 34.6984 76.6349 34.7817 76.9947 34.7817C77.5287 34.7817 77.8393 34.706 78.0021 34.6567V34.6529Z" fill="#0A1551"/>
  <path d="M6.22281 38.7355C6.69245 39.19 6.35915 39.974 5.69256 39.974H1.49605C1.10493 39.9791 0.727776 39.8288 0.447314 39.5561C0.166852 39.2835 0.00598495 38.9107 0 38.5196V34.4595C0 33.808 0.80673 33.4861 1.28016 33.9444L6.22281 38.7355Z" fill="#0A1551"/>
  <path d="M12.7713 39.0499C12.477 38.7577 12.2435 38.4101 12.0841 38.0273C11.9247 37.6444 11.8426 37.2338 11.8426 36.8191C11.8426 36.4043 11.9247 35.9937 12.0841 35.6108C12.2435 35.228 12.477 34.8804 12.7713 34.5882L17.2481 30.1418C17.8454 29.5492 18.6527 29.2167 19.4941 29.2167C20.3355 29.2167 21.1427 29.5492 21.7401 30.1418C22.0344 30.434 22.2679 30.7815 22.4273 31.1644C22.5867 31.5472 22.6688 31.9579 22.6688 32.3726C22.6688 32.7873 22.5867 33.1979 22.4273 33.5808C22.2679 33.9637 22.0344 34.3112 21.7401 34.6034L17.2633 39.0499C16.666 39.6424 15.8587 39.9749 15.0173 39.9749C14.1759 39.9749 13.3687 39.6424 12.7713 39.0499Z" fill="#FFB629"/>
  <path d="M0.946868 27.8745C0.652567 27.5823 0.418991 27.2348 0.259597 26.8519C0.100203 26.469 0.0181427 26.0584 0.0181427 25.6437C0.0181427 25.229 0.100203 24.8184 0.259597 24.4355C0.418991 24.0526 0.652567 23.7051 0.946868 23.4129L8.48014 15.9251C9.07745 15.3325 9.88473 15 10.7261 15C11.5675 15 12.3748 15.3325 12.9721 15.9251C13.2664 16.2173 13.5 16.5648 13.6593 16.9477C13.8187 17.3305 13.9008 17.7412 13.9008 18.1559C13.9008 18.5706 13.8187 18.9812 13.6593 19.3641C13.5 19.747 13.2664 20.0945 12.9721 20.3867L5.43502 27.8745C4.83786 28.4659 4.03139 28.7977 3.19094 28.7977C2.35049 28.7977 1.54402 28.4659 0.946868 27.8745Z" fill="#0099FF"/>
  <path d="M7.10492 33.2147C6.81061 32.9225 6.57704 32.5749 6.41765 32.1921C6.25825 31.8092 6.17619 31.3986 6.17619 30.9839C6.17619 30.5691 6.25825 30.1585 6.41765 29.7757C6.57704 29.3928 6.81061 29.0452 7.10492 28.753L17.2818 18.6405C17.8792 18.048 18.6864 17.7155 19.5278 17.7155C20.3692 17.7155 21.1765 18.048 21.7738 18.6405C22.0681 18.9327 22.3017 19.2803 22.4611 19.6631C22.6204 20.046 22.7025 20.4566 22.7025 20.8713C22.7025 21.2861 22.6204 21.6967 22.4611 22.0795C22.3017 22.4624 22.0681 22.81 21.7738 23.1021L11.5969 33.2147C10.9995 33.8072 10.1923 34.1397 9.35088 34.1397C8.50951 34.1397 7.70223 33.8072 7.10492 33.2147Z" fill="#FF6100"/>
</svg>
