<svg width="200" height="200" viewBox="0 0 200 200" fill="none" xmlns="http://www.w3.org/2000/svg">
<path d="M83.5442 79.9804L83.5455 79.9756L113.022 97.6319L130.587 90.2403L130.588 90.2432C134.157 88.7002 138.005 87.906 141.894 87.9098C142.541 87.9098 143.182 87.9392 143.819 87.9817C141.707 79.7473 137.249 72.3035 130.987 66.555C124.724 60.8064 116.927 57.0005 108.542 55.5998C100.157 54.1991 91.5463 55.2639 83.7554 58.6648C75.9644 62.0657 69.329 67.6563 64.6554 74.7572C64.8056 74.7553 64.9534 74.7459 65.1039 74.7459C71.6185 74.7371 78.0058 76.5502 83.5442 79.9804V79.9804Z" fill="#0364B8"/>
<path d="M83.5453 79.9758L83.5439 79.9806C78.0055 76.5504 71.6183 74.7373 65.1037 74.7461C64.9532 74.7461 64.8051 74.7556 64.6551 74.7574C58.2789 74.8364 52.0448 76.6513 46.6227 80.0072C41.2005 83.3631 36.7953 88.133 33.8805 93.8045C30.9656 99.4759 29.6513 105.834 30.0788 112.197C30.5063 118.559 32.6594 124.685 36.3068 129.915L62.3012 118.976L73.8565 114.114L99.5856 103.286L113.022 97.6321L83.5453 79.9758Z" fill="#0078D4"/>
<path d="M143.819 87.9818C143.181 87.9393 142.541 87.9099 141.893 87.9099C138.005 87.9061 134.157 88.7003 130.588 90.2434L130.587 90.2404L113.022 97.632L118.116 100.683L134.811 110.684L142.096 115.047L167.003 129.966C169.267 125.765 170.44 121.063 170.415 116.291C170.39 111.518 169.168 106.829 166.861 102.651C164.554 98.4736 161.236 94.9416 157.21 92.3788C153.184 89.816 148.58 88.3042 143.819 87.9819V87.9818Z" fill="#1490DF"/>
<path d="M142.096 115.046L134.812 110.683L118.116 100.682L113.022 97.6313L99.5858 103.286L73.8568 114.113L62.3014 118.975L36.307 129.914C39.5373 134.559 43.8436 138.352 48.8582 140.971C53.8727 143.59 59.4466 144.956 65.1038 144.953H141.893C147.042 144.954 152.095 143.562 156.516 140.923C160.937 138.284 164.561 134.498 167.004 129.966L142.096 115.046Z" fill="#28A8EA"/>
</svg>
