<svg width="40" height="40" viewBox="0 0 40 40" fill="none" xmlns="http://www.w3.org/2000/svg">
    <circle cx="20" cy="20" r="20" fill="#0D953B"/>
    <path fill-rule="evenodd" clip-rule="evenodd" d="M9.00113 28.8887C9.00126 30.1026 9.33108 30.4282 10.5397 30.4282C14.1057 30.4286 14.5865 30.4286 16.0374 30.4285C16.7942 30.4285 17.8148 30.4285 19.6748 30.4285C21.5395 30.4285 22.5673 30.4285 23.3311 30.4285C24.7986 30.4286 25.2918 30.4286 28.8745 30.4282C30.0868 30.4281 30.427 30.098 30.4273 28.8976C30.4281 23.4544 30.4286 21.5826 30.4286 19.7108C30.4285 17.839 30.4281 15.9672 30.427 10.524C30.4268 9.3703 30.0636 9.0024 28.9145 9.00214C23.4669 9.00071 21.5908 9 19.7147 9C17.8385 9 15.9624 9.00071 10.5148 9.00214C9.34939 9.0024 9.00114 9.35641 9.00101 10.515C9.00036 15.9582 9 17.8301 9 19.7019C9 21.5737 9.00035 23.4455 9.00113 28.8887Z" fill="white"/>
    <path d="M23.8809 12.7323C23.8809 12.3147 24.2194 11.9761 24.637 11.9761H28.1293C28.5469 11.9761 28.8855 12.3147 28.8855 12.7323V14.7914C28.8855 15.209 28.5469 15.5476 28.1293 15.5476H24.637C24.2194 15.5476 23.8809 15.209 23.8809 14.7914V12.7323Z" fill="#FFB629"/>
    <path d="M23.8809 18.0894C23.8809 17.6718 24.2194 17.3333 24.637 17.3333H27.8866C28.3042 17.3333 28.6428 17.6718 28.6428 18.0894V21.339C28.6428 21.7566 28.3042 22.0952 27.8866 22.0952H24.637C24.2194 22.0952 23.8809 21.7566 23.8809 21.339V18.0894Z" fill="#FFB629"/>
    <path d="M23.8809 24.6371C23.8809 24.2195 24.2194 23.8809 24.637 23.8809H27.8866C28.3042 23.8809 28.6428 24.2195 28.6428 24.6371V27.8867C28.6428 28.3043 28.3042 28.6428 27.8866 28.6428H24.637C24.2194 28.6428 23.8809 28.3043 23.8809 27.8867V24.6371Z" fill="#FFB629"/>
    <path d="M17.2397 12.7323C17.2397 12.3147 17.5783 11.9761 17.9959 11.9761H21.5817C21.9993 11.9761 22.3378 12.3147 22.3378 12.7323V14.7914C22.3378 15.209 21.9993 15.5476 21.5817 15.5476H17.9959C17.5783 15.5476 17.2397 15.209 17.2397 14.7914V12.7323Z" fill="#FF6100"/>
    <path d="M17.333 18.0894C17.333 17.6718 17.6715 17.3333 18.0892 17.3333H21.3387C21.7564 17.3333 22.0949 17.6718 22.0949 18.0894V21.339C22.0949 21.7566 21.7564 22.0952 21.3387 22.0952H18.0892C17.6715 22.0952 17.333 21.7566 17.333 21.339V18.0894Z" fill="#FF6100"/>
    <path d="M17.333 24.6371C17.333 24.2195 17.6715 23.8809 18.0892 23.8809H21.3387C21.7564 23.8809 22.0949 24.2195 22.0949 24.6371V27.8867C22.0949 28.3043 21.7564 28.6428 21.3387 28.6428H18.0892C17.6715 28.6428 17.333 28.3043 17.333 27.8867V24.6371Z" fill="#FF6100"/>
    <path d="M10.4883 12.7323C10.4883 12.3147 10.8268 11.9761 11.2444 11.9761H14.7916C15.2093 11.9761 15.5478 12.3147 15.5478 12.7323V14.7914C15.5478 15.209 15.2093 15.5476 14.7916 15.5476H11.2444C10.8268 15.5476 10.4883 15.209 10.4883 14.7914V12.7323Z" fill="#0099FF"/>
    <path d="M10.4883 18.0894C10.4883 17.6718 10.8268 17.3333 11.2444 17.3333H14.7916C15.2093 17.3333 15.5478 17.6718 15.5478 18.0894V21.339C15.5478 21.7566 15.2093 22.0952 14.7916 22.0952H11.2444C10.8268 22.0952 10.4883 21.7566 10.4883 21.339V19.7142V18.0894Z" fill="#0099FF"/>
    <path d="M10.4883 24.6371C10.4883 24.2195 10.8268 23.8809 11.2444 23.8809H14.7916C15.2093 23.8809 15.5478 24.2195 15.5478 24.6371V27.8867C15.5478 28.3043 15.2093 28.6428 14.7916 28.6428H11.2444C10.8268 28.6428 10.4883 28.3043 10.4883 27.8867V26.2619V24.6371Z" fill="#0099FF"/>
</svg>