<svg width="200" height="200" viewBox="0 0 200 200" fill="none" xmlns="http://www.w3.org/2000/svg">
<path d="M143.536 30.0002L157.438 123.09L151.103 155.821L150.223 154.677L136.673 64.7548V62.9951L142.656 31.584L143.536 30.0002Z" fill="#760D16"/>
<path d="M42 78.1285L48.599 45.2216L143.536 30L137.113 63.5227V65.7224L43.1438 79.0083L42 78.1285Z" fill="#EF463E"/>
<path d="M137.113 63.5232L151.103 155.821L57.1336 170.514L42 78.1289L137.113 63.5232Z" fill="url(#paint0_linear_17_7)"/>
<path d="M126.995 141.127C126.291 140.247 125.235 139.631 124.003 139.191C122.771 138.751 121.276 138.575 119.428 138.575C117.756 138.575 115.82 138.751 113.709 139.103L88.8967 143.327C89.1607 141.391 90.1285 138.927 91.8002 135.848C93.648 132.416 96.4635 128.281 100.071 123.53C101.303 121.858 102.271 120.626 102.974 119.746C103.414 119.131 104.118 118.339 104.998 117.195C110.717 109.716 114.149 103.645 115.557 98.8937C116.348 96.1661 116.788 93.4385 116.964 90.711C117.052 89.9191 117.052 89.2152 117.052 88.5113C117.052 86.5756 116.876 84.6399 116.524 82.7042C116.26 80.9445 115.82 79.5367 115.205 78.3929C114.589 77.2491 113.885 76.3692 113.005 75.8413C112.037 75.2254 110.541 74.9614 108.694 74.9614C107.198 74.9614 105.35 75.1374 103.15 75.4893L74.467 80.4166C71.0355 81.0325 68.3959 82.0003 66.8122 83.5841C65.4924 84.8159 64.8765 86.3996 64.8765 88.1594C64.8765 88.5993 64.8765 89.1272 64.9645 89.6551C65.4044 92.1187 66.6362 93.8785 68.6599 94.7583C69.8917 95.2862 71.2995 95.5502 73.0592 95.5502C74.203 95.5502 75.5228 95.4622 76.9306 95.1983L100.863 90.9749C100.863 91.4148 100.951 91.8548 100.951 92.2067C100.951 93.7025 100.687 95.1983 100.159 96.606C99.455 98.6297 97.6953 101.445 94.7918 105.053C93.9999 106.021 92.7681 107.604 91.0964 109.628C84.5854 117.459 80.0101 124.146 77.1945 129.689C75.1709 133.56 73.8511 137.256 73.0592 141.039C72.6193 143.239 72.3553 145.262 72.3553 147.286C72.3553 148.694 72.4433 150.102 72.7072 151.421C73.0592 153.357 73.4991 154.941 74.115 156.173C74.7309 157.405 75.6108 158.372 76.5786 158.9C77.5465 159.428 78.8663 159.604 80.802 159.604C83.1776 159.604 86.4331 159.252 90.5684 158.548L116.612 154.061C121.188 153.269 124.443 152.125 126.291 150.63C127.787 149.398 128.578 147.726 128.578 145.79C128.578 145.262 128.49 144.734 128.403 144.207C128.227 143.063 127.787 142.007 126.995 141.127Z" fill="white"/>
<defs>
<linearGradient id="paint0_linear_17_7" x1="89.7149" y1="72.3048" x2="104.219" y2="163.326" gradientUnits="userSpaceOnUse">
<stop stop-color="#D92231"/>
<stop offset="1" stop-color="#BA2234"/>
</linearGradient>
</defs>
</svg>
