<svg width="200" height="200" viewBox="0 0 200 200" fill="none" xmlns="http://www.w3.org/2000/svg">
<path d="M54.4623 28.9998L55.5701 29.7779C59.0169 32.1765 139.919 88.5661 142.175 90.2552C145.37 92.4981 147 95.272 147 98.49V100.088C146.963 102.573 146.071 106.07 142.175 108.995L142.162 109.004C140.285 110.346 121.183 123.579 100.96 137.595C99.1795 138.829 97.3786 140.077 95.5736 141.328L94.3697 142.162C76.5088 154.54 58.5845 166.965 56.1606 168.681V170.91L54.8377 168.685C54.7736 168.571 54.7141 168.475 54.7827 168.319H54.7415V156.683C54.7415 152.714 55.181 150.806 59.5982 147.862C61.4798 146.653 77.5914 135.527 93.957 124.203L95.8827 122.87C110.963 112.433 125.794 102.151 129.436 99.6298C121.746 94.2879 64.0978 54.2673 60.1475 51.3743L59.6806 51.0356C56.7602 48.9208 54.4623 47.2546 54.4623 42.8511V28.9998ZM61.9419 69.4552C65.8419 71.9637 103.56 98.1375 103.94 98.4076L104.796 98.9981L103.926 99.5794C103.926 99.5794 101.377 101.278 98.5477 103.255C96.1262 105.031 93.8604 105.919 91.6083 105.919C89.608 105.919 87.6259 105.223 85.5386 103.836C83.3151 102.352 77.0514 98.031 70.7111 93.6413L69.8464 93.0425C62.0667 87.6545 54.443 82.3527 54.3021 82.2538L54 82.0432V73.1538C54 71.1123 54.8789 69.4964 56.4215 68.7137C58.0739 67.8714 60.1384 68.1461 61.9419 69.4552Z" fill="#004CFF"/>
</svg>
