<svg viewBox="0 0 40 40" width="40" height="40" fill="none" xmlns="http://www.w3.org/2000/svg"><circle cx="20" cy="20" r="20" fill="#8D4ECC"></circle><path d="M9 11.679C9 10.199 10.2 9 11.679 9H27.75c1.48 0 2.679 1.2 2.679 2.679V27.75c0 1.48-1.2 2.679-2.679 2.679H11.679c-1.48 0-2.679-1.2-2.679-2.679V11.679z" fill="#fff"></path><path d="M24.177 21.17a.356.356 0 00-.356.356v2.093h-2.093a.356.356 0 000 .712h2.093v2.094a.356.356 0 00.713 0V24.33h2.093a.356.356 0 000-.712h-2.093v-2.093a.356.356 0 00-.357-.357z" fill="#97ACDA" stroke="#97ACDA" stroke-width="0.493"></path><path d="M20.703 12.263c0-.323.261-.584.584-.584h5.846c.322 0 .584.261.584.584v5.845a.585.585 0 01-.584.585h-5.846a.585.585 0 01-.584-.585v-5.845z" fill="#FF6100"></path><path d="M11.68 12.263c0-.323.26-.585.584-.585h5.845c.323 0 .585.262.585.585v5.845a.585.585 0 01-.585.585h-5.845a.585.585 0 01-.585-.585v-5.845z" fill="#09F"></path><path d="M11.68 21.287c0-.323.26-.585.584-.585h5.845c.323 0 .585.262.585.584v5.846a.585.585 0 01-.585.584h-5.845a.585.585 0 01-.585-.584v-5.846z" fill="#FFB629"></path></svg>
