<svg viewBox="0 0 40 40" width="40" height="40" fill="none" xmlns="http://www.w3.org/2000/svg"><circle cx="20" cy="20" r="20" fill="#007862"></circle><rect x="11" y="9" width="18.571" height="22.857" rx="3.781" fill="#fff"></rect><path d="M20.285 15.871v2.053m0 0H16.3a.907.907 0 00-.907.907v.277m4.893-1.184h3.829c.501 0 .907.406.907.907v.277M20.285 25.714V23.37m0 0H16.3a.907.907 0 01-.907-.907v-.277m4.893 1.184h3.829a.907.907 0 00.907-.907v-.277" stroke="#97ACDA" stroke-width="1.134"></path><path d="M12.393 20.607c0-.871.706-1.578 1.578-1.578h3.157a1.579 1.579 0 110 3.157h-3.157a1.579 1.579 0 01-1.578-1.579zM21.864 20.607c0-.871.706-1.578 1.578-1.578H26.6a1.579 1.579 0 110 3.157h-3.158a1.579 1.579 0 01-1.578-1.579z" fill="#FFB629"></path><path d="M17.128 27.293c0-.872.707-1.579 1.58-1.579h3.156a1.579 1.579 0 110 3.158h-3.157a1.579 1.579 0 01-1.579-1.58z" fill="#09F"></path><rect x="17.128" y="12.714" width="6.315" height="3.157" rx="1.579" fill="#FF6100"></rect></svg>
