<svg width="200" height="200" viewBox="0 0 200 200" fill="none" xmlns="http://www.w3.org/2000/svg">
<path d="M109.457 75.6291C109.457 85.8664 105.618 96.1036 96.6608 103.782C80.0252 119.137 54.4321 119.137 37.7966 103.782C30.1186 96.1036 25 85.8664 25 75.6291C25 65.3918 28.839 53.8749 37.7966 47.4767C54.4321 30.8411 80.0252 30.8411 96.6608 47.4767C105.618 53.8749 109.457 64.1122 109.457 75.6291Z" fill="#0075FF"/>
<path d="M165 129C165 147.73 149.838 162 132 162C114.162 162 99 146.838 99 129C99 110.27 114.162 96 132 96C149.838 96 164.108 111.162 165 129Z" fill="#FFC300"/>
</svg>
