<svg width="200" height="200" viewBox="0 0 200 200" fill="none" xmlns="http://www.w3.org/2000/svg">
<path d="M110.921 27.917C107.686 27.917 104.327 29.5344 102.336 32.0227C87.6553 50.8095 78.573 72.9556 74.9649 95.1016C71.2324 114.386 72.9743 138.896 79.4439 161.789C80.6881 166.268 83.1764 170 101.59 170C151.481 170 174 150.342 174 99.2073C174 48.8189 152.6 27.917 110.921 27.917ZM109.677 163.406C106.815 165.023 102.71 163.779 101.466 160.918C91.2634 141.633 87.9042 119.985 92.0099 98.3364C96.1156 76.688 106.691 57.4036 123.114 42.5981C125.602 40.6074 129.708 40.6074 131.699 42.9713C134.187 45.4596 133.689 49.0677 131.325 51.556C117.391 63.8732 107.562 80.6694 104.327 100.327C100.595 119.612 104.327 138.772 112.539 155.194C112.539 155.194 112.539 155.195 112.539 155.568C113.783 158.056 112.539 161.789 109.677 163.406ZM147.375 72.4579C137.173 80.6693 129.708 91.2447 127.344 103.935C124.856 116.626 127.344 129.316 133.938 140.016C133.938 140.016 133.938 140.016 133.938 140.389C135.182 142.006 134.311 144.495 132.321 145.241C130.33 146.112 127.842 145.614 126.598 143.624C119.257 131.804 116.395 117.372 119.257 103.064C122.119 88.7564 130.33 76.4392 141.776 66.9836C141.776 66.9836 141.776 66.9836 142.15 66.6104C143.767 65.3662 146.628 65.3662 147.873 66.9836C149.366 68.8498 148.992 71.3381 147.375 72.4579ZM51.0771 152.706C51.4503 155.194 48.5887 156.812 46.5981 155.194C35.5251 145.366 28.931 132.675 28.931 98.7097C28.931 54.9152 46.1004 36.1285 69.4906 29.9077C71.9789 29.0367 73.5963 31.8983 72.3522 33.6401C61.6524 51.3072 54.3119 70.4673 50.7038 90.9959C46.9713 111.4 47.469 132.675 51.0771 152.706Z" fill="#246BE8"/>
</svg>
