<svg width="200" height="200" viewBox="0 0 200 200" fill="none" xmlns="http://www.w3.org/2000/svg">
<path fill-rule="evenodd" clip-rule="evenodd" d="M84.4141 31.3708C83.666 31.4717 83.0545 31.7626 83.0545 32.0149C83.0545 32.2702 82.2887 32.478 81.3536 32.478C75.8975 32.478 58.5051 39.1512 56.0353 42.1909C55.7325 42.5649 55.314 42.8677 55.1002 42.8677C54.3373 42.8677 47.3495 48.5286 44.1643 51.7227C36.9598 58.9569 31.4562 67.714 27.1816 78.736C26.6859 80.0154 25.1957 85.9524 24.5753 89.1227C23.0673 96.8171 24.7059 117.341 27.3805 124.255C32.2696 136.892 39.106 146.708 49.092 155.424C53.8357 159.565 64.9408 165.98 68.8266 166.826C69.7141 167.019 70.8778 167.482 71.4121 167.856C71.9494 168.227 72.8845 168.533 73.4871 168.533C74.0897 168.533 74.7071 168.729 74.8556 168.969C75.001 169.21 76.6307 169.566 78.4712 169.759C80.3116 169.952 83.0337 170.424 84.518 170.807C88.1306 171.736 99.7285 171.727 103.249 170.789C104.698 170.406 107.316 169.937 109.07 169.747C110.822 169.56 112.38 169.21 112.526 168.969C112.674 168.729 113.425 168.533 114.191 168.533C114.957 168.533 115.844 168.224 116.159 167.844C116.474 167.464 117.531 167.004 118.507 166.82C120.3 166.485 120.891 166.259 123.129 165.054C123.809 164.689 125.367 163.899 126.593 163.302C128.674 162.287 134.947 158.333 135.496 157.686C135.632 157.526 136.562 156.787 137.562 156.041C142.22 152.571 148.821 145.293 152.485 139.59C156.341 133.591 159.811 126.175 161.055 121.286C161.194 120.74 161.503 119.85 161.74 119.306C161.978 118.763 162.393 116.424 162.661 114.111C162.931 111.799 163.37 108.792 163.64 107.432C164.284 104.206 164.284 97.6334 163.643 94.8163C163.364 93.5903 162.925 90.8088 162.664 88.6329C162.405 86.4541 161.996 84.2277 161.752 83.6845C161.512 83.1412 161.188 82.3041 161.037 81.8292C160.627 80.5468 159.386 80.7783 158.401 82.3249C157.926 83.073 155.394 86.5817 152.778 90.1261C146.743 98.2983 147.067 97.5592 146.69 104.054C145.906 117.513 140.358 130.127 131.328 138.979C129.063 141.199 123.387 145.776 122.901 145.776C122.717 145.776 121.838 146.331 120.944 147.011C120.054 147.694 119.157 148.249 118.952 148.249C118.748 148.249 116.94 149.027 114.93 149.98C112.923 150.933 110.952 151.713 110.549 151.713C110.145 151.713 109.305 151.912 108.682 152.156C106.892 152.853 103.89 153.572 99.9749 154.237C97.992 154.572 96.2524 155.032 96.1129 155.258C95.1689 156.787 77.1175 154.219 77.1175 152.556C77.1175 152.224 76.3932 151.66 75.5086 151.301C74.624 150.942 73.0448 150.22 71.9999 149.695C70.952 149.172 69.3817 148.745 68.5089 148.745C65.7274 148.745 55.7682 141.511 55.9819 139.646C56.0442 139.097 55.0142 137.574 53.4913 135.968C52.0635 134.46 50.8939 133.045 50.8939 132.822C50.8939 132.599 50.4783 132.418 49.9707 132.418C47.4148 132.418 42.0508 120.509 41.7361 114.138C41.653 112.384 41.3027 108.75 40.9584 106.067C40.2162 100.234 41.6203 86.5045 43.0482 85.6199C43.2827 85.4745 43.4727 84.8273 43.4727 84.1802C43.4727 83.5301 43.6775 82.8741 43.9239 82.7227C44.1732 82.5683 44.5265 81.5531 44.7105 80.4666C44.8946 79.3802 45.2389 78.4896 45.4734 78.4896C45.7079 78.4896 46.3284 77.5248 46.8508 76.3434C49.0801 71.3029 55.7533 63.288 60.9036 59.4616C62.6105 58.197 64.4094 56.8285 64.8992 56.4248C65.392 56.0211 66.995 55.1424 68.4585 54.4716C69.9249 53.8036 71.2488 53.0496 71.4032 52.8003C71.5605 52.548 72.4066 52.1888 73.2882 52.0018C74.1698 51.8118 75.1138 51.4912 75.3839 51.2864C75.657 51.0845 76.4378 50.7906 77.1175 50.6363C77.7973 50.4849 79.243 50.099 80.3324 49.7843C86.7651 47.9201 100.551 47.8845 106.802 49.716C107.755 49.9951 109.091 50.381 109.771 50.5739C110.451 50.7669 111.228 51.0875 111.502 51.2864C111.775 51.4823 112.826 51.794 113.835 51.975C114.847 52.1591 115.96 52.5777 116.311 52.9072C116.658 53.2367 117.611 53.8244 118.427 54.2192C120.164 55.0504 126.709 59.2686 127.116 59.8148C127.68 60.5718 130.761 62.6586 131.313 62.6586C131.628 62.6586 133.727 60.0939 135.974 56.9621C138.224 53.8304 140.26 51.1439 140.501 50.9954C141.549 50.3483 140.771 48.8552 138.589 47.3294C137.298 46.424 136.015 45.4414 135.745 45.1416C134.588 43.8711 127.992 39.8695 123.871 37.94C119.674 35.9749 118.819 35.5979 116.079 34.5114C114.405 33.8465 108.07 32.478 106.669 32.478C105.992 32.478 104.618 32.1366 103.617 31.7181C101.901 30.9997 88.8698 30.7652 84.4141 31.3708Z" fill="#683993"/>
<path fill-rule="evenodd" clip-rule="evenodd" d="M183.363 13.8836C182.072 14.5396 181.015 14.9492 181.015 14.7949C181.015 14.6405 180.623 14.8661 180.148 15.2966C179.673 15.727 179.121 16.107 178.922 16.1396C178.002 16.288 174.095 18.2116 173.825 18.648C173.659 18.9151 173.332 19.0161 173.098 18.8736C172.863 18.7281 172.531 18.835 172.362 19.1111C172.189 19.3871 171.617 19.6157 171.088 19.6157C170.563 19.6157 170.126 19.7819 170.12 19.9868C170.117 20.1886 169.061 20.8387 167.772 21.4295C158.306 25.7575 158.546 25.4518 162.218 28.5242L164.697 30.5991L163.688 31.9112C163.133 32.6296 161.755 34.5561 160.624 36.1888C159.496 37.8215 158.389 39.2315 158.166 39.3235C157.944 39.4126 157.76 39.748 157.757 40.0656C157.754 40.3803 156.985 41.6449 156.047 42.8679C152.413 47.6115 147.233 54.6706 141.887 62.1631C140.821 63.6592 139.777 65.1078 139.569 65.378C139.361 65.6511 138.69 66.5416 138.079 67.3579C137.467 68.1743 136.63 69.2875 136.22 69.8307C135.808 70.3769 134.754 71.8611 133.878 73.1317C130.39 78.184 126.288 83.8153 124.299 86.288C123.144 87.7218 122.061 89.3367 121.888 89.8769C121.716 90.4172 121.422 90.8595 121.232 90.8595C121.042 90.8595 120.339 91.75 119.665 92.8365C118.991 93.9259 118.273 94.8165 118.065 94.8165C117.857 94.8165 117.685 95.1074 117.685 95.4666C117.685 95.8228 117.29 96.5471 116.809 97.0725C116.325 97.6009 114.544 99.9253 112.846 102.238C111.148 104.55 109.424 106.889 109.011 107.433C108.598 107.976 106.678 110.647 104.745 113.37C102.813 116.092 101.038 118.392 100.8 118.481C100.563 118.573 100.37 118.93 100.37 119.271C100.37 119.615 99.8978 120.432 99.3219 121.085C98.746 121.741 97.7457 123.053 97.1015 124.006C96.4544 124.959 95.4243 126.407 94.8128 127.223C89.7129 134.018 88.1812 136.099 87.7567 136.8C87.071 137.928 83.4286 143.001 83.0873 143.301C82.9329 143.437 82.5826 143.918 82.3125 144.372C82.0394 144.824 80.7392 146.673 79.4241 148.478C76.6694 152.257 76.6931 152.744 79.6527 153.509C85.1979 154.94 86.8543 155.175 91.3931 155.175H96.2525L98.0633 153.219C99.0607 152.141 99.8741 151.028 99.8741 150.746C99.8741 150.461 100.064 150.229 100.293 150.229C100.521 150.229 101.133 149.398 101.652 148.386C102.172 147.374 102.961 146.204 103.41 145.788C103.858 145.373 105.41 143.253 106.856 141.074C108.305 138.899 110.504 135.782 111.742 134.149C112.983 132.516 115.773 128.66 117.943 125.579C121.318 120.791 123.159 118.241 124.979 115.839C125.186 115.566 126.347 113.904 127.564 112.147C128.778 110.389 130.17 108.555 130.654 108.068C131.141 107.584 131.539 107.017 131.539 106.809C131.539 106.601 132.041 105.871 132.652 105.182C134.006 103.666 135.992 100.893 135.992 100.525C135.992 100.379 136.339 99.8689 136.763 99.3939C137.443 98.631 138.803 96.7608 143.692 89.868C147.967 83.839 149.973 81.1911 150.374 81.0457C150.626 80.9566 150.834 80.6627 150.834 80.3956C150.834 79.9859 151.763 78.6026 153.936 75.7677C154.144 75.4975 155.029 74.2716 155.898 73.0485C161.628 64.998 165.694 59.3579 166.143 58.8443C166.431 58.5148 166.665 58.0161 166.665 57.7311C166.665 57.4462 166.84 57.2146 167.054 57.2146C167.268 57.2146 167.829 56.5615 168.301 55.763C168.773 54.9645 169.598 53.7949 170.135 53.1656C170.673 52.5363 172.222 50.4613 173.582 48.5585C174.941 46.6527 176.241 44.8657 176.47 44.5867C176.702 44.3076 177.286 43.4735 177.77 42.7314C178.928 40.9651 179.358 41.0274 182.003 43.3636C186.512 47.3414 186.783 46.5993 187.732 27.5297C187.89 24.4009 188.187 21.1742 188.391 20.3578C188.596 19.5415 188.816 17.4814 188.881 15.7804L189 12.6873L187.355 12.6902C186.453 12.6902 184.657 13.2275 183.363 13.8836ZM95.0325 84.5633C94.4091 85.442 92.4677 88.1107 90.7163 90.4973C88.9649 92.884 87.2699 95.333 86.9493 95.9386C86.6316 96.5471 86.2131 97.1527 86.0231 97.2892C85.8331 97.4258 83.9689 99.946 81.8791 102.891C79.7922 105.833 77.8568 108.504 77.5777 108.828C77.3017 109.148 74.8616 112.529 72.1602 116.338C69.4559 120.147 67.0722 123.489 66.8615 123.762C60.8592 131.56 56.3382 138.323 56.3382 139.507C56.3382 140.787 60.0369 144.064 65.1101 147.282C68.696 149.555 68.8058 149.505 73.128 143.455C76.4081 138.872 78.4386 136.093 81.4754 132.044C83.1585 129.797 84.5388 127.793 84.5388 127.592C84.5418 127.39 85.2097 126.511 86.0231 125.641C86.8394 124.772 87.5073 123.825 87.5073 123.54C87.5073 123.252 87.7151 123.017 87.9675 123.017C88.2227 123.017 88.573 122.569 88.7452 122.02C88.9203 121.471 89.7159 120.307 90.5115 119.434C91.307 118.561 91.9601 117.653 91.9601 117.41C91.9601 117.169 92.3935 116.495 92.9278 115.914C94.1241 114.601 99.1884 107.798 103.006 102.365C104.585 100.124 106.138 98.0017 106.461 97.6514C109.605 94.2465 109.961 92.2428 107.666 90.8714C106.239 90.0164 104.65 88.7786 101.934 86.4068C97.9831 82.9544 96.4633 82.5477 95.0325 84.5633ZM62.5216 87.7099C60.0221 91.2276 53.3163 100.344 52.7463 101C52.5118 101.273 50.3122 104.28 47.8631 107.679C45.4112 111.081 43.1432 114.088 42.8226 114.358C41.3532 115.602 42.0657 118.677 45.4438 125.674C48.5756 132.157 50.9118 134.107 51.743 130.931C51.8825 130.388 52.1793 129.943 52.396 129.943C52.6157 129.943 53.3044 129.108 53.9278 128.087C54.5512 127.069 55.2933 125.986 55.5753 125.68C55.8603 125.377 57.3148 123.4 58.8109 121.287C60.3071 119.176 62.1446 116.724 62.8926 115.839C63.6407 114.952 64.2522 114.082 64.2522 113.901C64.2522 113.723 64.4808 113.307 64.7568 112.978C65.0329 112.648 66.4162 110.823 67.8292 108.917C69.2422 107.011 70.7947 105.022 71.2845 104.494C71.7714 103.968 72.1691 103.33 72.1691 103.081C72.1691 102.831 73.5109 100.866 75.1525 98.7141L78.1388 94.8016L76.515 93.169C75.6215 92.2695 74.0541 91.0317 73.0359 90.4142C72.0148 89.7968 71.1806 89.1051 71.1806 88.8736C71.1806 88.642 70.7888 88.3274 70.3138 88.173C69.8389 88.0186 68.6693 87.2261 67.7164 86.4097C65.3416 84.3733 64.7984 84.5099 62.5216 87.7099Z" fill="#EF6333"/>
</svg>
