<svg width="16" height="16" viewBox="0 0 16 16" fill="none" xmlns="http://www.w3.org/2000/svg">
<path fill-rule="evenodd" clip-rule="evenodd" d="M5.32895 12.8649L5.61498 12.9793C5.63539 12.9875 5.65601 12.968 5.64906 12.9472C5.24047 11.7214 4.27859 10.7595 3.05281 10.3509C3.03196 10.344 3.01251 10.3646 3.02067 10.385L3.13509 10.6711C3.42348 11.392 3.04547 12.2071 2.3088 12.4526L2.18011 12.4955C1.84859 12.606 1.48862 12.5954 1.16416 12.4657L1.08151 12.4326C0.428317 12.1713 0 11.5387 0 10.8352V2.66667C0 1.19391 1.19391 0 2.66667 0H13.3333C14.8061 0 16 1.19391 16 2.66667V13.3333C16 14.8061 14.8061 16 13.3333 16H5.16483C4.46131 16 3.82867 15.5717 3.56739 14.9185L3.53434 14.8358C3.40455 14.5114 3.39397 14.1514 3.50448 13.8199L3.54738 13.6912C3.79293 12.9545 4.60796 12.5765 5.32895 12.8649ZM2.66642 9.33311C2.66642 9.33311 2.99976 7.99977 3.99976 7.33311C4.99976 6.66644 5.33309 7.33311 5.33309 7.33311C5.33309 7.33311 6.66642 2.66644 13.3331 2.66644C13.3331 9.33311 8.66642 10.6664 8.66642 10.6664C8.66642 10.6664 9.33309 10.9998 8.66642 11.9998C7.99976 12.9998 6.66642 13.3331 6.66642 13.3331C6.66642 11.124 4.87557 9.33311 2.66642 9.33311ZM9 8C9.55229 8 10 7.55228 10 7C10 6.44772 9.55229 6 9 6C8.44771 6 8 6.44772 8 7C8 7.55228 8.44771 8 9 8Z" fill="#5B6DC7"/>
</svg>
