<svg width="40" height="40" viewBox="0 0 40 40" fill="none" xmlns="http://www.w3.org/2000/svg">
  <path d="M15.2228 31.7355C15.6924 32.19 15.3592 32.974 14.6926 32.974H10.4961C10.1049 32.9791 9.72778 32.8288 9.44731 32.5561C9.16685 32.2835 9.00598 31.9107 9 31.5196V27.4595C9 26.808 9.80673 26.4861 10.2802 26.9444L15.2228 31.7355Z" fill="#0A1551"/>
  <path d="M21.7713 32.0499C21.477 31.7577 21.2435 31.4101 21.0841 31.0273C20.9247 30.6444 20.8426 30.2338 20.8426 29.8191C20.8426 29.4043 20.9247 28.9937 21.0841 28.6108C21.2435 28.228 21.477 27.8804 21.7713 27.5882L26.2481 23.1418C26.8454 22.5492 27.6527 22.2167 28.4941 22.2167C29.3355 22.2167 30.1427 22.5492 30.7401 23.1418C31.0344 23.434 31.2679 23.7815 31.4273 24.1644C31.5867 24.5472 31.6688 24.9579 31.6688 25.3726C31.6688 25.7873 31.5867 26.1979 31.4273 26.5808C31.2679 26.9637 31.0344 27.3112 30.7401 27.6034L26.2633 32.0499C25.666 32.6424 24.8587 32.9749 24.0173 32.9749C23.1759 32.9749 22.3687 32.6424 21.7713 32.0499Z" fill="#FFB629"/>
  <path d="M9.94687 20.8745C9.65257 20.5823 9.41899 20.2348 9.2596 19.8519C9.1002 19.469 9.01814 19.0584 9.01814 18.6437C9.01814 18.229 9.1002 17.8184 9.2596 17.4355C9.41899 17.0526 9.65257 16.7051 9.94687 16.4129L17.4801 8.9251C18.0774 8.3325 18.8847 8 19.7261 8C20.5675 8 21.3748 8.3325 21.9721 8.9251C22.2664 9.2173 22.5 9.5648 22.6593 9.9477C22.8187 10.3305 22.9008 10.7412 22.9008 11.1559C22.9008 11.5706 22.8187 11.9812 22.6593 12.3641C22.5 12.747 22.2664 13.0945 21.9721 13.3867L14.435 20.8745C13.8379 21.4659 13.0314 21.7977 12.1909 21.7977C11.3505 21.7977 10.544 21.4659 9.94687 20.8745Z" fill="#0099FF"/>
  <path d="M16.1049 26.2147C15.8106 25.9225 15.577 25.5749 15.4177 25.1921C15.2583 24.8092 15.1762 24.3986 15.1762 23.9839C15.1762 23.5691 15.2583 23.1585 15.4177 22.7757C15.577 22.3928 15.8106 22.0452 16.1049 21.753L26.2818 11.6405C26.8792 11.048 27.6864 10.7155 28.5278 10.7155C29.3692 10.7155 30.1765 11.048 30.7738 11.6405C31.0681 11.9327 31.3017 12.2803 31.4611 12.6631C31.6204 13.046 31.7025 13.4566 31.7025 13.8713C31.7025 14.2861 31.6204 14.6967 31.4611 15.0795C31.3017 15.4624 31.0681 15.81 30.7738 16.1021L20.5969 26.2147C19.9995 26.8072 19.1923 27.1397 18.3509 27.1397C17.5095 27.1397 16.7022 26.8072 16.1049 26.2147Z" fill="#FF6100"/>
</svg>
