<svg width="40" height="40" viewBox="0 0 40 40" fill="none" xmlns="http://www.w3.org/2000/svg">
    <circle cx="20" cy="20" r="20" fill="#249BB4"/>
    <path d="M11 20.1973L20.2433 13.3503L29.4867 20.1973V29.3265H11V20.1973Z" fill="#1C788B"/>
    <path d="M12.9111 11.3047C12.9111 10.0319 13.8895 9 15.0963 9H25.4761C26.683 9 27.6613 10.0319 27.6613 11.3047V25.133C27.6613 26.4059 26.683 27.4377 25.4761 27.4377H15.0963C13.8895 27.4377 12.9111 26.4059 12.9111 25.133V11.3047Z" fill="white"/>
    <path d="M15.6758 13.3986C15.6758 12.8531 16.118 12.4108 16.6635 12.4108H23.9069C24.4524 12.4108 24.8947 12.8531 24.8947 13.3986C24.8947 13.9441 24.4524 14.3863 23.9069 14.3863H16.6635C16.118 14.3863 15.6758 13.9441 15.6758 13.3986Z" fill="#0099FF"/>
    <path d="M15.6758 16.691C15.6758 16.1455 16.118 15.7032 16.6635 15.7032H23.9069C24.4524 15.7032 24.8947 16.1455 24.8947 16.691C24.8947 17.2365 24.4524 17.6787 23.9069 17.6787H16.6635C16.118 17.6787 15.6758 17.2365 15.6758 16.691Z" fill="#FF6100"/>
    <path d="M15.6758 19.9834C15.6758 19.4379 16.118 18.9957 16.6635 18.9957H23.9069C24.4524 18.9957 24.8947 19.4379 24.8947 19.9834C24.8947 20.5289 24.4524 20.9711 23.9069 20.9711H16.6635C16.118 20.9711 15.6758 20.5289 15.6758 19.9834Z" fill="#FFB629"/>
    <path d="M13.7513 31.8572H26.8201C28.3396 31.8572 29.5714 30.3794 29.5714 28.7768V20.4286L20.2857 25.6779L11 20.4286V28.7768C11 30.3794 12.2318 31.8572 13.7513 31.8572Z" fill="#C6D6F7"/>
</svg>