<svg width="200" height="200" viewBox="0 0 200 200" fill="none" xmlns="http://www.w3.org/2000/svg">
<path d="M137.728 95.3554C138.802 95.3554 139.875 95.3554 140.949 95.3554C141.632 93.8914 141.632 91.7442 140.949 89.3043C140.266 85.6931 139.192 83.2532 137.045 83.546C134.898 83.9364 134.898 86.7667 135.581 90.3779C135.874 92.525 136.654 94.2818 137.728 95.3554Z" fill="black"/>
<path d="M118.794 98.576C120.258 99.2591 121.331 99.6496 121.624 99.2592C122.015 98.8688 121.624 98.576 121.234 97.7952C120.551 96.3312 118.696 95.2577 117.33 94.5745C113.719 93.1105 109.815 93.5009 106.594 96.0384C105.521 96.7216 104.447 97.7952 104.837 98.576C104.837 98.9664 105.228 98.9664 105.521 98.9664C106.204 98.9664 109.424 97.5024 113.036 97.2096C115.183 97.112 117.33 97.8928 118.794 98.576Z" fill="black"/>
<path d="M115.573 100.333C113.426 100.723 112.352 101.406 111.669 102.09C110.986 102.773 110.596 103.163 110.596 103.554V103.944H110.986C111.376 103.944 112.45 103.554 112.45 103.554C115.28 102.48 117.135 102.48 118.891 102.87C119.965 102.87 120.355 103.261 120.648 102.87C120.648 102.87 120.648 102.48 120.648 102.187C120.551 101.114 118.403 100.04 115.573 100.333Z" fill="black"/>
<path d="M116.647 102.871C117.33 101.407 117.33 98.1858 116.647 95.7458C115.964 92.1347 114.89 89.9875 112.352 89.9875C110.205 90.3779 110.205 93.2083 110.888 97.1122C111.279 99.6498 112.352 101.016 112.645 102.09C114.5 105.018 115.573 104.237 116.647 102.871Z" fill="black"/>
<path d="M131.286 106.774C132.75 107.457 134.117 107.165 134.898 106.091C135.288 105.017 134.507 103.553 133.141 102.87C131.677 102.187 130.31 102.48 129.53 103.553C128.749 104.627 129.822 106.091 131.286 106.774Z" fill="black"/>
<path d="M140.168 98.9666C139.094 98.9666 138.021 100.04 138.021 101.797C138.021 103.261 138.704 104.627 140.168 104.627C141.241 104.627 142.315 103.554 142.315 101.797C142.022 100.333 141.241 98.9666 140.168 98.9666Z" fill="black"/>
<path d="M64.5294 126.782C64.139 126.391 63.8462 126.391 63.4558 126.782C63.0654 126.782 62.7726 126.782 62.3822 126.782C61.699 126.782 60.9182 126.391 60.6254 125.708C60.3326 125.025 60.235 123.951 60.6254 122.487L61.0158 121.804C62.0894 119.657 63.5534 116.436 61.699 113.216C60.235 110.678 58.4783 109.312 55.9407 108.921C53.4032 108.531 50.9632 109.605 49.4992 111.459C46.9617 114.289 46.6689 117.9 46.9617 119.267C46.9617 119.657 47.3521 119.95 47.6449 119.95C48.0353 119.95 48.7185 119.56 49.1088 118.486V118.096C49.1088 117.412 49.4992 116.632 50.1824 115.558C50.8656 114.484 51.9392 113.801 53.0128 113.801C54.0864 113.411 55.5503 113.801 56.6239 114.484C58.3807 115.558 59.1615 117.705 58.3807 119.852C57.3071 120.926 56.9167 122.683 56.9167 124.537C57.3071 127.758 59.4542 129.222 61.211 129.515C62.9678 129.515 64.4318 128.441 64.4318 127.758C64.8222 127.172 64.5294 127.172 64.5294 126.782Z" fill="black"/>
<path d="M168.374 120.731C168.374 120.34 167.983 118.974 167.3 116.827L165.836 113.606C168.374 109.995 168.374 106.481 167.983 104.725C167.593 102.577 166.519 100.43 164.763 98.283C163.006 96.1359 158.711 93.9887 153.344 92.5248L150.513 91.8416C150.513 91.8416 150.513 85.0097 150.123 82.1794C150.123 80.0322 149.732 76.8115 148.659 73.5907C147.585 69.2964 145.438 65.3925 142.608 62.8549C149.732 55.3399 154.417 46.7512 154.417 39.6266C154.417 26.0604 137.63 21.7661 116.549 30.3547L112.255 32.1115C112.255 32.1115 104.447 24.3037 104.057 24.3037C80.9258 3.61285 7.04398 86.0833 30.5651 106.091L35.5426 110.385C34.0787 113.996 33.7859 117.9 34.0787 122.195C34.7619 127.562 37.6898 132.93 41.8865 137.225C46.1808 141.129 51.8415 143.666 57.5998 143.666C66.8716 165.138 87.9528 177.923 112.548 178.704C138.997 179.387 161.444 166.895 170.716 144.74C171.399 143.276 173.937 136.151 173.937 129.71C174.522 123.171 170.911 120.731 168.374 120.731ZM59.8446 137.518C59.1614 137.518 58.0878 137.908 57.307 137.518C49.4992 137.127 40.5201 130.002 39.837 121.414C39.1538 112.142 43.7409 105.017 52.3295 103.163C53.4031 102.773 54.4767 102.773 55.9406 102.773C60.6254 103.163 67.75 106.676 69.5068 117.022C70.8732 126.782 68.8236 136.054 59.8446 137.518ZM50.9631 97.5023C45.5952 98.5759 41.0081 101.406 38.0802 105.701C36.3234 104.237 33.1027 101.406 32.7123 100.333C28.0276 91.744 37.6898 74.6643 44.5217 65.2949C60.9182 41.7737 86.9768 23.9133 98.7862 27.0364C100.933 27.7196 107.375 35.2346 107.375 35.2346C107.375 35.2346 95.2727 42.0665 84.1465 51.3383C69.1164 62.4645 57.6974 79.2514 50.9631 97.5023ZM135.19 133.906L135.581 133.516C135.581 133.126 135.19 133.126 135.19 133.126C135.19 133.126 122.698 134.882 110.888 130.588C112.352 126.294 115.573 127.758 120.843 128.441C130.115 129.124 138.704 127.758 144.755 125.903C150.123 124.439 157.247 121.219 162.615 117.022C164.372 120.926 165.153 125.611 165.153 125.611C165.153 125.611 166.617 125.22 167.691 126.001C168.764 126.684 169.447 128.148 169.154 131.759C168.081 138.884 164.86 144.252 160.273 149.62C157.443 152.84 153.441 155.671 149.244 157.818C147.097 158.891 144.56 159.965 142.12 160.648C122.795 166.699 103.569 160.258 97.5175 145.618C97.1271 144.545 96.4439 143.471 96.4439 142.007C93.9063 132.345 96.0535 120.926 103.276 113.801C103.666 113.411 103.959 112.728 103.959 112.044C103.959 111.361 103.569 110.971 103.276 110.58C100.738 106.969 92.2471 100.918 94.0039 89.1088C95.0775 80.5202 102.593 74.8595 109.327 75.1523H111.084C113.914 75.1523 116.842 75.8355 118.891 75.8355C122.795 75.8355 126.699 75.4451 130.994 71.9315C132.458 70.858 133.531 69.7844 135.678 69.394C136.069 69.394 136.362 69.0036 137.435 69.394C138.509 69.394 139.582 69.7844 140.265 70.4676C143.877 73.0051 144.169 78.2754 144.56 82.5697C144.56 85.1073 144.95 90.768 144.95 92.2319C145.341 95.8431 146.024 96.5263 148.171 97.2095C149.244 97.5999 150.318 97.8926 151.782 98.283C156.467 99.747 159.297 100.821 161.054 102.577C162.127 103.651 162.518 104.725 162.811 105.798C163.494 109.702 159.59 114.68 149.928 119.364C139.192 124.342 126.699 125.415 117.818 124.342L114.597 123.951C107.472 122.878 103.569 132.15 107.765 138.201C110.596 142.105 118.111 145.033 125.235 145.033C142.413 145.033 155.588 137.908 160.273 131.466L160.663 130.783C161.054 130.393 160.663 130.1 160.273 130.393C156.369 133.223 138.509 143.959 119.575 140.738C119.575 140.738 117.427 140.348 115.28 139.665C113.524 138.981 110.303 137.517 109.522 133.906C125.528 138.591 135.19 133.906 135.19 133.906ZM81.609 65.3925C87.3672 58.5606 94.7847 52.5095 101.226 49.2888C101.617 49.2888 101.617 49.2888 101.617 49.6792C101.226 50.7528 100.153 52.5095 99.8598 53.9735C99.8598 54.3639 100.25 54.3639 100.25 54.3639C104.154 51.5335 111.279 48.6056 117.427 48.3128C117.818 48.3128 117.818 48.7032 117.818 48.7032C116.744 49.3864 116.061 50.46 114.988 51.5335C114.988 51.5335 114.988 51.9239 115.378 51.9239C119.672 51.9239 125.723 53.3879 129.627 55.8279C130.018 55.8279 129.627 56.5111 129.237 56.5111C123.186 55.0471 113.524 53.9735 103.178 56.5111C93.9063 58.6582 87.0745 62.2693 82.0969 65.7829C81.609 65.6853 81.3162 65.6853 81.609 65.3925Z" fill="black"/>
</svg>
