<svg width="200" height="200" viewBox="0 0 200 200" fill="none" xmlns="http://www.w3.org/2000/svg">
<path d="M71.3746 168.683L73.8489 153.008L68.3374 152.88H42.0191L60.3089 37.2121C60.3634 36.8587 60.5434 36.5366 60.8161 36.3044C61.0887 36.0723 61.436 35.9456 61.7945 35.9475H106.171C120.903 35.9475 131.07 39.0052 136.378 45.0404C138.866 47.8716 140.451 50.8302 141.218 54.086C142.022 57.5023 142.036 61.584 141.251 66.5621L141.194 66.9255V70.1153L143.682 71.5214C145.582 72.4814 147.29 73.78 148.721 75.353C150.85 77.7737 152.227 80.8502 152.808 84.4977C153.409 88.2491 153.211 92.7129 152.227 97.7666C151.091 103.58 149.255 108.643 146.776 112.786C144.589 116.497 141.648 119.712 138.142 122.223C134.85 124.554 130.937 126.324 126.514 127.456C122.228 128.57 117.341 129.131 111.98 129.131H108.527C106.057 129.131 103.659 130.019 101.776 131.609C99.8955 133.216 98.6481 135.436 98.2559 137.875L97.9957 139.286L93.6243 166.914L93.4256 167.928C93.3735 168.249 93.2837 168.409 93.1512 168.518C93.0229 168.623 92.8628 168.681 92.697 168.683H71.3746Z" fill="#253B80"/>
<path d="M146.038 67.2935C145.906 68.1381 145.755 69.0016 145.584 69.8887C139.732 99.8569 119.711 110.21 94.14 110.21H81.1204C77.9932 110.21 75.3581 112.475 74.8708 115.551L68.2049 157.717L66.3173 169.669C66.2421 170.143 66.2708 170.628 66.4014 171.09C66.532 171.552 66.7615 171.98 67.074 172.345C67.3865 172.71 67.7746 173.004 68.2116 173.205C68.6485 173.406 69.124 173.51 69.6053 173.51H92.697C95.4315 173.51 97.7544 171.528 98.1849 168.839L98.412 167.669L102.76 140.149L103.039 138.639C103.465 135.94 105.792 133.959 108.527 133.959H111.98C134.353 133.959 151.867 124.899 156.986 98.6819C159.124 87.7299 158.017 78.5852 152.359 72.1537C150.566 70.1641 148.424 68.5171 146.038 67.2935V67.2935Z" fill="#179BD7"/>
<path d="M139.917 64.859C138.048 64.3198 136.147 63.899 134.225 63.5991C130.428 63.017 126.59 62.7377 122.748 62.7639H87.9661C86.6424 62.7629 85.362 63.2342 84.3564 64.0927C83.3507 64.9512 82.6862 66.1402 82.4829 67.4448L75.0837 114.188L74.8708 115.551C75.1013 114.063 75.8582 112.707 77.0045 111.727C78.1508 110.747 79.6108 110.209 81.1204 110.21H94.14C119.711 110.21 139.732 99.8525 145.584 69.8891C145.759 69.0019 145.906 68.1384 146.038 67.2938C144.494 66.4861 142.885 65.809 141.227 65.2695C140.792 65.1257 140.356 64.9888 139.917 64.859V64.859Z" fill="#222D65"/>
<path d="M82.4829 67.4449C82.6845 66.1399 83.3487 64.9503 84.3548 64.0923C85.3609 63.2342 86.6423 62.7646 87.9661 62.7687H122.748C126.869 62.7687 130.715 63.0376 134.225 63.6039C136.601 63.9762 138.943 64.5332 141.232 65.2696C142.959 65.8405 144.562 66.5153 146.043 67.2939C147.784 56.2192 146.029 48.6788 140.025 41.8509C133.407 34.3341 121.461 31.116 106.175 31.116H61.7992C58.6768 31.116 56.0133 33.3809 55.5307 36.4622L37.0469 153.32C36.9608 153.862 36.9935 154.417 37.1429 154.946C37.2923 155.474 37.5547 155.964 37.9121 156.382C38.2695 156.8 38.7134 157.136 39.2133 157.366C39.7132 157.597 40.2573 157.717 40.808 157.717H68.2049L75.0837 114.188L82.4829 67.4449Z" fill="#253B80"/>
</svg>
