<svg width="200" height="200" viewBox="0 0 200 200" fill="none" xmlns="http://www.w3.org/2000/svg">
<path fill-rule="evenodd" clip-rule="evenodd" d="M49.0017 50C60.4058 50.0196 71.81 50.0017 83.2118 50.0085C86.0955 50.0324 88.9908 49.9172 91.8662 50.2032C97.3152 50.6627 102.772 52.099 107.503 54.993C112.588 58.0604 116.59 62.9483 118.707 68.6168C120.847 74.246 121.364 80.4328 120.771 86.4155C120.083 93.5161 117.266 100.503 112.343 105.586C106.765 111.475 98.8845 114.595 91.0175 115.222C88.8402 115.45 86.653 115.368 84.4691 115.381C80.5472 115.38 76.6278 115.384 72.7051 115.38C72.7159 127.919 72.7035 140.458 72.7117 153C64.8084 152.989 56.9034 152.989 49 153C49.0058 118.666 49 84.3328 49.0017 50ZM72.7051 67.9499C72.7117 77.7873 72.7142 87.6247 72.7051 97.4621C76.1298 97.4553 79.5537 97.4604 82.981 97.4579C84.3318 97.4553 85.691 97.4997 87.0319 97.2871C89.435 96.9634 91.786 95.9951 93.6241 94.3469C96.0471 92.2001 97.3872 89.0038 97.7983 85.7819C98.2516 82.0502 97.9315 78.0998 96.2588 74.7097C94.975 72.0727 92.7348 69.9455 90.0538 68.9029C88.3422 68.23 86.5041 67.9217 84.6751 67.9499C80.6854 67.9524 76.6948 67.9524 72.7051 67.9499Z" fill="#2D2240"/>
<path fill-rule="evenodd" clip-rule="evenodd" d="M150.95 73.0714C154.241 72.7598 157.633 73.4682 160.464 75.1922C163.433 76.9622 165.776 79.7539 166.997 82.9909C168.505 86.9336 168.309 91.4996 166.436 95.2899C165.187 97.8679 163.199 100.078 160.776 101.608C157.622 103.622 153.716 104.405 150.026 103.801C146.802 103.291 143.749 101.726 141.473 99.3851C138.657 96.5823 137.015 92.6396 137.003 88.6687C136.933 85.0197 138.238 81.3758 140.58 78.5816C143.138 75.48 146.946 73.4486 150.95 73.0714Z" fill="#7887E6"/>
<path fill-rule="evenodd" clip-rule="evenodd" d="M149.677 121.265C152.793 120.671 156.088 121.078 158.968 122.453C162.073 123.917 164.675 126.477 166.25 129.602C167.968 132.972 168.436 136.988 167.587 140.69C166.299 146.595 161.475 151.466 155.725 152.653C152.22 153.423 148.463 152.905 145.297 151.173C141.842 149.31 139.114 146.058 137.854 142.249C136.522 138.335 136.76 133.892 138.484 130.148C140.558 125.567 144.85 122.147 149.677 121.265Z" fill="#FF5073"/>
</svg>
