<svg viewBox="0 0 40 40" width="40" height="40" fill="none" xmlns="http://www.w3.org/2000/svg"><circle cx="20" cy="20" r="20" fill="#3E62C8"></circle><path d="M13.751 31.857H26.82c1.52 0 2.752-1.296 2.752-2.896V14.467L24.236 9H13.75C12.231 9 11 10.297 11 11.896v17.065c0 1.6 1.232 2.896 2.751 2.896z" fill="#fff"></path><path d="M24.282 9l5.29 5.402h-3a2.29 2.29 0 01-2.29-2.29V9z" fill="#B1C3E9"></path><path d="M14.571 16.488c0-.653.53-1.183 1.183-1.183h8.67a1.182 1.182 0 010 2.365h-8.67c-.653 0-1.183-.53-1.183-1.183z" fill="#09F"></path><path d="M14.571 20.428c0-.653.53-1.182 1.183-1.182h8.67a1.182 1.182 0 110 2.365h-8.67c-.653 0-1.183-.53-1.183-1.183z" fill="#FF6100"></path><path d="M14.571 24.37c0-.654.53-1.183 1.183-1.183h8.67a1.182 1.182 0 110 2.364h-8.67c-.653 0-1.183-.529-1.183-1.182z" fill="#FFB629"></path></svg>