<svg width="40" height="40" viewBox="0 0 40 40" fill="none" xmlns="http://www.w3.org/2000/svg">
<circle cx="20" cy="20" r="20" fill="#94CD2A"/>
<path d="M13.7082 31.8506H26.5722C28.068 31.8506 29.2805 30.5718 29.2805 28.9943V14.3917L24.03 9H13.7082C12.2125 9 11 10.2788 11 11.8563V28.9943C11 30.5718 12.2125 31.8506 13.7082 31.8506Z" fill="white"/>
<path d="M24.0745 9L29.2815 14.3178H26.3282C25.0835 14.3178 24.0745 13.3088 24.0745 12.0641V9Z" fill="#E3E5F5"/>
<path d="M14.3237 16.6465C14.3237 15.9797 14.8643 15.4391 15.5311 15.4391H24.3851C25.0519 15.4391 25.5924 15.9797 25.5924 16.6465V16.6465C25.5924 17.3133 25.0519 17.8538 24.3851 17.8538H15.5311C14.8643 17.8538 14.3237 17.3133 14.3237 16.6465V16.6465Z" fill="#0099FF"/>
<path d="M14.3237 20.6714C14.3237 20.0046 14.8643 19.464 15.5311 19.464H24.3851C25.0519 19.464 25.5924 20.0046 25.5924 20.6714V20.6714C25.5924 21.3382 25.0519 21.8788 24.3851 21.8788H15.5311C14.8643 21.8788 14.3237 21.3382 14.3237 20.6714V20.6714Z" fill="#FF6100"/>
<mask id="mask0_1_927" style="mask-type:alpha" maskUnits="userSpaceOnUse" x="14" y="19" width="12" height="9">
<rect x="14.8085" y="19.3883" width="10.7329" height="8.3093" fill="#D9D9D9"/>
</mask>
<g mask="url(#mask0_1_927)">
<path d="M19.8649 25.4309C19.9162 25.4374 19.9443 25.467 19.9273 25.4966C19.9273 25.4966 19.9273 25.4966 19.9664 25.5181C19.977 25.5241 19.977 25.5241 19.977 25.5241C19.99 25.5276 20.003 25.5181 20.0059 25.5032C20.0059 25.5032 20.0059 25.5032 20.0019 25.4926C19.9976 25.4807 19.9976 25.4807 19.9976 25.4807C20.0014 25.4716 20.0119 25.4573 20.0209 25.4487C20.0209 25.4487 20.0209 25.4487 20.0289 25.4406L20.0656 25.4126C20.0809 25.3848 20.0809 25.3848 20.0809 25.3848C20.0916 25.4021 20.1032 25.4084 20.1068 25.3986C20.1103 25.3887 20.1268 25.3726 20.1412 25.3619C20.1557 25.3514 20.2021 25.3668 20.2059 25.3602C20.2098 25.3534 20.238 25.355 20.2415 25.3416C20.2415 25.3416 20.2415 25.3416 20.2548 25.3356C20.2576 25.3344 20.2576 25.3344 20.2576 25.3344C20.2604 25.3322 20.2997 25.3116 20.3448 25.2884C20.3448 25.2884 20.3448 25.2884 20.3919 25.2983C20.3966 25.2993 20.3966 25.2993 20.3966 25.2993C20.4018 25.3005 20.4115 25.2936 20.4181 25.2843C20.4247 25.275 20.4559 25.2569 20.467 25.2604C20.4782 25.2638 20.5245 25.2355 20.5455 25.2277C20.5455 25.2277 20.5455 25.2277 20.5657 25.224C20.5721 25.2228 20.5721 25.2228 20.5721 25.2228C20.5803 25.2288 20.5958 25.2249 20.6066 25.2144C20.6175 25.2038 20.654 25.1701 20.6658 25.1666C20.6776 25.1629 20.7319 25.1403 20.7606 25.1287C20.7606 25.1287 20.7606 25.1287 20.7903 25.1259C20.8131 25.1237 20.8131 25.1237 20.8131 25.1237C20.8371 25.1057 20.8678 25.0776 20.8813 25.0611C20.8949 25.0448 20.9533 25.0746 20.9688 25.0701C20.9688 25.0701 20.9688 25.0701 20.979 25.0597C20.9895 25.049 20.993 25.0297 21.0028 25.0174C21.0051 25.0147 21.0051 25.0147 21.0051 25.0147C21.0183 25.0226 21.05 25.0191 21.0756 25.0069C21.1011 24.9949 21.1684 24.9579 21.1774 24.9684C21.1865 24.9788 21.2337 24.948 21.2532 24.938C21.2532 24.938 21.2532 24.938 21.2646 24.9228C21.2935 24.8842 21.2935 24.8842 21.2935 24.8842C21.3234 24.9048 21.3501 24.9153 21.3526 24.9078C21.3526 24.9078 21.3526 24.9078 21.3537 24.9011C21.3569 24.8813 21.3569 24.8813 21.3569 24.8813C21.3726 24.8797 21.3932 24.8712 21.4026 24.8625C21.412 24.8538 21.4508 24.8297 21.4648 24.8131C21.4787 24.7966 21.525 24.8301 21.5287 24.8265C21.5325 24.8228 21.5629 24.8032 21.587 24.7885C21.611 24.774 21.6757 24.7336 21.6775 24.7315C21.6792 24.7292 21.7042 24.7253 21.7324 24.7222C21.7605 24.7189 21.8329 24.6838 21.8395 24.6869C21.8461 24.6902 21.8769 24.6757 21.9045 24.6589C21.9321 24.6421 22.0176 24.6324 22.0208 24.6312C22.024 24.63 22.034 24.6203 22.0257 24.6162C22.0176 24.6123 22.0159 24.5876 22.037 24.5688C22.0582 24.5499 22.1271 24.5813 22.1307 24.5776C22.1343 24.5737 22.1575 24.5613 22.1731 24.5517C22.1886 24.5422 22.2423 24.5344 22.2495 24.5246C22.2495 24.5246 22.2495 24.5246 22.2572 24.516C22.2633 24.5095 22.2713 24.4994 22.2779 24.4999C22.2974 24.5014 22.2974 24.5014 22.2974 24.5014C22.3187 24.5069 22.3483 24.4949 22.3629 24.4747C22.3629 24.4747 22.3629 24.4747 22.3784 24.4673C22.4 24.4568 22.4 24.4568 22.4 24.4568C22.428 24.4591 22.469 24.4658 22.4911 24.4719C22.513 24.4779 22.5839 24.4229 22.611 24.404C22.638 24.385 22.7398 24.4051 22.7661 24.412C22.7661 24.412 22.7661 24.412 22.788 24.3888C22.799 24.3774 22.8143 24.3684 22.8289 24.365C22.8514 24.3596 22.8514 24.3596 22.8514 24.3596C22.8738 24.3722 22.9076 24.3708 22.9265 24.3565C22.9265 24.3565 22.9265 24.3565 22.9464 24.3473C22.9532 24.3442 22.9665 24.3638 22.9762 24.363C23.0075 24.3607 23.0075 24.3607 23.0075 24.3607C23.0412 24.351 23.0796 24.3405 23.0928 24.3374C23.106 24.3343 23.1467 24.3553 23.1639 24.3478C23.1811 24.3403 23.243 24.3604 23.26 24.3607C23.26 24.3607 23.26 24.3607 23.2756 24.3583C23.2829 24.3572 23.2829 24.3572 23.2829 24.3572C23.2902 24.3527 23.316 24.3497 23.3402 24.3507C23.3645 24.3517 23.4563 24.3918 23.5005 24.3982C23.5447 24.4046 23.7076 24.4111 23.7627 24.4101C23.7627 24.4101 23.7627 24.4101 23.798 24.4598C23.8135 24.4817 23.829 24.4837 23.8474 24.4624C23.8494 24.46 23.8494 24.46 23.8494 24.46C23.8634 24.47 23.8802 24.4809 23.8866 24.4844C23.8932 24.4877 23.9119 24.4847 23.9236 24.4821C23.9352 24.4798 23.9603 24.5074 23.9728 24.5196C23.9854 24.5317 24.0331 24.5827 24.0564 24.6009C24.0798 24.6194 24.1405 24.7268 24.163 24.7792C24.163 24.7792 24.163 24.7792 24.197 24.8179C24.1991 24.8206 24.1991 24.8206 24.1991 24.8206C24.1942 24.8318 24.2013 24.8667 24.215 24.898C24.2287 24.9295 24.2594 25.0204 24.2615 25.0262C24.2636 25.032 24.2717 25.0776 24.2784 25.1112C24.2784 25.1112 24.2784 25.1112 24.2866 25.1412C24.2921 25.1615 24.3298 25.1618 24.3135 25.197C24.2969 25.2332 24.2969 25.2332 24.2969 25.2332C24.3246 25.2435 24.3519 25.2612 24.3577 25.2723C24.3634 25.2835 24.3887 25.3366 24.3995 25.3651C24.3995 25.3651 24.3995 25.3651 24.4163 25.3733C24.4458 25.3879 24.4458 25.3879 24.4458 25.3879C24.4824 25.3951 24.5306 25.4026 24.553 25.4044C24.5754 25.4063 24.6513 25.4033 24.6711 25.4084C24.6711 25.4084 24.6711 25.4084 24.6895 25.4125C24.705 25.416 24.705 25.416 24.705 25.416C24.7223 25.4172 24.7513 25.4116 24.7696 25.4033C24.7879 25.395 24.8785 25.3995 24.8924 25.3835C24.8924 25.3835 24.8924 25.3835 24.9125 25.4112C24.9259 25.4294 24.9263 25.3993 24.9264 25.3899C24.9265 25.355 24.934 25.3383 24.9664 25.3623C24.9713 25.366 24.9713 25.366 24.9713 25.366C24.9799 25.3647 24.9902 25.3474 24.994 25.3276C24.994 25.3276 24.994 25.3276 25.017 25.3493C25.023 25.3552 25.023 25.3552 25.023 25.3552C25.0441 25.3437 25.0657 25.3395 25.071 25.3456C25.0762 25.3518 25.0969 25.369 25.1022 25.3667C25.1022 25.3667 25.1022 25.3667 25.1068 25.3647C25.1499 25.3458 25.1932 25.3272 25.2361 25.3076C25.2619 25.2958 25.2619 25.2958 25.2619 25.2958C25.289 25.2805 25.3247 25.2586 25.3412 25.2471C25.3412 25.2471 25.3412 25.2471 25.3645 25.2606C25.3808 25.2701 25.3808 25.2701 25.3808 25.2701C25.3964 25.2471 25.4157 25.229 25.4235 25.2299C25.4235 25.2299 25.4235 25.2299 25.4306 25.2313C25.4408 25.2333 25.4408 25.2333 25.4408 25.2333C25.4852 25.2232 25.5249 25.2118 25.529 25.2078C25.5329 25.2038 25.5552 25.21 25.5682 25.2277C25.5812 25.2453 25.6201 25.1918 25.6339 25.1915C25.6476 25.1914 25.683 25.1605 25.6926 25.1618C25.7023 25.1632 25.7334 25.1498 25.7394 25.1345C25.7455 25.1191 25.7805 25.1435 25.7835 25.1374C25.7865 25.1314 25.8193 25.1058 25.8437 25.1062C25.8437 25.1062 25.8437 25.1062 25.8694 25.1052C25.8819 25.1047 25.8819 25.1047 25.8819 25.1047C25.8952 25.1007 25.9256 25.0771 25.9496 25.0523C25.9496 25.0523 25.9496 25.0523 25.9833 25.0606C26.0085 25.0668 26.0085 25.0668 26.0085 25.0668C26.0358 25.0616 26.0686 25.0523 26.0813 25.0459C26.0942 25.0396 26.1321 25.012 26.1473 25.0084C26.1473 25.0084 26.1473 25.0084 26.1646 25.0139C26.2042 25.0263 26.233 25.0098 26.2925 24.9598C26.2967 24.9562 26.2967 24.9562 26.2967 24.9562C26.3059 24.959 26.3422 24.9562 26.3774 24.9499C26.3774 24.9499 26.3774 24.9499 26.3978 24.9319C26.4039 24.9267 26.4039 24.9267 26.4039 24.9267C26.4153 24.9275 26.4226 24.9354 26.4201 24.944C26.4201 24.944 26.4201 24.944 26.4191 24.9521C26.4163 24.9719 26.4163 24.9719 26.4163 24.9719C26.421 24.9964 26.4347 24.9942 26.4467 24.967C26.4467 24.967 26.4467 24.967 26.4633 24.9494C26.4806 24.9313 26.4806 24.9313 26.4806 24.9313C26.5062 24.9185 26.5215 24.9189 26.5143 24.9322C26.5071 24.9455 26.529 24.9743 26.5718 24.9598C26.6146 24.9452 26.7195 24.9319 26.7039 24.9254C26.6883 24.9187 26.6361 24.9189 26.6239 24.9312C26.6239 24.9312 26.6239 24.9312 26.6105 24.9385C26.6011 24.9437 26.6011 24.9437 26.6011 24.9437C26.5877 24.9423 26.5769 24.9349 26.5772 24.9271C26.5774 24.9191 26.5983 24.8933 26.6159 24.881C26.6334 24.8687 26.6992 24.8697 26.7036 24.8665C26.7079 24.8633 26.7221 24.848 26.7273 24.8573C26.7326 24.8666 26.7785 24.8688 26.8218 24.8493C26.8218 24.8493 26.8218 24.8493 26.8485 24.8285C26.8684 24.8129 26.8774 24.8134 26.8987 24.827C26.927 24.8451 26.9603 24.8465 26.9872 24.812C26.9963 24.8003 26.9963 24.8003 26.9963 24.8003C27.0144 24.7955 27.042 24.7927 27.0577 24.7937C27.0733 24.7948 27.1308 24.7826 27.1538 24.7987C27.1538 24.7987 27.1538 24.7987 27.1776 24.7765C27.198 24.7576 27.198 24.7576 27.198 24.7576C27.225 24.7514 27.2488 24.7459 27.251 24.7454C27.2531 24.7448 27.2797 24.7459 27.308 24.7455C27.3363 24.7451 27.4164 24.7392 27.4232 24.733C27.43 24.7268 27.4687 24.7237 27.4913 24.7439C27.5139 24.7639 27.601 24.723 27.6156 24.7211C27.6156 24.7211 27.6156 24.7211 27.6283 24.7242C27.6425 24.7279 27.6597 24.7459 27.6683 24.741C27.6795 24.7349 27.6813 24.7103 27.6913 24.6977C27.6989 24.6882 27.6989 24.6882 27.6989 24.6882C27.7126 24.6837 27.7305 24.6847 27.7388 24.6904C27.7469 24.6961 27.771 24.6925 27.7775 24.6857C27.7839 24.6792 27.8083 24.6676 27.8158 24.6725C27.8158 24.6725 27.8158 24.6725 27.823 24.6732C27.8453 24.6752 27.8732 24.6846 27.8891 24.6735C27.9146 24.6558 27.9336 24.6444 27.959 24.6682C27.9625 24.6714 27.9625 24.6714 27.9625 24.6714C27.9682 24.6721 27.9818 24.6619 27.9927 24.6489C28.0036 24.6359 28.0668 24.6538 28.0846 24.6547C28.1024 24.6554 28.1493 24.6412 28.1511 24.6228C28.153 24.6044 28.2035 24.6256 28.2187 24.638C28.2339 24.6504 28.3087 24.6486 28.3194 24.6559C28.33 24.6634 28.358 24.6371 28.3675 24.6412C28.3771 24.6453 28.4098 24.6446 28.4208 24.631C28.4317 24.6176 28.4773 24.5957 28.5025 24.6069C28.5025 24.6069 28.5025 24.6069 28.5162 24.6193C28.5609 24.6596 28.5609 24.6596 28.5609 24.6596C28.5452 24.6214 28.5503 24.6018 28.5724 24.6161C28.5945 24.6302 28.6624 24.6412 28.669 24.6477C28.6756 24.6543 28.6991 24.6682 28.7031 24.6596C28.7071 24.651 28.734 24.6015 28.7499 24.5696C28.7499 24.5696 28.7499 24.5696 28.7887 24.6054C28.8112 24.6262 28.8531 24.5993 28.8787 24.633C28.8829 24.6385 28.8829 24.6385 28.8829 24.6385C28.8966 24.6355 28.9203 24.6239 28.9357 24.6126C28.951 24.6012 29.0002 24.6035 29.0287 24.6074C29.0287 24.6074 29.0287 24.6074 29.0538 24.6103C29.0688 24.6123 29.0688 24.6123 29.0688 24.6123C29.0862 24.6064 29.1157 24.5986 29.1345 24.5947C29.1532 24.5909 29.2443 24.6052 29.2591 24.6021C29.2739 24.599 29.3173 24.5947 29.3194 24.6016C29.3216 24.6086 29.3421 24.6313 29.3582 24.6297C29.3742 24.6282 29.3865 24.5777 29.3905 24.5772C29.3946 24.5767 29.4374 24.5882 29.4782 24.5996C29.4782 24.5996 29.4782 24.5996 29.514 24.5882C29.5237 24.5851 29.5237 24.5851 29.5237 24.5851C29.5336 24.5807 29.5632 24.5836 29.5896 24.5915C29.6158 24.5995 29.7011 24.5965 29.7289 24.6165C29.7289 24.6165 29.7289 24.6165 29.7549 24.5879C29.7725 24.5686 29.7817 24.5553 29.7864 24.5981C29.7887 24.6184 29.8099 24.6144 29.8252 24.6003C29.839 24.5877 29.839 24.5877 29.839 24.5877C29.8596 24.587 29.8909 24.58 29.9087 24.5719C29.9087 24.5719 29.9088 24.5719 29.9266 24.5674C29.9313 24.5662 29.9313 24.5662 29.9313 24.5662C29.9385 24.5768 29.951 24.592 29.959 24.6002C29.9671 24.6083 30.0085 24.6088 30.034 24.6081C30.034 24.6081 30.034 24.6081 30.038 24.6039C30.0628 24.5779 30.0628 24.5779 30.0628 24.5779C30.0814 24.5954 30.1066 24.6058 30.1186 24.6011C30.1186 24.6011 30.1186 24.6011 30.1298 24.5954C30.1466 24.5869 30.1466 24.5869 30.1466 24.5869C30.1904 24.5822 30.2447 24.5722 30.2671 24.5649C30.2894 24.5574 30.3658 24.5751 30.39 24.5834C30.39 24.5834 30.39 24.5834 30.4101 24.5659C30.4291 24.5494 30.4291 24.5494 30.4291 24.5494C30.4485 24.5574 30.4893 24.562 30.5198 24.5596C30.5502 24.5571 30.6301 24.5678 30.6411 24.5576C30.6411 24.5576 30.6411 24.5576 30.6508 24.5514C30.6536 24.5497 30.6536 24.5497 30.6536 24.5497C30.6571 24.5456 30.6617 24.5484 30.664 24.5558C30.6663 24.5633 30.6871 24.5746 30.7017 24.5537C30.7163 24.5328 30.7972 24.5575 30.8206 24.5524C30.844 24.5473 30.8991 24.5866 30.9003 24.5854C30.9014 24.5842 30.9219 24.5737 30.9425 24.5636C30.963 24.5535 31.0918 24.5615 31.1103 24.5639C31.1103 24.5639 31.1103 24.5639 31.1256 24.5578C31.1305 24.5558 31.1305 24.5558 31.1305 24.5558C31.1334 24.5345 31.1416 24.5256 31.1486 24.5359C31.1558 24.5463 31.1851 24.5609 31.196 24.5618C31.2069 24.5629 31.2494 24.5436 31.2742 24.5311C31.299 24.5188 31.3764 24.5343 31.3885 24.539C31.4005 24.5437 31.4544 24.5356 31.4758 24.5432C31.4758 24.5432 31.4758 24.5432 31.4953 24.5416C31.5041 24.5409 31.5041 24.5409 31.5041 24.5409C31.5129 24.5191 31.5299 24.5109 31.5418 24.5228C31.5538 24.5346 31.5881 24.5324 31.5977 24.5235C31.6073 24.5146 31.656 24.5217 31.6797 24.5014C31.6797 24.5014 31.6797 24.5014 31.6995 24.5409C31.6998 24.5414 31.6998 24.5414 31.6998 24.5414C31.7033 24.5399 31.7259 24.5341 31.7497 24.5286C31.7735 24.523 31.8291 24.513 31.8421 24.5088C31.855 24.5044 31.9003 24.5108 31.9137 24.524C31.9271 24.5371 31.9779 24.5053 31.9963 24.5127C32.0147 24.5201 32.0781 24.5011 32.0906 24.501C32.1031 24.501 32.1444 24.5169 32.1592 24.5236C32.1592 24.5236 32.1592 24.5236 32.175 24.5101C32.1827 24.5032 32.1983 24.5019 32.2083 24.5055C32.23 24.5129 32.23 24.5129 32.23 24.5129C32.2528 24.5244 32.291 24.5309 32.3149 24.5273C32.3149 24.5273 32.3149 24.5273 32.3362 24.5211C32.3677 24.5116 32.3677 24.5116 32.3677 24.5116C32.4022 24.5163 32.4605 24.5138 32.497 24.506C32.497 24.506 32.497 24.506 32.5228 24.5418L32.5748 24.5139C32.5788 24.5096 32.5788 24.5096 32.5788 24.5096C32.583 24.5052 32.6199 24.5051 32.6609 24.5092C32.7018 24.5134 32.8104 24.5484 32.8179 24.55C32.8256 24.5517 32.8692 24.5346 32.8935 24.5216C32.9179 24.5088 32.9868 24.541 32.9902 24.5417C32.9936 24.5424 33.0283 24.5475 33.0596 24.5521C33.0909 24.5566 33.1741 24.6045 33.1752 24.5984C33.1762 24.592 33.1791 24.5687 33.182 24.5587C33.1849 24.5488 33.2222 24.5621 33.242 24.5588C33.2619 24.5553 33.3152 24.5613 33.3103 24.5865C33.3054 24.6116 33.3904 24.6214 33.3881 24.6115C33.3858 24.6015 33.3881 24.572 33.3981 24.568C33.4082 24.564 33.4391 24.5744 33.4557 24.5824C33.4723 24.5905 33.535 24.5794 33.5484 24.5839C33.5619 24.5885 33.609 24.6032 33.6218 24.6079C33.6347 24.6126 33.6733 24.6005 33.6851 24.5903C33.6969 24.58 33.7357 24.6105 33.7449 24.6107C33.754 24.6109 33.7882 24.6041 33.8003 24.6065C33.8124 24.6088 33.8525 24.6283 33.8675 24.6327C33.8675 24.6327 33.8675 24.6327 33.883 24.6216C33.8885 24.6178 33.8885 24.6178 33.8885 24.6178C33.9038 24.6318 33.8993 24.6582 33.8784 24.6763C33.8784 24.6763 33.8784 24.6763 33.9241 24.6788C33.946 24.68 33.9651 24.6792 33.96 24.6447C33.9568 24.6225 33.9568 24.6225 33.9568 24.6225C33.9729 24.6158 34.0062 24.6178 34.0308 24.6269C34.0308 24.6269 34.0308 24.6269 34.039 24.6496C34.0471 24.6723 34.0309 24.6805 34.0106 24.6804C34.0085 24.6804 34.0085 24.6804 34.0085 24.6804C34.006 24.7003 34.0162 24.7184 34.0312 24.7203C34.0312 24.7203 34.0312 24.7203 34.0373 24.7137C34.0522 24.6973 34.0594 24.6704 34.0759 24.6578C34.0917 24.6456 34.0917 24.6456 34.0917 24.6456C34.1175 24.6425 34.1391 24.651 34.1398 24.6644C34.1404 24.6779 34.1595 24.7263 34.1807 24.741C34.2019 24.756 34.2642 24.7237 34.266 24.7235C34.2677 24.7233 34.2938 24.7308 34.3197 24.7394C34.3457 24.7481 34.4119 24.7361 34.4033 24.7431C34.3949 24.7498 34.3823 24.7918 34.3814 24.8163C34.3814 24.8163 34.3814 24.8163 34.3814 24.8387C34.3814 24.8646 34.3814 24.8646 34.3814 24.8646C34.3814 24.893 34.3932 24.9224 34.4076 24.9298C34.4219 24.9371 34.4581 24.9756 34.4572 24.9994C34.4563 25.023 34.402 25.0471 34.402 25.0312C34.402 25.0154 34.3954 24.9651 34.3873 24.9755C34.3792 24.9861 34.3639 25.0228 34.3645 25.0426C34.3652 25.0625 34.4084 25.1014 34.4271 25.0937C34.4458 25.0861 34.498 25.0767 34.4906 25.0942C34.4832 25.1117 34.4885 25.1487 34.4923 25.1617C34.4961 25.1746 34.5075 25.2224 34.5135 25.2375C34.5135 25.2375 34.5135 25.2375 34.521 25.239C34.5457 25.2437 34.547 25.2602 34.5379 25.2773C34.5289 25.294 34.5289 25.294 34.5289 25.294C34.5032 25.2789 34.4808 25.2627 34.4792 25.258C34.4776 25.2533 34.4667 25.2381 34.4644 25.254C34.4622 25.2698 34.447 25.3092 34.4377 25.2903C34.4283 25.2714 34.4231 25.2435 34.4216 25.2328C34.4202 25.2218 34.4019 25.1997 34.3943 25.2116C34.3869 25.2233 34.3736 25.2555 34.3619 25.263C34.3502 25.2703 34.307 25.31 34.2737 25.3165C34.2737 25.3165 34.2737 25.3165 34.2412 25.3093C34.209 25.3021 34.209 25.3021 34.209 25.3021C34.1717 25.3043 34.1371 25.3012 34.1321 25.2952C34.1272 25.289 34.1034 25.2748 34.0937 25.2819C34.0839 25.289 34.05 25.3145 34.0433 25.3232C34.0365 25.332 33.9991 25.3188 33.9853 25.3295C33.9715 25.3401 33.914 25.3202 33.8992 25.3322C33.8845 25.3443 33.8295 25.3042 33.8111 25.2999C33.7927 25.2958 33.7308 25.3191 33.7055 25.3087C33.7055 25.3087 33.7055 25.3087 33.6805 25.3076C33.6627 25.3069 33.6627 25.3069 33.6627 25.3069C33.6424 25.3077 33.6213 25.3075 33.6158 25.3064C33.6102 25.3054 33.5469 25.3104 33.4857 25.313C33.4246 25.3155 33.2474 25.3255 33.2273 25.3196C33.2072 25.314 33.1201 25.3269 33.0847 25.3266C33.0847 25.3266 33.0847 25.3266 33.0552 25.3149C33.0362 25.3073 33.0362 25.3073 33.0362 25.3073C33.0232 25.3151 33 25.3274 32.9845 25.3346C32.9845 25.3346 32.9845 25.3346 32.9766 25.329C32.9215 25.2902 32.9215 25.2902 32.9215 25.2902C32.8566 25.3008 32.7856 25.3051 32.7635 25.3002C32.7414 25.295 32.6596 25.3054 32.6359 25.3056C32.6122 25.306 32.529 25.3074 32.5042 25.3064C32.4793 25.3056 32.418 25.2913 32.4096 25.3253C32.4096 25.3253 32.4096 25.3253 32.3738 25.3068C32.3474 25.2932 32.3474 25.2932 32.3474 25.2932C32.3201 25.2999 32.2775 25.2999 32.2527 25.293C32.2527 25.293 32.2527 25.293 32.233 25.2998C32.2091 25.308 32.2091 25.308 32.2091 25.308C32.1878 25.3009 32.1607 25.3032 32.1491 25.3131C32.1373 25.3229 32.0856 25.2799 32.0578 25.2659C32.03 25.252 31.9423 25.3056 31.9156 25.3054C31.8888 25.3049 31.8116 25.3031 31.7995 25.2919C31.7874 25.2805 31.7306 25.3032 31.7146 25.3062C31.6987 25.3092 31.6478 25.311 31.6364 25.3169C31.6249 25.3227 31.5763 25.3172 31.5605 25.3153C31.5446 25.3137 31.4909 25.3105 31.4762 25.3143C31.4615 25.3183 31.4253 25.2931 31.4226 25.2926C31.4199 25.2919 31.3689 25.307 31.3141 25.3238C31.2593 25.3406 31.1535 25.3266 31.1393 25.3271C31.1252 25.3276 31.0612 25.3324 31.0268 25.3384C30.9923 25.3442 30.8612 25.3107 30.8082 25.3062C30.7553 25.3018 30.6156 25.3471 30.6093 25.3462C30.6031 25.3452 30.5493 25.3303 30.5035 25.3178C30.5035 25.3178 30.5035 25.3178 30.4659 25.345C30.4482 25.3577 30.4386 25.3133 30.4213 25.3455C30.4103 25.3657 30.4103 25.3657 30.4103 25.3657C30.3942 25.3499 30.3066 25.3332 30.2154 25.3284C30.2154 25.3284 30.2154 25.3284 30.1336 25.337C30.1127 25.3391 30.1127 25.3391 30.1127 25.3391C30.0926 25.3367 30.0515 25.3305 30.0214 25.3251C30.0214 25.3251 30.0214 25.3251 30.0127 25.3379C29.9929 25.3669 29.983 25.3226 29.9674 25.338C29.9446 25.3605 29.9235 25.3297 29.9014 25.3267C29.8777 25.3234 29.8777 25.3234 29.8777 25.3234C29.8544 25.3289 29.8249 25.345 29.8121 25.359C29.7993 25.3731 29.7468 25.344 29.7295 25.3523C29.7122 25.3606 29.6557 25.3248 29.6383 25.3182C29.6209 25.3116 29.5784 25.3448 29.5754 25.3457C29.5724 25.3466 29.5243 25.3381 29.4715 25.3301C29.4715 25.3301 29.4715 25.3301 29.4229 25.3412C29.3987 25.3468 29.3987 25.3468 29.3987 25.3468C29.3727 25.3462 29.3377 25.3523 29.3212 25.3603C29.3045 25.3682 29.2472 25.3337 29.2173 25.3366C29.1873 25.3395 29.0797 25.3461 29.0438 25.3379C29.0438 25.3379 29.0438 25.3379 29.0139 25.3694C29.0076 25.3758 29.0076 25.3758 29.0076 25.3758C28.9847 25.3641 28.925 25.353 28.875 25.3514C28.8251 25.3497 28.6863 25.3812 28.6732 25.3732C28.6601 25.3651 28.6113 25.3891 28.5983 25.395C28.5855 25.4009 28.5511 25.3808 28.5487 25.3822C28.5462 25.3838 28.5211 25.396 28.4988 25.407C28.4988 25.407 28.4988 25.407 28.4778 25.4097C28.4623 25.4119 28.4623 25.4119 28.4623 25.4119C28.4441 25.4044 28.4141 25.3986 28.3955 25.3986C28.3955 25.3986 28.3955 25.3986 28.3826 25.4068C28.3573 25.423 28.3573 25.423 28.3573 25.423C28.3325 25.4131 28.3015 25.4063 28.288 25.4076C28.2746 25.409 28.2303 25.4195 28.2191 25.4339C28.208 25.4487 28.1588 25.419 28.1458 25.4163C28.1326 25.4139 28.0902 25.4423 28.0714 25.4459C28.0526 25.4497 27.9849 25.4463 27.9662 25.4487C27.9474 25.4508 27.8616 25.466 27.8173 25.4717C27.7731 25.4776 27.6347 25.4855 27.6089 25.4842C27.583 25.4831 27.5103 25.5125 27.4923 25.5132C27.4743 25.514 27.4086 25.5298 27.3865 25.5321C27.3643 25.5346 27.2879 25.5514 27.2665 25.5503C27.2453 25.5492 27.1726 25.5841 27.1466 25.5923C27.1206 25.6004 27.024 25.6016 26.9945 25.6032C26.9649 25.6046 26.8823 25.6377 26.8719 25.6403C26.8615 25.6429 26.8204 25.6441 26.8036 25.6442C26.7868 25.6442 26.7409 25.6697 26.726 25.6716C26.7112 25.6735 26.6439 25.6905 26.6087 25.7055C26.5736 25.7203 26.4449 25.7498 26.4073 25.7565C26.3699 25.7631 26.2736 25.8124 26.2612 25.8011C26.2488 25.7898 26.2144 25.8243 26.2051 25.8233C26.1957 25.8224 26.1605 25.8389 26.1476 25.8443C26.1346 25.8499 26.0949 25.8737 26.0829 25.8774C26.0709 25.8813 26.0191 25.9026 25.9899 25.9131C25.9607 25.9235 25.8612 25.9649 25.8319 25.9757C25.8026 25.9864 25.679 26.0357 25.6249 26.068C25.6249 26.068 25.6249 26.068 25.5699 26.0796C25.5467 26.0844 25.5467 26.0844 25.5467 26.0844C25.5202 26.0922 25.4882 26.1056 25.4758 26.114C25.4634 26.1225 25.4203 26.1314 25.4071 26.1363C25.3941 26.1411 25.3441 26.1541 25.3239 26.1495C25.3036 26.145 25.1976 26.2054 25.1221 26.2333C25.1221 26.2333 25.1221 26.2333 25.0491 26.2379C25.0283 26.2393 25.0066 26.2363 24.9867 26.2417C24.963 26.2483 24.9414 26.2671 24.9177 26.2708C24.9018 26.2731 24.9018 26.2731 24.9018 26.2731C24.8825 26.261 24.8565 26.2607 24.844 26.2725C24.8316 26.2843 24.776 26.2608 24.7624 26.2545C24.7487 26.2485 24.7053 26.2306 24.6966 26.2277C24.6878 26.2247 24.6628 26.2302 24.6534 26.2228C24.6441 26.2154 24.6046 26.2327 24.5944 26.2386C24.5841 26.2445 24.5195 26.2294 24.4697 26.2107C24.4697 26.2107 24.4697 26.2107 24.4254 26.1906C24.4204 26.1884 24.4204 26.1884 24.4204 26.1884C24.4191 26.1726 24.411 26.1668 24.4025 26.1759C24.3942 26.1848 24.3417 26.1981 24.309 26.181C24.2764 26.1639 24.196 26.0538 24.1853 26.0132C24.1853 26.0132 24.1853 26.0132 24.1389 25.9997C24.116 25.9931 24.116 25.9931 24.116 25.9931C24.1001 25.9456 24.0792 25.8919 24.0695 25.8739C24.0597 25.8557 24.0222 25.7881 24.0029 25.7663C23.9837 25.7445 23.9797 25.6597 23.9764 25.6565C23.9731 25.6532 23.957 25.6415 23.949 25.6374C23.9409 25.6334 23.9155 25.587 23.8934 25.5457C23.8934 25.5457 23.8934 25.5457 23.8503 25.5261C23.8131 25.5092 23.7851 25.4686 23.7498 25.4442C23.7398 25.4373 23.7189 25.4513 23.7028 25.454C23.677 25.4585 23.6505 25.4591 23.6253 25.4657C23.5982 25.4726 23.5982 25.4726 23.5982 25.4726C23.5699 25.4855 23.5364 25.5001 23.5239 25.5051C23.5114 25.51 23.4721 25.5025 23.4605 25.496C23.4488 25.4894 23.4187 25.5243 23.3979 25.5204C23.3979 25.5204 23.3979 25.5204 23.379 25.519C23.3543 25.5172 23.3278 25.5112 23.3049 25.5184C23.2629 25.5315 23.2629 25.5315 23.2629 25.5315C23.2165 25.5466 23.1644 25.5595 23.1472 25.5603C23.1299 25.561 23.109 25.6152 23.095 25.6202C23.0812 25.6253 23.031 25.6397 23.0143 25.6408C22.9978 25.6419 22.9394 25.661 22.9145 25.6751C22.8897 25.6892 22.8115 25.6918 22.8076 25.6934C22.8036 25.6951 22.7897 25.7102 22.7775 25.7212C22.7653 25.732 22.7107 25.7537 22.6967 25.7653C22.6826 25.7771 22.6159 25.7873 22.5919 25.7969C22.568 25.8064 22.4953 25.8434 22.4798 25.844C22.4643 25.8446 22.4181 25.8618 22.3886 25.8424C22.3886 25.8424 22.3886 25.8424 22.3969 25.9022C22.3974 25.9053 22.3879 25.9133 22.3825 25.9138C22.3528 25.9171 22.3528 25.9171 22.3528 25.9171C22.329 25.9388 22.2932 25.9625 22.273 25.9696C22.2529 25.9768 22.1803 25.9994 22.1578 26.0079C22.1353 26.0166 22.067 26.0414 22.0564 26.0451C22.046 26.0486 22.0188 26.0726 22.0013 26.0557C21.984 26.0388 21.9479 26.1093 21.9392 26.1172C21.9392 26.1172 21.9392 26.1172 21.9322 26.1157C21.8934 26.1079 21.8669 26.1396 21.8342 26.1501C21.8171 26.1556 21.8171 26.1556 21.8171 26.1556C21.8033 26.1672 21.7866 26.1757 21.7802 26.1748C21.7737 26.1738 21.7565 26.1824 21.7565 26.1961C21.7566 26.2096 21.7212 26.192 21.7141 26.196C21.7071 26.1998 21.6649 26.2006 21.6373 26.1944C21.6373 26.1944 21.6373 26.1944 21.6297 26.2423C21.6259 26.2659 21.6259 26.2659 21.6259 26.2659C21.5916 26.2703 21.5411 26.278 21.5137 26.2832C21.4863 26.2882 21.4196 26.3345 21.4124 26.3315C21.4052 26.3287 21.3341 26.3276 21.2713 26.3364C21.2713 26.3364 21.2713 26.3364 21.2523 26.4163C21.2445 26.4494 21.2445 26.4494 21.2445 26.4494C21.2309 26.4287 21.2042 26.4188 21.1852 26.4272C21.166 26.4355 21.0987 26.4702 21.0794 26.4919C21.0794 26.4919 21.0794 26.4919 21.0602 26.4542C21.0591 26.4522 21.0413 26.4571 21.0348 26.4631C21.0002 26.4963 21.0002 26.4963 21.0002 26.4963C20.9604 26.5084 20.9151 26.5275 20.8997 26.5391C20.8842 26.5506 20.8218 26.5426 20.7958 26.5672C20.7958 26.5672 20.7958 26.5672 20.7615 26.5662C20.7413 26.5657 20.7678 26.6135 20.733 26.6021C20.7198 26.5977 20.7198 26.5977 20.7198 26.5977C20.7043 26.5976 20.6848 26.6047 20.6761 26.6136C20.6675 26.6224 20.6376 26.6024 20.625 26.61C20.6123 26.6178 20.5705 26.6573 20.5613 26.6833C20.5613 26.6833 20.5613 26.6833 20.5276 26.6671C20.5173 26.6622 20.5173 26.6622 20.5173 26.6622C20.4961 26.6823 20.4653 26.6999 20.4486 26.7013C20.4486 26.7013 20.4486 26.7013 20.4347 26.6994C20.4162 26.6969 20.4162 26.6969 20.4162 26.6969C20.3966 26.6993 20.3299 26.7178 20.2678 26.7382C20.2678 26.7382 20.2678 26.7382 20.2166 26.7719C20.2072 26.778 20.2036 26.7956 20.1875 26.7784C20.1693 26.7589 20.1693 26.7589 20.1693 26.7589C20.1582 26.7785 20.1378 26.8025 20.124 26.8121C20.124 26.8121 20.124 26.8121 20.1097 26.8125C20.0799 26.8134 20.0799 26.8134 20.0799 26.8134C20.0528 26.8304 20.0284 26.8473 20.0256 26.8511C20.0228 26.8548 19.9867 26.8647 19.951 26.8738C19.951 26.8738 19.951 26.8738 19.9188 26.896C19.8896 26.9161 19.8896 26.9161 19.8896 26.9161C19.8504 26.9335 19.8142 26.941 19.8092 26.9328C19.8042 26.9245 19.7726 26.9339 19.7616 26.925C19.7506 26.9159 19.7362 26.9621 19.7244 26.9649C19.7244 26.9649 19.7244 26.9649 19.713 26.9644C19.7058 26.9641 19.7058 26.9641 19.7058 26.9641C19.698 26.9589 19.6765 26.9676 19.658 26.9837C19.658 26.9837 19.658 26.9837 19.639 26.996C19.6172 27.0102 19.5982 27.0138 19.5755 27.016C19.5639 27.0172 19.5639 27.0172 19.5639 27.0172C19.5518 27.0258 19.5257 27.0511 19.5061 27.0735C19.4866 27.0958 19.4056 27.0626 19.3908 27.0643C19.376 27.066 19.3359 27.0955 19.3188 27.1001C19.3016 27.1048 19.2454 27.123 19.23 27.1195C19.2145 27.1161 19.1887 27.1663 19.1704 27.1692C19.1521 27.1724 19.1016 27.1566 19.0913 27.1493C19.0809 27.1421 19.0511 27.187 19.0355 27.1961C19.0198 27.2052 19.0005 27.1982 18.9934 27.1888C18.9865 27.1793 18.9444 27.2004 18.9299 27.2102C18.9154 27.2199 18.8718 27.234 18.8657 27.2199C18.8596 27.206 18.8145 27.2333 18.8027 27.2413C18.8027 27.2413 18.8027 27.2413 18.8009 27.2391C18.7723 27.2045 18.7589 27.2373 18.7414 27.2537C18.7385 27.2565 18.7385 27.2565 18.7385 27.2565C18.7326 27.2554 18.7196 27.2617 18.7097 27.2704C18.6997 27.2791 18.6701 27.2539 18.6673 27.247C18.6646 27.2401 18.6452 27.2311 18.6325 27.2494C18.6198 27.2679 18.569 27.2507 18.5714 27.245C18.5738 27.2394 18.5645 27.2289 18.5453 27.2342C18.5262 27.2397 18.4664 27.2186 18.4536 27.2151C18.4408 27.2117 18.3922 27.2158 18.3775 27.2155C18.3628 27.2155 18.27 27.2153 18.2036 27.2122C18.1372 27.2092 17.9798 27.1597 17.9725 27.1427C17.9652 27.1256 17.8891 27.1121 17.8595 27.0976C17.8595 27.0976 17.8595 27.0976 17.8455 27.073C17.828 27.0425 17.828 27.0425 17.828 27.0425C17.8015 27.0214 17.7771 27 17.7738 26.9946C17.7705 26.9893 17.7458 26.9733 17.7292 26.964C17.7127 26.9546 17.6751 26.8983 17.6628 26.8854C17.6507 26.8724 17.6505 26.8084 17.6401 26.7907C17.6295 26.7729 17.6136 26.7108 17.6177 26.6972C17.6219 26.6834 17.5863 26.6697 17.5858 26.6635C17.5858 26.6635 17.5858 26.6635 17.5875 26.6589C17.5998 26.6248 17.5838 26.6027 17.5598 26.5895C17.5468 26.5823 17.5468 26.5823 17.5468 26.5823C17.5493 26.5748 17.5635 26.5587 17.5781 26.5464C17.5781 26.5464 17.5781 26.5464 17.5807 26.5243C17.5825 26.5093 17.5825 26.5093 17.5825 26.5093C17.5953 26.4819 17.593 26.4689 17.5773 26.4802C17.5616 26.4917 17.5256 26.5132 17.5226 26.5095C17.5197 26.5058 17.535 26.4586 17.5407 26.4392C17.5464 26.4198 17.5155 26.3691 17.5101 26.3605C17.5048 26.3519 17.5011 26.3193 17.4806 26.3089C17.4806 26.3089 17.4806 26.3089 17.4815 26.303C17.4872 26.264 17.4872 26.264 17.4872 26.264C17.4725 26.2285 17.4543 26.1688 17.4469 26.1312C17.4394 26.0937 17.3882 25.9876 17.3832 25.9655C17.3832 25.9655 17.3832 25.9655 17.3769 25.9459C17.367 25.9154 17.367 25.9154 17.367 25.9154C17.3518 25.8839 17.3264 25.7946 17.3103 25.717C17.3103 25.717 17.3103 25.717 17.3106 25.7101C17.3117 25.6825 17.3187 25.6525 17.3119 25.6273C17.2875 25.5367 17.2875 25.5367 17.2875 25.5367C17.2994 25.4376 17.3047 25.3441 17.2991 25.3291C17.2991 25.3291 17.2991 25.3291 17.3019 25.3164C17.3056 25.2998 17.3056 25.2998 17.3056 25.2998C17.3126 25.2824 17.3229 25.2298 17.3283 25.1832C17.3283 25.1832 17.3283 25.1832 17.3921 25.1017C17.3945 25.0988 17.3944 25.0988 17.3944 25.0988C17.3929 25.092 17.3955 25.0759 17.4002 25.0632C17.4048 25.0503 17.392 25.0159 17.4031 25.0078C17.414 24.9995 17.4387 24.9252 17.4625 24.8816C17.4625 24.8816 17.4625 24.8816 17.476 24.8412C17.4853 24.8136 17.4895 24.7849 17.5113 24.7679C17.5447 24.7418 17.5447 24.7418 17.5447 24.7418C17.5414 24.6985 17.5479 24.661 17.5593 24.6586C17.5706 24.656 17.6001 24.6437 17.5907 24.6387C17.5814 24.6337 17.5631 24.618 17.5706 24.6149C17.5782 24.6118 17.5958 24.6017 17.5948 24.5987C17.5938 24.5956 17.5806 24.582 17.5695 24.5737C17.5584 24.5654 17.5028 24.583 17.4805 24.5928C17.4582 24.6026 17.3778 24.6418 17.3474 24.6506C17.317 24.6593 17.2462 24.7141 17.2389 24.7093C17.2389 24.7093 17.2389 24.7093 17.2318 24.7046L17.1608 24.7321C17.1446 24.7428 17.129 24.7544 17.1122 24.7635C17.101 24.7696 17.101 24.7696 17.101 24.7696C17.0873 24.7752 17.0727 24.7937 17.0684 24.8107C17.0684 24.8107 17.0684 24.8107 17.0486 24.8135C17.0367 24.8154 17.0367 24.8154 17.0367 24.8154C17.0243 24.8224 16.9876 24.8384 16.9551 24.8509C16.9226 24.8634 16.8298 24.9307 16.8078 24.94C16.8078 24.94 16.8078 24.94 16.7875 24.9484C16.7701 24.9555 16.7701 24.9555 16.7701 24.9555C16.7516 24.9644 16.7099 24.99 16.6777 25.0123C16.6454 25.0348 16.5321 25.1034 16.4996 25.12C16.4672 25.1365 16.3721 25.1904 16.3617 25.2057C16.3513 25.2209 16.302 25.2446 16.2863 25.2522C16.2706 25.2598 16.2132 25.285 16.1937 25.2921C16.1741 25.299 16.1219 25.3221 16.1226 25.3279C16.1233 25.3337 16.0906 25.3713 16.0479 25.3952C16.0052 25.4192 15.8472 25.5075 15.7912 25.5382C15.7912 25.5382 15.7912 25.5382 15.7496 25.5874C15.7251 25.6164 15.705 25.652 15.6753 25.6762C15.6468 25.6993 15.6468 25.6993 15.6468 25.6993C15.6165 25.7261 15.5704 25.7719 15.5445 25.801C15.5186 25.83 15.4163 25.8813 15.4042 25.8927C15.3922 25.9043 15.3505 25.9257 15.3331 25.9182C15.3331 25.9182 15.3331 25.9182 15.3182 25.9147C15.2873 25.9072 15.2873 25.9072 15.2873 25.9072C15.2529 25.9009 15.2122 25.9043 15.1968 25.9146C15.1813 25.9249 15.1401 25.8957 15.1377 25.8989C15.1352 25.902 15.1085 25.9062 15.0849 25.9063C15.0849 25.9063 15.0849 25.9063 15.0912 25.8739C15.093 25.8639 15.0993 25.8552 15.1021 25.8453C15.1106 25.8156 15.1278 25.7877 15.0791 25.7733C15.0585 25.7672 15.0257 25.7397 15.0306 25.6976C15.0334 25.673 15.0201 25.6716 15.0024 25.6648C14.9883 25.6593 14.9883 25.6593 14.9883 25.6593C14.9791 25.6349 14.9427 25.5794 14.9071 25.5359C14.9071 25.5359 14.9071 25.5359 14.9299 25.4763C14.9304 25.475 14.9304 25.475 14.9304 25.475C14.9265 25.4714 14.8984 25.444 14.8682 25.4139C14.8682 25.4139 14.8682 25.4139 14.8649 25.3615C14.8623 25.3195 14.8623 25.3195 14.8623 25.3195C14.8388 25.2746 14.8167 25.2163 14.8131 25.1902C14.8094 25.164 14.82 25.082 14.8291 25.0642C14.8291 25.0642 14.8291 25.0642 14.8103 25.0466C14.8074 25.044 14.8081 25.0292 14.8116 25.0261C14.8224 25.0164 14.8224 25.0164 14.8224 25.0164C14.8362 25.0082 14.8406 24.9905 14.8321 24.9769C14.8321 24.9769 14.8321 24.9769 14.8472 24.9611C14.8554 24.9526 14.8596 24.9367 14.8613 24.9234C14.8629 24.9107 14.8541 24.8945 14.8585 24.8845C14.8652 24.8685 14.8796 24.857 14.8901 24.8428C14.9122 24.8126 14.9122 24.8126 14.9122 24.8126C14.9367 24.7802 14.9501 24.7405 14.942 24.7244C14.9338 24.7084 14.9852 24.6905 14.9953 24.6776C15.0054 24.6646 15.048 24.649 15.0466 24.6418C15.0455 24.6346 15.0651 24.6052 15.0777 24.5897C15.0902 24.5741 15.1334 24.5416 15.1391 24.5359C15.1446 24.5302 15.1547 24.5006 15.158 24.4924C15.1613 24.4842 15.1854 24.4613 15.2049 24.441C15.2245 24.4207 15.3009 24.3928 15.3128 24.3862C15.3247 24.3795 15.3504 24.335 15.3635 24.324C15.3764 24.3131 15.4057 24.2779 15.4081 24.2858C15.4105 24.2935 15.422 24.3045 15.4241 24.2802C15.4264 24.2557 15.4903 24.2063 15.5175 24.1764C15.5175 24.1764 15.5175 24.1764 15.5564 24.1988C15.5594 24.2005 15.5686 24.1932 15.5723 24.1879C15.5841 24.1711 15.5951 24.1537 15.6057 24.136C15.6186 24.1143 15.6267 24.1276 15.6421 24.1357C15.6614 24.146 15.6855 24.1423 15.6577 24.1082C15.6568 24.107 15.674 24.0833 15.6856 24.0755C15.6916 24.0716 15.7097 24.0857 15.7126 24.082C15.7571 24.0269 15.757 24.0269 15.757 24.0269C15.8229 24.0015 15.8813 23.971 15.8868 23.9591C15.8868 23.9591 15.8868 23.9591 15.8944 23.9503C15.8978 23.9463 15.8978 23.9463 15.8978 23.9463C15.9067 23.9481 15.9284 23.9575 15.946 23.9674C15.946 23.9674 15.946 23.9674 15.9524 23.9452C15.9559 23.9331 15.9559 23.9331 15.9559 23.9331C15.9445 23.9107 15.9458 23.8932 15.9588 23.8943C15.9719 23.8955 16.0152 23.8879 16.0289 23.8838C16.0426 23.8797 16.0851 23.8331 16.1018 23.8011C16.1018 23.8011 16.1018 23.8011 16.1241 23.7855C16.1357 23.7775 16.1357 23.7775 16.1357 23.7775C16.1628 23.7787 16.2207 23.7691 16.2645 23.756C16.2645 23.756 16.2645 23.7561 16.276 23.7021C16.2764 23.7004 16.2892 23.7018 16.2962 23.7024C16.3076 23.7036 16.3227 23.7111 16.3296 23.7056C16.3422 23.6956 16.3422 23.6956 16.3422 23.6956C16.3399 23.6756 16.3536 23.6631 16.3727 23.6678C16.3727 23.6678 16.3727 23.6678 16.3881 23.6633C16.4056 23.6581 16.4216 23.6447 16.4366 23.6323C16.4522 23.6194 16.4522 23.6194 16.4522 23.6194C16.4666 23.6012 16.4841 23.5884 16.4912 23.5908C16.4983 23.5932 16.5238 23.5774 16.5367 23.5615C16.5367 23.5615 16.5367 23.5615 16.5508 23.557C16.5642 23.5528 16.5642 23.5528 16.5642 23.5528C16.5819 23.56 16.6058 23.5646 16.6171 23.5628C16.6171 23.5628 16.6171 23.5628 16.6245 23.5566C16.6376 23.5453 16.6376 23.5453 16.6376 23.5453C16.6499 23.5299 16.6634 23.512 16.6674 23.5057C16.6714 23.4993 16.6905 23.4943 16.7028 23.506C16.7028 23.506 16.7028 23.506 16.7115 23.51C16.7414 23.524 16.7414 23.524 16.7414 23.524C16.7657 23.5032 16.8139 23.4806 16.8484 23.4734C16.8484 23.4734 16.8484 23.4734 16.8728 23.4555C16.8877 23.4445 16.8877 23.4445 16.8877 23.4445C16.9052 23.4268 16.9281 23.4201 16.9386 23.4297C16.949 23.439 16.9774 23.399 16.9923 23.3969C17.0072 23.3949 17.0538 23.3895 17.0656 23.3772C17.0773 23.3647 17.116 23.3989 17.1253 23.4001C17.1348 23.4011 17.1791 23.3771 17.2047 23.3641C17.2047 23.3641 17.2047 23.3641 17.2348 23.3648C17.2546 23.3654 17.2794 23.3642 17.2982 23.3672C17.3174 23.3703 17.3175 23.3678 17.3193 23.3517C17.3201 23.3451 17.3201 23.3451 17.3201 23.3451C17.3238 23.3384 17.3366 23.3398 17.3482 23.3483C17.36 23.3568 17.3977 23.3307 17.4075 23.3301C17.4173 23.3296 17.4961 23.3278 17.5604 23.3253C17.6247 23.3231 17.7972 23.3686 17.8068 23.3644C17.8164 23.3601 17.8475 23.371 17.8607 23.3816C17.8607 23.3816 17.8607 23.3816 17.8794 23.3681C17.8898 23.3607 17.9072 23.3657 17.9213 23.3641C17.9479 23.3614 17.9761 23.3835 18.0029 23.3555C18.006 23.3522 18.006 23.3522 18.006 23.3522C18.0324 23.376 18.0557 23.3847 18.0577 23.3716C18.0599 23.3585 18.1132 23.3562 18.1334 23.3617C18.1537 23.3671 18.2106 23.4176 18.2259 23.434C18.2413 23.4503 18.2998 23.4655 18.3046 23.4655C18.3095 23.4656 18.3344 23.4856 18.3592 23.5069C18.3841 23.5282 18.4298 23.6102 18.4239 23.6209C18.418 23.6315 18.4485 23.668 18.4552 23.6788C18.4619 23.6897 18.4859 23.7283 18.4941 23.7393C18.5021 23.7503 18.5159 23.8011 18.5187 23.8245C18.5215 23.8479 18.5335 23.9177 18.5377 23.9067C18.5418 23.8957 18.5527 23.8928 18.5556 23.9164C18.5584 23.9401 18.5766 24.0199 18.5737 24.0459C18.5707 24.0719 18.5965 24.1606 18.6092 24.2025C18.6217 24.2443 18.6592 24.3597 18.6734 24.3631C18.6875 24.3665 18.739 24.4496 18.756 24.4557C18.773 24.462 18.7548 24.5152 18.7652 24.5243C18.7756 24.5334 18.7958 24.5621 18.7913 24.5717C18.7867 24.5814 18.7905 24.6111 18.7944 24.6233C18.7983 24.6355 18.8201 24.7506 18.8356 24.7696C18.8356 24.7696 18.8356 24.7695 18.7961 24.7692C18.7932 24.7692 18.7932 24.7692 18.7932 24.7692C18.79 24.7768 18.7862 24.7955 18.785 24.8109C18.7836 24.8261 18.7872 24.8953 18.792 24.9299C18.792 24.9299 18.792 24.9299 18.7667 24.9609C18.7498 24.9813 18.7453 25.0198 18.7452 25.0502C18.7451 25.075 18.7451 25.075 18.7451 25.075C18.7306 25.0839 18.7077 25.111 18.694 25.1354C18.694 25.1354 18.694 25.1354 18.6865 25.1604C18.6794 25.1833 18.6794 25.1833 18.6794 25.1833C18.6716 25.209 18.6586 25.2402 18.6505 25.2527C18.6424 25.2651 18.6218 25.313 18.6188 25.3287C18.6159 25.3444 18.6013 25.3845 18.6038 25.4079C18.6064 25.4316 18.547 25.4587 18.541 25.4762C18.535 25.4938 18.5025 25.5631 18.4912 25.5925C18.4797 25.622 18.4278 25.7375 18.4083 25.7861C18.4083 25.7861 18.4083 25.7861 18.3883 25.829C18.3681 25.8723 18.3435 25.9131 18.3234 25.9564C18.3183 25.9676 18.3183 25.9676 18.3183 25.9676C18.3207 25.9861 18.3499 25.9945 18.3832 25.986C18.4165 25.9776 18.5064 25.9884 18.5199 25.9865C18.5199 25.9865 18.5199 25.9865 18.5254 25.969C18.5343 25.94 18.5343 25.94 18.5343 25.94C18.5498 25.9532 18.5683 25.9589 18.5753 25.9524C18.5824 25.9461 18.6265 25.9326 18.6526 25.9278C18.6786 25.9229 18.7357 25.8896 18.7403 25.9112C18.7451 25.9326 18.8003 25.8978 18.8282 25.8885C18.8562 25.8794 18.9268 25.8218 18.9421 25.8177C18.9573 25.8137 19.0012 25.7852 19.0149 25.7849C19.0286 25.7848 19.0658 25.7674 19.0744 25.7607C19.0829 25.7541 19.1136 25.7687 19.1191 25.7668C19.1246 25.7649 19.1437 25.7507 19.1529 25.7448C19.162 25.739 19.2005 25.7354 19.2127 25.7372C19.2249 25.7388 19.2977 25.6872 19.3508 25.6523C19.3508 25.6523 19.3508 25.6523 19.4099 25.6446C19.4477 25.6397 19.4477 25.6397 19.4477 25.6397C19.4887 25.6294 19.5322 25.616 19.5444 25.6098C19.5444 25.6098 19.5444 25.6098 19.5548 25.6023C19.5804 25.5836 19.5804 25.5836 19.5804 25.5836C19.6126 25.5793 19.642 25.5697 19.6459 25.5624C19.6498 25.5549 19.6668 25.5351 19.6751 25.5348C19.6833 25.5345 19.712 25.5309 19.7208 25.5295C19.7296 25.528 19.7645 25.4939 19.7829 25.4647C19.7829 25.4647 19.7829 25.4647 19.8133 25.503C19.8147 25.5049 19.8301 25.4983 19.8333 25.492C19.8649 25.4309 19.8649 25.4309 19.8649 25.4309Z" fill="#FFB629" stroke="#FFB629" stroke-width="0.294985"/>
</g>
<path d="M31.111 19.5969C30.8045 19.2905 30.3077 19.2905 30.0013 19.5969L25.4287 24.1695L25.0072 25.8553C24.9354 26.1426 25.1957 26.4029 25.483 26.3311L27.1688 25.9096L31.7414 21.337C32.0478 21.0306 32.0478 20.5337 31.7414 20.2273L31.111 19.5969Z" fill="#0A1551"/>
</svg>
