<svg width="40" height="40" viewBox="0 0 40 40" fill="none" xmlns="http://www.w3.org/2000/svg">
<circle cx="20" cy="20" r="20" fill="#002946"/>
<path d="M27.7216 30.9896H14.4729L14.011 26.7334L12.0474 9.88563C11.9884 9.38062 11.5607 9 11.0528 9H9.00001" stroke="#B1C3E9" stroke-width="1.13987" stroke-linecap="round"/>
<path d="M28.912 12.2318H13.6615C12.9543 12.2318 12.4052 12.8478 12.4865 13.5506L13.8117 25.0127C13.9252 25.9935 14.7558 26.7334 15.743 26.7334H26.7869C27.7711 26.7334 28.6003 25.9974 28.7172 25.0201L30.0865 13.555C30.1708 12.8513 29.6212 12.2318 28.912 12.2318Z" fill="white" stroke="#B1C3E9" stroke-width="1.13987"/>
<path d="M24.1542 20.4175C24.0279 20.4175 23.9253 20.5201 23.9253 20.6465V21.9925H22.5792C22.4529 21.9925 22.3503 22.0951 22.3503 22.2215C22.3503 22.3479 22.4529 22.4505 22.5792 22.4505H23.9253V23.7965C23.9253 23.9229 24.0279 24.0255 24.1542 24.0255C24.2806 24.0255 24.3832 23.9229 24.3832 23.7965V22.4505H25.7292C25.8556 22.4505 25.9582 22.3479 25.9582 22.2215C25.9582 22.0951 25.8556 21.9925 25.7292 21.9925H24.3832V20.6465C24.3832 20.5201 24.2806 20.4175 24.1542 20.4175Z" fill="#B1C3E9" stroke="#B1C3E9" stroke-width="0.0322137"/>
<path d="M21.9191 14.6894C21.9191 14.4818 22.0876 14.3133 22.2953 14.3133H26.0549C26.2625 14.3133 26.431 14.4818 26.431 14.6894V18.449C26.431 18.6567 26.2625 18.8252 26.0549 18.8252H22.2953C22.0876 18.8252 21.9191 18.6567 21.9191 18.449V14.6894Z" fill="#FF6100"/>
<path d="M16.1157 14.6894C16.1157 14.4818 16.2842 14.3133 16.4919 14.3133H20.2515C20.4591 14.3133 20.6276 14.4818 20.6276 14.6894V18.449C20.6276 18.6567 20.4591 18.8252 20.2515 18.8252H16.4919C16.2842 18.8252 16.1157 18.6567 16.1157 18.449V14.6894V14.6894Z" fill="#0099FF"/>
<path d="M16.1157 20.4929C16.1157 20.2852 16.2842 20.1167 16.4919 20.1167H20.2515C20.4591 20.1167 20.6276 20.2852 20.6276 20.4929V24.2525C20.6276 24.4601 20.4591 24.6286 20.2515 24.6286H16.4919C16.2842 24.6286 16.1157 24.4601 16.1157 24.2525V20.4929V20.4929Z" fill="#FFB629"/>
<path d="M26.5245 32.3461C25.8591 31.6807 25.8591 30.6019 26.5245 29.9365C27.1899 29.2711 28.2687 29.2711 28.9341 29.9365C29.5995 30.6019 29.5995 31.6807 28.9341 32.3461C28.2687 33.0115 27.1899 33.0115 26.5245 32.3461Z" fill="#002946" stroke="#B1C3E9" stroke-width="1.13987"/>
<path d="M14.4807 32.8451C13.5397 32.8451 12.7769 32.0822 12.7769 31.1412C12.7769 30.2002 13.5397 29.4373 14.4807 29.4373C15.4217 29.4373 16.1846 30.2002 16.1846 31.1412C16.1846 32.0822 15.4217 32.8451 14.4807 32.8451Z" fill="#002946" stroke="#B1C3E9" stroke-width="1.13987"/>
</svg>
