<svg width="200" height="200" viewBox="0 0 200 200" fill="none" xmlns="http://www.w3.org/2000/svg">
<path fill-rule="evenodd" clip-rule="evenodd" d="M90.3186 71.1662C90.3186 65.073 95.3181 62.7295 103.598 62.7295C115.472 62.7295 130.471 66.3229 142.345 72.7285V36.0134C129.377 30.8577 116.566 28.8267 103.598 28.8267C71.8829 28.8267 50.7913 45.3875 50.7913 73.041C50.7913 116.162 110.16 109.287 110.16 127.879C110.16 135.066 103.911 137.41 95.1618 137.41C82.1944 137.41 65.6335 132.098 52.5098 124.911V162.095C67.0396 168.344 81.7257 171 95.1618 171C127.659 171 150 154.908 150 126.942C149.844 80.384 90.3186 88.6644 90.3186 71.1662Z" fill="#635BFF"/>
</svg>
