<svg width="200" height="200" viewBox="0 0 200 200" fill="none" xmlns="http://www.w3.org/2000/svg">
<path d="M100.5 28C140.541 28 173 60.4588 173 100.5C173 140.541 140.541 173 100.5 173C60.4588 173 28 140.541 28 100.5C28 60.4588 60.4588 28 100.5 28Z" fill="#E5E5E4"/>
<path d="M100.5 29.4116C139.761 29.4116 171.588 61.2388 171.588 100.5C171.588 139.761 139.761 171.588 100.5 171.588C61.2389 171.588 29.4117 139.761 29.4117 100.5C29.4117 61.2388 61.24 29.4116 100.5 29.4116Z" fill="white"/>
<path d="M100.5 35.1143C136.611 35.1143 165.886 64.3885 165.886 100.5C165.886 136.611 136.611 165.886 100.5 165.886C64.3886 165.886 35.1143 136.611 35.1143 100.5C35.1143 64.3885 64.3886 35.1143 100.5 35.1143Z" fill="#4A8CFF"/>
<path d="M57.8416 80.0148V110.742C57.8689 117.691 63.5442 123.283 70.4653 123.255H115.256C116.529 123.255 117.553 122.23 117.553 120.984V90.2569C117.526 83.3085 111.851 77.7161 104.931 77.7445H60.1403C58.8671 77.7445 57.8427 78.7689 57.8427 80.0148H57.8416ZM120.404 92.0014L138.896 78.4929C140.502 77.1641 141.747 77.4957 141.747 79.9046V121.096C141.747 123.836 140.224 123.505 138.896 122.507L120.404 109.026V92.0014Z" fill="white"/>
</svg>
