<svg width="200" height="200" viewBox="0 0 200 200" fill="none" xmlns="http://www.w3.org/2000/svg">
<path d="M172.301 53.3851C171.882 52.7858 171.349 52.275 170.733 51.8819C170.116 51.4888 169.428 51.2211 168.708 51.0943C167.988 50.9675 167.25 50.9839 166.537 51.1427C165.823 51.3015 165.147 51.5995 164.549 52.0196L27.9972 147.63C28.5085 148.363 29.1894 148.961 29.982 149.374C30.7747 149.787 31.6553 150.001 32.5489 150H167.746C169.22 150 170.634 149.414 171.677 148.372C172.719 147.329 173.305 145.915 173.305 144.441V56.488C173.287 55.3762 172.936 54.2954 172.297 53.3851" fill="#7856FF"/>
<path d="M35.763 52.0162C34.9355 51.4326 33.9643 51.0861 32.9543 51.0141C31.9443 50.9421 30.9338 51.1473 30.0319 51.6075C29.13 52.0678 28.3709 52.7656 27.8366 53.6257C27.3023 54.4858 27.013 55.4755 27 56.488V144.6L92.0133 91.3487L35.763 52.0162Z" fill="#7856FF"/>
</svg>
