<svg width="200" height="200" viewBox="0 0 200 200" fill="none" xmlns="http://www.w3.org/2000/svg">
<path fill-rule="evenodd" clip-rule="evenodd" d="M120.758 86.9566C122.036 90.7895 125.613 93.0893 129.702 93.0893C130.724 93.0893 131.746 92.8338 132.768 92.5782C137.623 90.7895 140.178 85.4234 138.39 80.5683C135.323 72.1358 128.935 65.492 119.991 61.4035C115.392 59.3592 109.77 61.4035 107.47 66.003C105.426 70.6026 107.47 76.2243 112.07 78.524C116.669 80.5683 119.48 83.3791 120.758 86.9566Z" fill="#FF9E1A"/>
<path fill-rule="evenodd" clip-rule="evenodd" d="M117.691 28.1848C112.58 27.1626 107.725 30.4845 106.703 35.5952C105.681 40.7058 109.003 45.5608 114.113 46.583C135.322 50.6715 149.632 64.9812 153.21 85.6792C153.976 90.2787 158.065 93.3451 162.409 93.3451C162.92 93.3451 163.431 93.3451 163.942 93.0895C169.052 92.0674 172.374 87.2123 171.608 82.3573C166.753 54.2489 146.566 33.8064 117.691 28.1848Z" fill="#FF9E1A"/>
<path fill-rule="evenodd" clip-rule="evenodd" d="M93.9266 121.709C85.4941 121.709 78.3393 114.809 78.3393 106.121C78.3393 97.6889 85.2386 90.534 93.9266 90.534C99.0373 90.534 103.381 86.4455 103.381 81.0794C103.381 75.7132 99.2928 71.6248 93.9266 71.6248C75.0174 71.6248 59.6855 86.9566 59.6855 105.866C59.6855 124.775 75.0174 140.107 93.9266 140.107C112.836 140.107 128.168 124.775 128.168 105.866C128.168 100.755 124.079 96.4112 118.713 96.4112C113.603 96.4112 109.258 100.5 109.258 105.866C109.514 114.809 102.359 121.709 93.9266 121.709Z" fill="#1856ED"/>
<path fill-rule="evenodd" clip-rule="evenodd" d="M150.399 96.9221C145.289 96.9221 140.945 101.011 140.945 106.377C140.945 132.441 119.736 153.65 93.6714 153.65C67.6073 153.65 46.3982 132.441 46.3982 106.377C46.3982 80.3126 67.6073 59.1036 93.6714 59.1036C98.782 59.1036 103.126 55.0151 103.126 49.649C103.126 44.5384 99.0375 40.1943 93.6714 40.1943C57.6416 40.1943 28 69.8359 28 106.121C28 142.407 57.6416 172.048 93.9269 172.048C130.212 172.048 159.854 142.407 159.854 106.121C159.854 101.011 155.765 96.9221 150.399 96.9221Z" fill="#1856ED"/>
</svg>
