<svg width="200" height="200" viewBox="0 0 200 200" fill="none" xmlns="http://www.w3.org/2000/svg">
<path d="M29.0185 61.1354C28.793 57.4709 32.4011 54.5957 35.9246 55.0467C78.6017 55.0467 121.279 55.0185 163.956 55.0749C166.126 54.8776 168.071 55.8078 169.678 57.189C158.29 74.0174 144.365 89.8874 126.155 99.4432C115.331 105.25 102.562 107.787 90.4407 105.194C73.8942 102.29 59.4336 90.0847 53.8523 74.2429C52.9785 72.157 52.8094 69.7892 51.6818 67.816C48.9758 67.6187 45.7623 67.7596 43.9864 70.0992C41.9569 72.3825 42.4925 75.5959 43.028 78.3302C45.8751 93.8901 55.5436 108.125 69.1022 116.328C81.2514 123.939 96.2193 127.096 110.342 124.305C123.562 121.853 135.486 114.637 145.239 105.532C155.584 96.0043 163.73 84.3343 170.89 72.2979C171.031 94.2566 170.946 116.215 170.975 138.174C171.313 141.613 168.212 144.77 164.773 144.544C121.532 144.601 78.3198 144.516 35.0789 144.46C31.7245 144.657 28.7366 141.528 29.0185 138.202C29.0185 112.523 28.9903 86.8149 29.0185 61.1354Z" fill="#2FACDA"/>
</svg>
