<svg width="200" height="200" viewBox="0 0 200 200" fill="none" xmlns="http://www.w3.org/2000/svg">
<mask id="mask0_9_491" style="mask-type:alpha" maskUnits="userSpaceOnUse" x="48" y="28" width="104" height="143">
<path d="M112.773 28.5H57.7159C52.3722 28.5 48 32.8722 48 38.2159V161.284C48 166.628 52.3722 171 57.7159 171H141.92C147.264 171 151.636 166.628 151.636 161.284V67.3636L112.773 28.5Z" fill="white"/>
</mask>
<g mask="url(#mask0_9_491)">
<path d="M112.773 28.5H57.7159C52.3722 28.5 48 32.8722 48 38.2159V161.284C48 166.628 52.3722 171 57.7159 171H141.92C147.264 171 151.636 166.628 151.636 161.284V67.3636L128.966 51.1705L112.773 28.5Z" fill="#0F9D58"/>
</g>
<mask id="mask1_9_491" style="mask-type:alpha" maskUnits="userSpaceOnUse" x="48" y="28" width="104" height="143">
<path d="M112.773 28.5H57.7159C52.3722 28.5 48 32.8722 48 38.2159V161.284C48 166.628 52.3722 171 57.7159 171H141.92C147.264 171 151.636 166.628 151.636 161.284V67.3636L112.773 28.5Z" fill="white"/>
</mask>
<g mask="url(#mask1_9_491)">
<path d="M73.9091 98.1304V145.091H125.727V98.1304H73.9091ZM96.5795 138.613H80.3864V130.517H96.5795V138.613ZM96.5795 125.659H80.3864V117.562H96.5795V125.659ZM96.5795 112.704H80.3864V104.608H96.5795V112.704ZM119.25 138.613H103.057V130.517H119.25V138.613ZM119.25 125.659H103.057V117.562H119.25V125.659ZM119.25 112.704H103.057V104.608H119.25V112.704Z" fill="#F1F1F1"/>
</g>
<mask id="mask2_9_491" style="mask-type:alpha" maskUnits="userSpaceOnUse" x="48" y="28" width="104" height="143">
<path d="M112.773 28.5H57.7159C52.3722 28.5 48 32.8722 48 38.2159V161.284C48 166.628 52.3722 171 57.7159 171H141.92C147.264 171 151.636 166.628 151.636 161.284V67.3636L112.773 28.5Z" fill="white"/>
</mask>
<g mask="url(#mask2_9_491)">
<path d="M115.615 64.522L151.636 100.536V67.3639L115.615 64.522Z" fill="url(#paint0_linear_9_491)"/>
</g>
<mask id="mask3_9_491" style="mask-type:alpha" maskUnits="userSpaceOnUse" x="48" y="28" width="104" height="143">
<path d="M112.773 28.5H57.7159C52.3722 28.5 48 32.8722 48 38.2159V161.284C48 166.628 52.3722 171 57.7159 171H141.92C147.264 171 151.636 166.628 151.636 161.284V67.3636L112.773 28.5Z" fill="white"/>
</mask>
<g mask="url(#mask3_9_491)">
<path d="M112.773 28.5V57.6477C112.773 63.0158 117.121 67.3636 122.489 67.3636H151.636L112.773 28.5Z" fill="#87CEAC"/>
</g>
<mask id="mask4_9_491" style="mask-type:alpha" maskUnits="userSpaceOnUse" x="48" y="28" width="104" height="143">
<path d="M112.773 28.5H57.7159C52.3722 28.5 48 32.8722 48 38.2159V161.284C48 166.628 52.3722 171 57.7159 171H141.92C147.264 171 151.636 166.628 151.636 161.284V67.3636L112.773 28.5Z" fill="white"/>
</mask>
<g mask="url(#mask4_9_491)">
<path d="M57.7159 28.5C52.3722 28.5 48 32.8722 48 38.2159V39.0256C48 33.6818 52.3722 29.3097 57.7159 29.3097H112.773V28.5H57.7159Z" fill="white" fill-opacity="0.2"/>
</g>
<mask id="mask5_9_491" style="mask-type:alpha" maskUnits="userSpaceOnUse" x="48" y="28" width="104" height="143">
<path d="M112.773 28.5H57.7159C52.3722 28.5 48 32.8722 48 38.2159V161.284C48 166.628 52.3722 171 57.7159 171H141.92C147.264 171 151.636 166.628 151.636 161.284V67.3636L112.773 28.5Z" fill="white"/>
</mask>
<g mask="url(#mask5_9_491)">
<path d="M141.92 170.191H57.7159C52.3722 170.191 48 165.818 48 160.475V161.284C48 166.628 52.3722 171 57.7159 171H141.92C147.264 171 151.636 166.628 151.636 161.284V160.475C151.636 165.818 147.264 170.191 141.92 170.191Z" fill="#263238" fill-opacity="0.2"/>
</g>
<mask id="mask6_9_491" style="mask-type:alpha" maskUnits="userSpaceOnUse" x="48" y="28" width="104" height="143">
<path d="M112.773 28.5H57.7159C52.3722 28.5 48 32.8722 48 38.2159V161.284C48 166.628 52.3722 171 57.7159 171H141.92C147.264 171 151.636 166.628 151.636 161.284V67.3636L112.773 28.5Z" fill="white"/>
</mask>
<g mask="url(#mask6_9_491)">
<path d="M122.489 67.3636C117.121 67.3636 112.773 63.0157 112.773 57.6477V58.4574C112.773 63.8254 117.121 68.1733 122.489 68.1733H151.636V67.3636H122.489Z" fill="#263238" fill-opacity="0.1"/>
<path d="M112.773 28.5H57.7159C52.3722 28.5 48 32.8722 48 38.2159V161.284C48 166.628 52.3722 171 57.7159 171H141.92C147.264 171 151.636 166.628 151.636 161.284V67.3636L112.773 28.5Z" fill="url(#paint1_radial_9_491)"/>
</g>
<defs>
<linearGradient id="paint0_linear_9_491" x1="133.627" y1="67.6141" x2="133.627" y2="100.541" gradientUnits="userSpaceOnUse">
<stop stop-color="#263238" stop-opacity="0.2"/>
<stop offset="1" stop-color="#263238" stop-opacity="0.02"/>
</linearGradient>
<radialGradient id="paint1_radial_9_491" cx="0" cy="0" r="1" gradientUnits="userSpaceOnUse" gradientTransform="translate(51.2833 31.3325) scale(167.112)">
<stop stop-color="white" stop-opacity="0.1"/>
<stop offset="1" stop-color="white" stop-opacity="0"/>
</radialGradient>
</defs>
</svg>
