<svg width="40" height="40" viewBox="0 0 40 40" fill="none" xmlns="http://www.w3.org/2000/svg">
    <circle cx="20" cy="20" r="20" fill="#D1D1FE"/>
    <rect x="12" y="6" width="16" height="28" rx="2" fill="#0A1551"/>
    <rect x="13" y="8" width="14" height="22" fill="white"/>
    <circle cx="20" cy="32" r="1" fill="white"/>
    <rect x="13" y="12" width="14" height="14" rx="2.27549" fill="white"/>
    <path d="M18.2048 22.8705C18.3805 23.0409 18.2563 23.3328 18.0067 23.3328H16.4447C16.1365 23.3328 15.8857 23.0897 15.8857 22.7909V21.2767C15.8857 21.0347 16.1869 20.9143 16.3627 21.0847L18.2048 22.8705Z" fill="#0A1551"/>
    <path d="M20.6466 22.9885C20.1842 22.5292 20.1842 21.7844 20.6466 21.3251L22.3153 19.6673C22.7776 19.2079 23.5273 19.2079 23.9896 19.6673C24.452 20.1266 24.452 20.8714 23.9896 21.3307L22.321 22.9885C21.8586 23.4479 21.1089 23.4479 20.6466 22.9885Z" fill="#FFB629"/>
    <path d="M16.2389 18.8228C15.7765 18.3635 15.7765 17.6187 16.2389 17.1593L19.0471 14.3675C19.5095 13.9081 20.2591 13.9081 20.7215 14.3675C21.1838 14.8268 21.1838 15.5716 20.7215 16.0309L17.9132 18.8228C17.4509 19.2822 16.7012 19.2822 16.2389 18.8228Z" fill="#0099FF"/>
    <path d="M18.5338 20.8126C18.0714 20.3532 18.0714 19.6085 18.5338 19.1491L22.3282 15.3794C22.7906 14.9201 23.5402 14.9201 24.0026 15.3794C24.465 15.8388 24.465 16.5835 24.0026 17.0429L20.2082 20.8126C19.7458 21.2719 18.9962 21.2719 18.5338 20.8126Z" fill="#FF6100"/>
</svg>