<svg width="200" height="200" viewBox="0 0 200 200" fill="none" xmlns="http://www.w3.org/2000/svg">
<path d="M111.004 27C94.7566 27 85.3604 34.2896 80.828 39.3257C80.2895 34.9861 77.4264 29.3562 66.2567 29.3562H42V54.7467H51.9411C53.623 54.7467 54.1646 55.2836 54.1646 56.9623V172.895H83.08V129.383C83.08 128.208 83.0563 127.111 83.0263 126.129C87.5428 130.277 96.1685 135.988 109.642 135.988C137.904 135.988 157.663 113.585 157.663 81.4985C157.663 48.9036 138.902 27 111.004 27ZM105.129 110.802C89.5626 110.802 82.4909 95.8978 82.4909 82.0891C82.4909 60.3387 94.3855 52.5864 105.516 52.5864C119.165 52.5864 128.345 64.3546 128.345 81.8854C128.345 101.877 116.674 110.802 105.13 110.802" fill="#231F1F"/>
</svg>
