<svg width="200" height="200" viewBox="0 0 200 200" fill="none" xmlns="http://www.w3.org/2000/svg">
<path d="M169.555 129.493C171.313 131.953 170.961 135.117 168.852 136.875C166.391 138.632 162.876 138.281 161.118 136.172L148.815 120.353L136.863 135.82C135.106 138.281 131.59 138.281 129.13 136.523C126.669 134.765 126.318 131.602 128.075 129.141L142.136 110.862L128.075 92.5826C126.318 90.1219 127.021 86.6067 129.13 84.8491C131.59 83.0914 135.106 83.7945 136.863 85.9036L148.815 101.722L161.118 86.6067C162.876 84.146 166.04 83.7945 168.852 85.5521C171.313 87.3097 171.313 90.825 169.555 93.2856L155.846 111.213L169.555 129.493V129.493ZM105.578 127.383C96.4381 127.383 89.056 120.353 89.056 111.213C89.056 102.425 96.4381 95.0433 105.578 95.0433C114.717 95.0433 122.099 102.425 122.099 111.213C121.748 120.353 114.366 127.383 105.578 127.383ZM57.0674 127.383C47.9277 127.383 40.5457 120.353 40.5457 111.213C40.5457 102.425 47.9277 95.0433 57.0674 95.0433C66.207 95.0433 73.589 102.425 73.589 111.213C73.589 120.353 66.207 127.383 57.0674 127.383V127.383ZM105.578 84.4975C95.3835 84.4975 86.2439 90.1219 81.674 98.5585C77.1042 90.1219 67.9646 84.4975 57.4189 84.4975C51.0914 84.4975 45.4671 86.6067 40.8972 89.7704V67.2729C40.8972 64.4607 38.4366 62 35.6244 62C32.4607 62 30 64.4607 30 67.2729V111.565C30.3515 126.329 42.3033 137.929 57.0674 137.929C67.6131 137.929 76.7527 131.953 81.3225 123.517C85.8923 131.953 95.032 137.929 105.226 137.929C120.342 137.929 132.645 125.977 132.645 110.862C132.997 96.4494 120.693 84.4975 105.578 84.4975V84.4975Z" fill="#0071F7"/>
</svg>
