<svg width="200" height="200" viewBox="0 0 200 200" fill="none" xmlns="http://www.w3.org/2000/svg">
<path d="M137.368 61.6316H62.6316V136.368H137.368V61.6316Z" fill="white"/>
<path d="M137.368 170L171 136.368H137.368V170Z" fill="#EA4335"/>
<path d="M171 61.6316H137.368V136.368H171V61.6316Z" fill="#FBBC04"/>
<path d="M137.368 136.368H62.6316V170H137.368V136.368Z" fill="#34A853"/>
<path d="M29 136.368V158.789C29 164.983 34.0167 170 40.2105 170H62.6316V136.368H29Z" fill="#188038"/>
<path d="M171 61.6316V39.2105C171 33.0167 165.983 28 159.789 28H137.368V61.6316H171Z" fill="#1967D2"/>
<path d="M137.368 28H40.2105C34.0167 28 29 33.0167 29 39.2105V136.368H62.6316V61.6316H137.368V28Z" fill="#4285F4"/>
<path d="M77.9622 119.609C75.1689 117.722 73.2351 114.966 72.1794 111.322L78.6629 108.65C79.2514 110.893 80.279 112.63 81.7458 113.863C83.2031 115.096 84.9781 115.704 87.0521 115.704C89.1727 115.704 90.9944 115.059 92.5172 113.77C94.04 112.481 94.806 110.836 94.806 108.847C94.806 106.81 94.0026 105.147 92.3957 103.858C90.7889 102.569 88.771 101.924 86.3608 101.924H82.6146V95.5061H85.9777C88.0517 95.5061 89.7987 94.9455 91.2187 93.8245C92.6387 92.7034 93.3487 91.1713 93.3487 89.2188C93.3487 87.4812 92.7134 86.0986 91.4429 85.0616C90.1723 84.0246 88.5655 83.5015 86.613 83.5015C84.7072 83.5015 83.1938 84.0059 82.0727 85.0242C80.9524 86.0452 80.1102 87.3343 79.6251 88.7704L73.2071 86.0986C74.0572 83.6883 75.6173 81.5583 77.9062 79.7179C80.195 77.8775 83.1191 76.9526 86.6691 76.9526C89.2942 76.9526 91.6577 77.4571 93.7504 78.4754C95.843 79.4937 97.4872 80.9044 98.6736 82.698C99.8601 84.5011 100.449 86.519 100.449 88.7611C100.449 91.0499 99.8975 92.9837 98.7951 94.5718C97.6927 96.16 96.3381 97.3745 94.7313 98.2246V98.6076C96.8061 99.4631 98.6084 100.868 99.9442 102.671C101.299 104.493 101.981 106.67 101.981 109.211C101.981 111.752 101.336 114.022 100.047 116.012C98.7577 118.002 96.9734 119.571 94.7126 120.711C92.4425 121.851 89.8921 122.43 87.0614 122.43C83.7823 122.439 80.7555 121.496 77.9622 119.609V119.609ZM117.788 87.4345L110.669 92.582L107.11 87.1823L119.88 77.9709H124.775V121.421H117.788V87.4345Z" fill="#4285F4"/>
</svg>
