<svg width="200" height="200" viewBox="0 0 200 200" fill="none" xmlns="http://www.w3.org/2000/svg">
<path d="M100 171C139.212 171 171 139.212 171 100C171 60.7878 139.212 29 100 29C60.7878 29 29 60.7878 29 100C29 139.212 60.7878 171 100 171Z" fill="#1A73E8"/>
<path d="M123.402 135.5H77.422C71.8556 135.5 66.9424 132.149 66.9424 126.639V130.672C66.9424 136.182 71.8556 140.356 77.422 140.356H123.402C128.968 140.356 133.881 136.182 133.881 130.672V126.639C133.881 132.149 128.968 135.5 123.402 135.5Z" fill="#185ABC"/>
<path d="M100 93.5531C91.6789 93.5247 85.1185 87.7595 84.6641 79.8359V83.0735C84.6641 91.2811 91.5369 98.4095 100 98.4095C108.463 98.4095 115.336 91.2811 115.336 83.0735V79.8359C114.683 87.8163 108.321 93.5815 100 93.5531Z" fill="#185ABC"/>
<path d="M100 103.238C83.8121 103.238 66.9141 111.133 66.9141 121.783V126.611C66.9141 132.12 71.4297 136.295 76.9961 136.295H123.771C129.337 136.295 133.853 132.12 133.853 126.611V121.783C133.881 111.104 116.188 103.238 100 103.238Z" fill="white"/>
<path d="M100 94.3488C108.47 94.3488 115.336 87.4826 115.336 79.0128C115.336 70.5429 108.47 63.6768 100 63.6768C91.5302 63.6768 84.6641 70.5429 84.6641 79.0128C84.6641 87.4826 91.5302 94.3488 100 94.3488Z" fill="white"/>
</svg>
