<svg width="200" height="200" viewBox="0 0 200 200" fill="none" xmlns="http://www.w3.org/2000/svg">
<path d="M41.2366 40.1688C41.2366 27.1657 54.0026 21 61.433 21C68.3496 21 74.3967 24.1223 74.3967 32.3037C74.8723 38.3308 72.9723 44.3049 69.1026 48.95C65.2329 53.5951 59.7003 56.543 53.6864 57.1639V57.1639C47.4813 57.2429 41.2366 54.753 41.2366 40.1688ZM166.249 157.988C161.453 162.59 155.03 165.105 148.384 164.984C131.034 164.984 121.509 153.482 121.509 134.63C121.509 123.919 124.749 109.493 124.749 100.047C124.749 94.5926 123.445 90.8378 119.77 90.8378C111.074 90.8378 103.486 116.805 103.486 150.123C103.486 155.775 99.5336 164.786 79.2185 164.786C76.7681 164.786 75.2662 163.324 74.7919 160.834C74.7562 160.67 74.6808 160.517 74.5723 160.388C74.4638 160.26 74.3254 160.16 74.1694 160.098C74.0133 160.035 73.8444 160.012 73.6773 160.03C73.5102 160.048 73.3501 160.107 73.211 160.201C68.8874 163.313 63.6763 164.948 58.3502 164.865C37.9561 164.865 31 149.372 31 130.045C31 113.327 33.1738 84.4746 36.4147 77.6765C38.5613 73.9222 41.5086 70.6868 45.047 68.2004C48.5855 65.7139 52.6282 64.0374 56.8878 63.29H57.125C59.187 63.3416 61.1472 64.1971 62.5871 65.674C64.027 67.1508 64.8327 69.1321 64.832 71.1947C64.852 71.3654 64.852 71.5378 64.832 71.7085C64.832 78.6646 59.8521 94.5926 59.8521 116.212C59.8521 137.831 62.2235 144.511 67.2429 144.511C69.1307 144.761 71.0418 144.265 72.5697 143.129C74.0976 141.992 75.1218 140.304 75.4243 138.424C75.9381 132.93 76.4519 127.002 76.5705 121.073C76.7681 86.7274 77.44 82.9331 78.7443 78.1508C80.6809 68.27 96.2926 61.5905 103.249 61.5905C104.096 61.486 104.955 61.5507 105.777 61.781C106.598 62.0113 107.366 62.4026 108.035 62.9321C108.705 63.4616 109.262 64.1188 109.675 64.8655C110.088 65.6122 110.349 66.4336 110.442 67.2819C110.501 67.8997 110.501 68.5217 110.442 69.1395C109.861 73.4018 108.868 77.5977 107.478 81.6684C107.426 81.7878 107.398 81.9162 107.396 82.0464C107.393 82.1765 107.417 82.3058 107.465 82.4269C107.512 82.5481 107.583 82.6586 107.674 82.7522C107.764 82.8459 107.872 82.9208 107.992 82.9727C108.111 83.0246 108.239 83.0525 108.37 83.0547C108.5 83.057 108.629 83.0336 108.75 82.9859C108.871 82.9382 108.982 82.8671 109.075 82.7767C109.169 82.6862 109.244 82.5782 109.296 82.4589C115.461 73.0128 126.133 63.4876 136.014 63.4876C149.452 63.4876 152.93 73.329 152.93 85.6603C152.93 98.8611 149.452 112.062 149.452 126.527C149.452 138.384 151.507 143.483 155.42 143.76C159.332 144.036 165.3 133.721 166.605 132.377C166.743 132.233 166.922 132.136 167.119 132.1C167.909 132.1 170.122 131.665 171.071 133.246C172.019 134.827 173.403 135.578 172.889 142.613C171.831 148.164 169.564 153.413 166.249 157.988Z" fill="#FF4A00"/>
</svg>
