<svg width="200" height="200" viewBox="0 0 200 200" fill="none" xmlns="http://www.w3.org/2000/svg">
<path d="M155.988 69.5997C162.393 76.7785 166 86.0085 166 95.6048V143H144.945V95.0187C144.871 85.569 137.067 77.8773 127.571 77.8773C127.055 77.8773 126.466 77.9506 125.804 77.9506C117.337 78.8296 110.196 86.8143 110.196 95.4583V142.927H89.2147V95.092C89.1411 85.6422 81.411 77.8773 71.9141 77.8773C71.3988 77.8773 70.8098 77.9506 70.1472 77.9506C61.681 78.8296 54.5399 86.8143 54.5399 95.5315V142.927H34V94.9455C34 73.9949 51.1534 57 72.135 57C82.6626 57 92.6748 61.3952 99.8896 68.9404C107.104 61.322 117.19 57 127.718 57C128.896 57 129.926 57.0733 131.104 57.1465C140.675 58.0256 149.509 62.4208 155.988 69.5997Z" fill="black"/>
</svg>
