<svg width="200" height="200" viewBox="0 0 200 200" fill="none" xmlns="http://www.w3.org/2000/svg">
<path fill-rule="evenodd" clip-rule="evenodd" d="M81.3555 28.0002C73.4619 28.0061 67.0736 34.412 67.0794 42.3055C67.0736 50.1991 73.4678 56.605 81.3614 56.6108H95.6433V42.3114C95.6492 34.4178 89.2549 28.0119 81.3555 28.0002C81.3614 28.0002 81.3614 28.0002 81.3555 28.0002V28.0002ZM81.3555 66.1555H43.282C35.3884 66.1613 28.9942 72.5672 29 80.4608C28.9883 88.3543 35.3826 94.7602 43.2761 94.7719H81.3555C89.2491 94.7661 95.6433 88.3602 95.6375 80.4666C95.6433 72.5672 89.2491 66.1613 81.3555 66.1555Z" fill="#36C5F0"/>
<path fill-rule="evenodd" clip-rule="evenodd" d="M171.796 80.4605C171.802 72.5669 165.408 66.1611 157.514 66.1552C149.621 66.1611 143.226 72.5669 143.232 80.4605V94.7716H157.514C165.408 94.7658 171.802 88.3599 171.796 80.4605ZM133.717 80.4605V42.3053C133.723 34.4175 127.334 28.0117 119.441 28C111.547 28.0058 105.153 34.4117 105.159 42.3053V80.4605C105.147 88.3541 111.541 94.76 119.435 94.7716C127.328 94.7658 133.723 88.3599 133.717 80.4605Z" fill="#2EB67D"/>
<path fill-rule="evenodd" clip-rule="evenodd" d="M119.435 171.082C127.328 171.076 133.723 164.67 133.717 156.777C133.723 148.883 127.328 142.477 119.435 142.472H105.153V156.777C105.147 164.665 111.541 171.071 119.435 171.082ZM119.435 132.921H157.514C165.408 132.915 171.802 126.509 171.796 118.616C171.808 110.722 165.414 104.316 157.52 104.305H119.441C111.547 104.311 105.153 110.716 105.159 118.61C105.153 126.509 111.541 132.915 119.435 132.921Z" fill="#ECB22E"/>
<path fill-rule="evenodd" clip-rule="evenodd" d="M29 118.616C28.9942 126.509 35.3884 132.915 43.282 132.921C51.1755 132.915 57.5698 126.509 57.5639 118.616V104.31H43.282C35.3884 104.316 28.9942 110.722 29 118.616ZM67.0794 118.616V156.771C67.0677 164.664 73.4619 171.07 81.3555 171.082C89.2491 171.076 95.6433 164.67 95.6375 156.777V118.627C95.6491 110.734 89.2549 104.328 81.3613 104.316C73.4619 104.316 67.0736 110.722 67.0794 118.616C67.0794 118.616 67.0794 118.621 67.0794 118.616Z" fill="#E01E5A"/>
</svg>
