<svg width="200" height="200" viewBox="0 0 200 200" fill="none" xmlns="http://www.w3.org/2000/svg">
<path d="M145.879 31H53.2128C40.4504 31 30 41.3579 30 54.2128V146.787C30 159.641 40.4504 169.999 53.2128 169.999H145.787C158.641 169.999 168.999 159.549 168.999 146.787V54.2128C169.092 41.3579 158.734 31 145.879 31ZM143.844 137.446C143.844 141.515 140.515 144.752 136.538 144.752H62.6459C58.5767 144.752 55.3399 141.423 55.3399 137.446V63.6459C55.3399 59.5767 58.6692 56.3399 62.6459 56.3399H136.446C140.515 56.3399 143.752 59.6692 143.752 63.6459V137.446H143.844ZM84.7489 119.412C82.4369 119.412 80.4948 117.562 80.4948 115.158V85.7489C80.4948 83.4369 82.3444 81.4948 84.7489 81.4948H114.25C116.562 81.4948 118.505 83.3444 118.505 85.7489V115.25C118.505 117.562 116.655 119.505 114.25 119.505L84.7489 119.412Z" fill="black"/>
</svg>
