<svg viewBox="0 0 40 40" width="40" height="40" fill="none" xmlns="http://www.w3.org/2000/svg"><circle cx="20" cy="20" r="20" fill="#0D953B"></circle><path fill-rule="evenodd" clip-rule="evenodd" d="M9.001 28.889c0 1.214.33 1.54 1.539 1.54h18.335c1.212 0 1.552-.331 1.552-1.531l.002-9.187-.002-9.187c0-1.154-.363-1.522-1.512-1.522L19.715 9l-9.2.002C9.349 9.002 9 9.356 9 10.515L9 19.702l.001 9.187z" fill="#fff"></path><path d="M23.88 12.732c0-.417.34-.756.757-.756h3.492c.418 0 .756.339.756.756v2.06a.756.756 0 01-.756.756h-3.492a.756.756 0 01-.756-.757v-2.059zM23.88 18.09c0-.418.34-.757.757-.757h3.25c.417 0 .756.339.756.756v3.25a.756.756 0 01-.756.756h-3.25a.756.756 0 01-.756-.756v-3.25zM23.88 24.637c0-.418.34-.756.757-.756h3.25c.417 0 .756.338.756.756v3.25a.756.756 0 01-.756.756h-3.25a.756.756 0 01-.756-.756v-3.25z" fill="#FFB629"></path><path d="M17.24 12.732c0-.417.338-.756.756-.756h3.586c.417 0 .756.339.756.756v2.06a.756.756 0 01-.756.756h-3.586a.756.756 0 01-.756-.757v-2.059zM17.333 18.09c0-.418.339-.757.756-.757h3.25c.417 0 .756.339.756.756v3.25a.756.756 0 01-.756.756h-3.25a.756.756 0 01-.756-.756v-3.25zM17.333 24.637c0-.418.339-.756.756-.756h3.25c.417 0 .756.338.756.756v3.25a.756.756 0 01-.756.756h-3.25a.756.756 0 01-.756-.756v-3.25z" fill="#FF6100"></path><path d="M10.488 12.732c0-.417.339-.756.756-.756h3.548c.417 0 .756.339.756.756v2.06a.756.756 0 01-.756.756h-3.548a.756.756 0 01-.756-.757v-2.059zM10.488 18.09c0-.418.339-.757.756-.757h3.548c.417 0 .756.339.756.756v3.25a.756.756 0 01-.756.756h-3.548a.756.756 0 01-.756-.756v-3.25zM10.488 24.637c0-.418.339-.756.756-.756h3.548c.417 0 .756.338.756.756v3.25a.756.756 0 01-.756.756h-3.548a.756.756 0 01-.756-.756v-3.25z" fill="#09F"></path></svg>
