<svg width="200" height="200" viewBox="0 0 200 200" fill="none" xmlns="http://www.w3.org/2000/svg">
<path d="M154.213 29H45.7868C36.5157 29 29 36.5157 29 45.7868V154.213C29 163.484 36.5157 171 45.7868 171H154.213C163.484 171 171 163.484 171 154.213V45.7868C171 36.5157 163.484 29 154.213 29Z" fill="#3396CD"/>
<path d="M134.614 58C137.642 63.04 139 68.237 139 74.8C139 95.7311 121.306 122.914 106.945 142H74.15L61 62.5856L89.7249 59.8315L96.7104 116.337C103.202 105.646 111.23 88.8459 111.23 77.3999C111.23 71.1288 110.166 66.8654 108.502 63.354L134.614 58Z" fill="white"/>
</svg>
